<?xml version="1.0" encoding="UTF-8"?>
<svg width="80px" height="76px" viewBox="0 0 80 76" version="1.1" xmlns="http://www.w3.org/2000/svg" xmlns:xlink="http://www.w3.org/1999/xlink">
    <!-- Generator: Sketch 48.2 (47327) - http://www.bohemiancoding.com/sketch -->
    <title>Slice</title>
    <desc>Created with Sketch.</desc>
    <defs>
        <polygon id="path-1" points="0 0.911 53.69 0.911 53.69 47 0 47"></polygon>
    </defs>
    <g id="Page-1" stroke="none" stroke-width="1" fill="none" fill-rule="evenodd">
        <g transform="translate(13.000000, 14.000000)">
            <g id="Group-3" transform="translate(0.000000, 0.089500)">
                <mask id="mask-2" fill="white">
                    <use xlink:href="#path-1"></use>
                </mask>
                <g id="Clip-2"></g>
                <path d="M26.8451,39.6532 C21.6621,39.6532 17.4461,36.3402 17.4461,32.2672 C17.4461,28.1952 21.6621,24.8822 26.8451,24.8822 C32.0291,24.8822 36.2441,28.1952 36.2441,32.2672 C36.2441,36.3402 32.0291,39.6532 26.8451,39.6532 M21.3991,14.9122 C22.5851,14.9122 23.5481,15.8812 23.5481,17.0762 C23.5481,18.2712 22.5851,19.2402 21.3991,19.2402 C20.2151,19.2402 19.2521,18.2712 19.2521,17.0762 C19.2521,15.8812 20.2151,14.9122 21.3991,14.9122 M32.2751,14.8962 C33.4691,14.8962 34.4391,15.8722 34.4391,17.0762 C34.4391,18.2802 33.4691,19.2572 32.2751,19.2572 C31.0791,19.2572 30.1101,18.2802 30.1101,17.0762 C30.1101,15.8722 31.0791,14.8962 32.2751,14.8962 M53.5091,2.6532 L53.3401,1.3472 L52.0371,1.1482 C51.6321,1.0862 42.4521,-0.2528 35.8201,4.1742 C32.9491,2.7712 29.9291,2.0582 26.8451,2.0582 C23.7611,2.0582 20.7421,2.7712 17.8701,4.1742 C11.2381,-0.2528 2.0581,1.0862 1.6521,1.1482 L0.3501,1.3472 L0.1811,2.6532 C0.1191,3.1302 -1.2589,14.3672 4.6781,20.5802 C4.1251,22.6402 3.8361,24.7502 3.8361,26.8412 C3.8361,32.9032 6.2101,38.0542 10.7021,41.7392 C14.8391,45.1322 20.5721,47.0002 26.8451,47.0002 C33.1181,47.0002 38.8511,45.1322 42.9881,41.7392 C47.4801,38.0542 49.8551,32.9032 49.8551,26.8412 C49.8551,24.7502 49.5651,22.6402 49.0121,20.5802 C54.9491,14.3672 53.5711,3.1302 53.5091,2.6532" id="Fill-1" fill="#82674F" mask="url(#mask-2)"></path>
            </g>
            <path d="M24.2255,31.0582 C23.5145,31.0582 22.9365,31.6392 22.9365,32.3572 C22.9365,33.0752 23.5155,33.6572 24.2255,33.6572 C24.9375,33.6572 25.5155,33.0752 25.5155,32.3572 C25.5155,31.6392 24.9375,31.0582 24.2255,31.0582" id="Fill-4" fill="#82674F"></path>
            <path d="M29.4555,31.0484 C28.7375,31.0484 28.1555,31.6344 28.1555,32.3574 C28.1555,33.0794 28.7375,33.6664 29.4555,33.6664 C30.1725,33.6664 30.7545,33.0794 30.7545,32.3574 C30.7545,31.6344 30.1725,31.0484 29.4555,31.0484" id="Fill-6" fill="#82674F"></path>
        </g>
    </g>
</svg>