<?xml version="1.0" encoding="UTF-8"?>
<svg width="71px" height="71px" viewBox="0 0 71 71" version="1.1" xmlns="http://www.w3.org/2000/svg" xmlns:xlink="http://www.w3.org/1999/xlink">
    <!-- Generator: Sketch 46.2 (44496) - http://www.bohemiancoding.com/sketch -->
    <title>v</title>
    <desc>Created with Sketch.</desc>
    <defs></defs>
    <g id="Page-1" stroke="none" stroke-width="1" fill="none" fill-rule="evenodd">
        <g id="Group-32" transform="translate(5.000000, 6.000000)">
            <g id="Group">
                <path d="M44.7586058,32.1382401 C40.0515382,26.9814703 33.2732163,23.7458804 25.7387687,23.7458804 C11.5236393,23.7458804 0,35.2632227 0,49.4705842 L33.9554294,49.4705842 C33.7606428,48.5115179 33.6583898,47.5188683 33.6583898,46.5023491 C33.6583898,39.6001912 38.3726621,33.7985089 44.7586058,32.1382401 L44.7586058,32.1382401 Z M25.7387687,23.7458804 C32.2995976,23.7458804 37.6182004,18.430184 37.6182004,11.8729402 C37.6182004,5.31569639 32.2995976,0 25.7387687,0 C19.1779397,0 13.859337,5.31569639 13.859337,11.8729402 C13.859337,18.430184 19.1779397,23.7458804 25.7387687,23.7458804 L25.7387687,23.7458804 Z M48.5076794,59.364701 C55.6152442,59.364701 61.3770637,53.60603 61.3770637,46.5023491 C61.3770637,39.3986683 55.6152442,33.6399972 48.5076794,33.6399972 C41.4001147,33.6399972 35.6382951,39.3986683 35.6382951,46.5023491 C35.6382951,53.60603 41.4001147,59.364701 48.5076794,59.364701 L48.5076794,59.364701 Z M47.673612,53.6690527 C45.8173227,53.3611112 44.3687278,52.0459488 44.0992112,50.3981576 L47.108451,50.3981576 C47.3123003,51.0466386 47.8623372,51.5112458 48.5088846,51.5112458 C49.3289883,51.5112458 49.9938135,50.763726 49.9938135,49.8416135 C49.9938135,48.1719813 47.3970108,47.0588932 46.2130232,46.5023491 C45.0290357,45.945805 44.0992112,44.8312447 44.0540977,43.1630847 C44.0026946,41.2623562 45.6016966,39.6769225 47.673612,39.335377 L47.673612,37.597644 L49.3441571,37.597644 L49.3441571,39.3356455 C51.2004464,39.643587 52.6490415,40.9587495 52.9185579,42.6065406 L49.9093183,42.6065406 C49.9093183,42.6065406 49.6225813,41.4934525 48.5088846,41.4934525 C47.3951879,41.4934525 47.0239556,42.2409722 47.0239556,43.1630847 C47.0239556,44.8376434 49.6232089,45.945805 50.8047459,46.5023491 C51.9862831,47.0588932 52.9636738,48.1702987 52.9636715,49.8416135 C52.9636689,51.7435394 51.4052144,53.3271419 49.3441571,53.6690527 L49.3441571,55.4070543 L47.673612,55.4070543 L47.673612,53.6690527 L47.673612,53.6690527 Z" id="Shape" fill="#FFFFFF" fill-rule="nonzero"></path>
                <polygon id="Path" fill="#BCA266" points="21.7789581 27.7035271 25.7387687 49.2727048 29.6985792 27.7035271 25.7387687 23.9437598"></polygon>
            </g>
        </g>
    </g>
</svg>