<?xml version="1.0" encoding="UTF-8"?>
<svg width="80px" height="76px" viewBox="0 0 80 76" version="1.1" xmlns="http://www.w3.org/2000/svg" xmlns:xlink="http://www.w3.org/1999/xlink">
    <!-- Generator: Sketch 46.1 (44463) - http://www.bohemiancoding.com/sketch -->
    <title>Artboard</title>
    <desc>Created with Sketch.</desc>
    <defs></defs>
    <g id="Page-1" stroke="none" stroke-width="1" fill="none" fill-rule="evenodd">
        <g id="Artboard" fill-rule="nonzero" fill="#7B6851">
            <path d="M60.5198517,53.2392311 C59.0932373,56.2692193 56.0459315,58.2075995 52.6982545,58.2075995 C35.574104,58.2075995 20.4516328,47.0538514 15.3859274,30.6994398 C14.3582156,27.3768434 15.4241456,23.7502928 18.0940465,21.5187071 L16.9433198,19.5874928 C16.9224192,19.5534547 16.9015186,19.5152365 16.8919641,19.4752268 C16.7892526,19.1712725 16.9570545,18.8434319 17.2568286,18.7413176 L22.4180796,17.0280665 C22.4789898,17.0065688 22.539303,17 22.6014076,17 C22.9220823,17 23.1812496,17.2603616 23.1812496,17.5804392 L23.1812496,19.5086677 C27.1386267,19.2936903 30.734125,21.7993722 31.9051551,25.5877531 C34.7279288,34.7004095 43.1544488,40.9114671 52.6988516,40.9114671 C56.7750635,40.9114671 60.3018884,43.7640988 61.1546324,47.7531253 L63.2596202,46.9212819 C63.3354595,46.8908268 63.4148817,46.8794808 63.4954983,46.884258 C63.8173673,46.891424 64.0681744,47.1655202 64.0562312,47.4838063 L63.831102,53.4679433 C63.831102,53.5133274 63.8215474,53.5587116 63.8102014,53.6076787 C63.7182388,53.915813 63.3927868,54.0919751 63.0858467,53.9982211 L60.5198517,53.2392311 Z M49.8432341,43.6679561 C44.4049011,43.0337726 39.3242667,40.6075129 35.4134681,36.7737478 C34.5410178,35.9138379 33.1370955,35.9323499 32.2807685,36.8018143 C31.4232472,37.6760561 31.4375791,39.0823671 32.312418,39.9369026 C36.9254763,44.4633728 42.9131963,47.3231704 49.3314683,48.0708143 C50.5526598,48.1992036 51.6430733,47.3267533 51.7798229,46.1055618 C51.9088094,44.9046738 51.0494966,43.8148574 49.8432341,43.6679561 Z" id="Shape-Copy-4"></path>
        </g>
    </g>
</svg>