<?xml version="1.0" encoding="UTF-8"?>
<svg width="133px" height="160px" viewBox="0 0 133 160" version="1.1" xmlns="http://www.w3.org/2000/svg" xmlns:xlink="http://www.w3.org/1999/xlink">
    <!-- Generator: Sketch 46.1 (44463) - http://www.bohemiancoding.com/sketch -->
    <title>Slice</title>
    <desc>Created with Sketch.</desc>
    <defs></defs>
    <g id="Page-1" stroke="none" stroke-width="1" fill="none" fill-rule="evenodd">
        <path d="M114.822252,41.3639922 C114.822252,39.1738862 113.946209,37.8598226 111.318082,36.5457589 C113.946209,33.0415893 114.38423,30.4134621 109.565997,30.4134621 C110.004018,28.223356 110.44204,25.1572076 106.499849,27.7853348 C105.623806,23.843144 104.747764,23.4051228 103.4337,26.4712712 C102.557658,22.0910591 100.805573,22.0910591 99.4915095,25.1572076 C95.5493186,21.2150167 95.9873398,28.223356 96.8633822,30.4134621 C87.2269157,34.3556529 82.4086824,40.925971 81.0946188,53.1905648 C79.342534,65.0171374 61.8216857,60.6369253 50.8711556,59.7608829 C39.4826042,58.8848405 29.8461377,17.2728259 27.6560317,43.9921194 C22.8377984,40.0499286 21.0857136,41.8020134 22.8377984,49.2483739 C13.2013318,47.4962891 21.0857136,58.0087981 20.6476924,58.0087981 C20.2096711,58.4468193 18.0195651,56.2567132 18.0195651,57.1327556 C17.5815439,65.0171374 24.5898832,72.4634979 29.8461377,74.2155827 C28.0940529,74.6536039 26.341968,74.6536039 24.151862,73.7775615 C23.7138408,79.4718372 28.5320741,83.8520492 32.9122861,86.4801765 C30.2841589,100.934876 41.6727103,107.943216 52.1852192,113.637491 C51.747198,114.951555 51.747198,117.579682 52.1852192,118.017703 C51.747198,121.959894 50.4331344,125.026043 48.6810496,128.968233 C47.3669859,128.530212 45.1768799,129.406255 43.8628163,131.158339 C46.4909435,130.282297 47.3669859,130.720318 48.6810496,131.158339 C48.2430284,133.786467 50.8711556,132.910424 53.0612616,136.414594 C53.0612616,138.166679 53.0612616,138.6047 54.8133464,139.042721 C54.8133464,139.480742 54.8133464,140.356785 54.8133464,140.794806 C57.0034525,138.6047 55.2513677,137.290636 53.4992828,133.348446 C54.8133464,134.224488 56.1274101,134.662509 57.8794949,135.538552 C59.1935585,136.852615 59.1935585,137.290636 61.3836645,137.290636 C62.259707,137.290636 62.259707,138.166679 62.6977282,139.042721 C62.6977282,134.224488 60.5076221,135.10053 54.8133464,132.472403 C55.2513677,132.034382 55.6893889,132.034382 56.5654313,132.034382 C58.3175161,132.910424 58.3175161,133.348446 59.6315797,132.472403 C60.0696009,132.034382 60.0696009,132.472403 60.9456433,132.910424 C56.1274101,125.902085 47.8050071,138.6047 56.1274101,120.207809 C60.5076221,120.645831 59.6315797,115.389576 60.9456433,115.389576 C62.259707,115.389576 63.5737706,115.389576 64.8878342,115.827597 C65.7638766,118.893746 65.7638766,121.959894 69.2680463,122.835937 C69.7060675,127.65417 71.0201311,131.596361 71.0201311,135.976573 C69.7060675,136.414594 67.9539826,137.728658 67.5159614,139.918764 C69.2680463,138.166679 70.5821099,138.166679 71.8961735,138.166679 C72.3341947,140.794806 74.5243007,139.042721 77.5904492,141.670848 C78.0284704,142.984912 78.4664916,142.984912 79.7805552,142.984912 C80.2185764,143.422933 80.2185764,144.298976 80.6565976,144.736997 C81.53264,142.10887 79.7805552,141.232827 77.152428,138.6047 C78.4664916,138.6047 79.7805552,138.6047 81.53264,138.6047 C83.2847249,139.480742 83.7227461,139.918764 85.0368097,139.042721 C85.9128521,139.042721 86.7888945,139.918764 87.2269157,140.356785 C85.9128521,135.976573 83.7227461,137.290636 77.5904492,136.852615 C78.0284704,136.852615 78.4664916,136.414594 78.9045128,136.414594 C81.0946188,136.414594 81.53264,136.852615 81.9706612,135.538552 C82.4086824,135.10053 82.8467036,135.10053 83.7227461,135.538552 C74.5243007,129.844276 74.9623219,145.175018 74.0862795,123.273958 C80.6565976,123.711979 76.7144068,114.513534 86.7888945,107.943216 C101.243594,98.7447702 112.194124,95.2406006 107.375891,72.9015191 C106.061828,64.1410949 104.309743,55.3806708 102.557658,46.6202467 C107.813912,50.5624375 111.318082,45.7442043 109.565997,41.3639922 C109.565997,41.3639922 114.822252,41.3639922 114.822252,41.3639922 Z M105.623806,34.3556529 C105.185785,34.3556529 104.747764,34.7936741 104.747764,35.6697165 C104.747764,36.1077377 105.185785,36.5457589 105.623806,36.5457589 C106.499849,36.5457589 106.93787,36.1077377 106.93787,35.6697165 C106.93787,34.7936741 106.499849,34.3556529 105.623806,34.3556529 Z" id="Shape-Copy-3" fill="#BCA266" transform="translate(66.411126, 83.868498) rotate(-6.000000) translate(-66.411126, -83.868498) "></path>
    </g>
</svg>