<?xml version="1.0" encoding="UTF-8"?>
<svg width="80px" height="76px" viewBox="0 0 80 76" version="1.1" xmlns="http://www.w3.org/2000/svg" xmlns:xlink="http://www.w3.org/1999/xlink">
    <!-- Generator: Sketch 48.2 (47327) - http://www.bohemiancoding.com/sketch -->
    <title>Slice</title>
    <desc>Created with Sketch.</desc>
    <defs>
        <polygon id="path-1" points="0.17401622 0.6 49.4039 0.6 49.4039 22.1997 0.17401622 22.1997"></polygon>
        <polygon id="path-3" points="0.7036 0.5993 54.9046 0.5993 54.9046 14 0.7036 14"></polygon>
        <polygon id="path-5" points="0 0.8997 58.9317834 0.8997 58.9317834 13.2081327 0 13.2081327"></polygon>
    </defs>
    <g id="Page-1" stroke="none" stroke-width="1" fill="none" fill-rule="evenodd">
        <g transform="translate(11.000000, 13.000000)">
            <g id="Group-3" transform="translate(6.000000, 0.400000)">
                <mask id="mask-2" fill="white">
                    <use xlink:href="#path-1"></use>
                </mask>
                <g id="Clip-2"></g>
                <path d="M9.1039,10.0997 C10.0039,9.6997 11.0039,9.4997 11.9039,9.4997 C12.6039,9.4997 13.1039,10.0997 13.1039,10.7997 C13.1039,11.4997 12.5039,11.9997 11.8039,11.9997 C11.2039,11.9997 10.5039,12.0997 10.0039,12.3997 C9.9039,12.3997 8.9039,12.5997 8.4039,11.7997 C8.1039,11.0997 8.4039,10.2997 9.1039,10.0997 M17.6039,6.4997 C17.6039,5.8997 18.2039,5.2997 18.9039,5.3997 L20.7039,5.4997 C21.4039,5.4997 21.9039,6.0997 21.9039,6.7997 C21.9039,7.3997 21.2039,7.9997 20.6039,7.9997 L18.8039,7.7997 C18.1039,7.6997 17.6039,7.0997 17.6039,6.4997 M22.2039,12.7997 C22.6039,12.1997 23.4039,12.1997 23.9039,12.5997 C24.3039,12.8997 24.7039,13.0997 25.3039,13.1997 C26.0039,13.2997 26.5039,13.8997 26.4039,14.5997 C26.4039,15.1997 25.8039,15.7997 25.0039,15.6997 C24.0039,15.5997 23.1039,15.1997 22.4039,14.5997 C21.9039,14.0997 21.8039,13.2997 22.2039,12.7997 M32.3039,12.5997 C32.6039,11.9997 33.3039,11.6997 33.9039,11.9997 C34.5039,12.2997 35.2039,12.5997 35.9039,12.6997 C36.5039,12.8997 36.9039,13.5997 36.7039,14.1997 C36.6039,14.7997 36.0039,15.1997 35.2039,14.9997 C34.4039,14.7997 33.6039,14.4997 32.9039,14.0997 C32.3039,13.9997 32.0039,13.1997 32.3039,12.5997 M34.0039,5.2997 C34.1039,4.6997 34.8039,4.1997 35.5039,4.2997 C36.7039,4.4997 37.8039,4.9997 38.8039,5.7997 C39.3039,6.2997 39.4039,6.9997 38.9039,7.4997 C38.7039,7.7997 38.0039,8.1997 37.2039,7.5997 C36.6039,7.0997 35.9039,6.7997 35.1039,6.5997 C34.3039,6.6997 33.9039,5.9997 34.0039,5.2997 M24.8039,22.1997 C41.6039,22.1997 49.4039,19.4997 49.4039,13.6997 C49.4039,6.5997 38.1039,0.5997 24.8039,0.5997 C11.5039,0.5997 0.2039,6.5997 0.2039,13.6997 C0.2039,14.4997 -1.6961,22.1997 24.8039,22.1997" id="Fill-1" fill="#82674F" mask="url(#mask-2)"></path>
            </g>
            <g id="Group-6" transform="translate(3.000000, 35.400000)">
                <mask id="mask-4" fill="white">
                    <use xlink:href="#path-3"></use>
                </mask>
                <g id="Clip-5"></g>
                <path d="M51.8036,0.7003 C51.8036,0.7003 43.9046,6.0993 27.9046,5.8993 C12.2036,5.7003 3.9046,0.5993 3.9046,0.5993 C1.8036,1.8993 0.7036,3.3993 0.7036,4.8003 C0.7036,9.0993 11.8036,14.0003 27.8036,14.0003 C43.8036,14.0003 54.9046,9.0993 54.9046,4.8003 C54.9046,3.0993 53.3036,1.7003 51.8036,0.7003" id="Fill-4" fill="#82674F" mask="url(#mask-4)"></path>
            </g>
            <path d="M21.0038,30.2996 C19.0038,31.9006 16.1038,32.9996 14.2038,30.1006 C14.1038,29.9006 13.9038,29.6006 13.7038,29.4996 C13.6038,29.4996 13.4038,29.6996 13.2038,29.9006 C12.0038,31.1996 10.5038,31.2996 8.5038,30.1006 C8.1038,31.1006 7.4038,31.9006 6.6038,32.4996 C6.6038,32.4996 13.0038,39.6006 33.9038,38.9006 C33.9038,38.9006 52.0038,37.9996 55.2038,31.9006 C54.7038,31.7996 52.7038,31.1006 51.7038,31.2996 C49.6048,32.1006 48.2038,31.2996 47.9038,31.1006 C47.8038,30.9996 47.0038,30.4996 45.9038,31.1006 C44.5038,32.1006 39.7038,30.9996 39.7038,30.9996 L36.1048,38.1996 C35.9038,38.4996 35.6048,38.7996 35.3038,38.7996 C34.8038,38.9006 34.5038,38.7996 34.2038,38.6006 C33.7038,38.2996 23.4038,29.6006 22.3038,29.6006 C22.3038,29.4996 22.0038,29.4996 21.0038,30.2996" id="Fill-7" fill="#82674F"></path>
            <g id="Group-11" transform="translate(0.000000, 18.400000)">
                <mask id="mask-6" fill="white">
                    <use xlink:href="#path-5"></use>
                </mask>
                <g id="Clip-10"></g>
                <path d="M55.704,1.0997 C51.304,5.8997 40.504,6.5997 30.804,6.5997 C20.904,6.5997 10.004,5.8997 5.604,0.8997 C3.704,2.0997 3.304,3.6997 3.504,3.8997 C4.004,4.3997 3.904,4.9997 3.604,5.4997 C2.804,6.6997 0.304,8.8997 0.004,10.4997 C-0.096,10.7997 1.704,13.0997 1.804,13.2007 C2.804,13.2997 5.504,12.3997 6.104,11.0997 C6.304,10.7007 7.304,8.1997 10.404,9.7007 C10.904,9.8997 11.104,9.8997 11.104,9.8997 C11.204,9.8997 12.304,8.3997 13.804,8.3997 C15.404,8.2997 16.404,10.4997 16.704,10.7007 C17.604,11.2997 19.704,9.7007 20.404,9.0997 C20.804,8.8997 22.304,7.6997 24.304,8.9997 C24.504,9.0997 25.404,9.7007 26.504,8.9997 C26.504,8.9997 28.004,8.0997 31.404,8.3997 C33.204,8.4997 36.904,8.9997 41.804,10.2007 C42.804,10.3997 43.804,10.5997 44.604,10.3997 C45.204,10.2997 46.704,9.7007 47.804,9.7997 C48.304,9.7997 49.304,10.2007 50.004,10.7007 C51.804,9.7007 55.004,10.7997 55.004,10.7997 C56.804,11.3997 58.204,11.5997 58.904,9.2997 C59.204,5.8997 57.004,2.5997 55.704,1.0997" id="Fill-9" fill="#82674F" mask="url(#mask-6)"></path>
            </g>
            <path d="M37.3036,30.4001 C37.3036,30.4001 30.1036,28.4001 27.4046,29.7991 L34.7036,35.6001 L37.3036,30.4001 Z" id="Fill-12" fill="#82674F"></path>
        </g>
    </g>
</svg>