<?xml version="1.0" encoding="UTF-8"?>
<svg width="80px" height="76px" viewBox="0 0 80 76" version="1.1" xmlns="http://www.w3.org/2000/svg" xmlns:xlink="http://www.w3.org/1999/xlink">
    <!-- Generator: Sketch 46.1 (44463) - http://www.bohemiancoding.com/sketch -->
    <title>Artboard</title>
    <desc>Created with Sketch.</desc>
    <defs></defs>
    <g id="Page-1" stroke="none" stroke-width="1" fill="none" fill-rule="evenodd">
        <g id="Artboard" fill-rule="nonzero" fill="#7B6851">
            <path d="M54.2432121,27.0330444 C49.2194343,15.1368222 40.5975454,15 40.2330343,15 C39.8690454,15 31.2476787,15.1368222 26.2233787,27.0330444 C22.722401,35.3233222 21.2142232,47.6874556 26.1774232,55.2408778 C29.1248454,59.7262444 33.8535676,62 40.2330343,62 C46.6130232,62 51.3422676,59.7262444 54.2891676,55.2408778 C59.2523676,47.6869333 57.7447121,35.3233222 54.2432121,27.0330444 Z M29.1911676,45.6878667 C28.8214343,44.3259111 28.6464898,42.7911 28.6720787,41.1273 L30.7014343,41.1581111 C30.679501,42.6302556 30.829901,43.9734111 31.149501,45.1494556 L29.1911676,45.6878667 Z M30.8915232,38.6331667 L28.8788787,38.3668333 C29.7755343,31.4975222 31.379801,28.2456444 34.0279898,24.6480556 L35.6583676,25.8648333 C33.1579676,29.2618889 31.7349121,32.1685778 30.8915232,38.6331667 Z" id="Shape-Copy-3"></path>
        </g>
    </g>
</svg>