<?xml version="1.0" encoding="UTF-8"?>
<svg width="38px" height="38px" viewBox="0 0 38 38" version="1.1" xmlns="http://www.w3.org/2000/svg" xmlns:xlink="http://www.w3.org/1999/xlink">
    <!-- Generator: Sketch 47.1 (45422) - http://www.bohemiancoding.com/sketch -->
    <title>Slice 6</title>
    <desc>Created with Sketch.</desc>
    <defs></defs>
    <g id="Page-1" stroke="none" stroke-width="1" fill="none" fill-rule="evenodd">
        <g id="Group-6" transform="translate(4.000000, 4.000000)">
            <circle id="Oval-4-Copy-2" fill="#00CEFF" cx="15" cy="15" r="15"></circle>
            <g id="twitter-(1)-copy" transform="translate(7.297297, 8.918919)" fill-rule="nonzero" fill="#FFFFFF">
                <path d="M15.8181818,1.43084261 C15.2506143,1.68124006 14.6388206,1.84578696 14.004914,1.92448331 C14.6535627,1.54531002 15.1547912,0.944356121 15.3906634,0.221780604 C14.7788698,0.579491256 14.1007371,0.829888712 13.3857494,0.972972973 C12.8034398,0.357710652 11.985258,0 11.0565111,0 C9.32432432,0 7.90909091,1.3736089 7.90909091,3.06915739 C7.90909091,3.31240064 7.93857494,3.54848967 7.99017199,3.77027027 C5.36609337,3.64149444 3.02948403,2.41812401 1.47420147,0.56518283 C1.2014742,1.01589825 1.04668305,1.54531002 1.04668305,2.10333863 C1.04668305,3.16931638 1.5995086,4.1136725 2.45454545,4.65023847 C1.93120393,4.65023847 1.44471744,4.50715421 1.01719902,4.29252782 C1.01719902,4.29252782 1.01719902,4.29252782 1.01719902,4.31399046 C1.01719902,5.80206677 2.10810811,7.04689984 3.55282555,7.32591415 C3.28746929,7.39745628 3.00737101,7.43322734 2.71990172,7.43322734 C2.52088452,7.43322734 2.32186732,7.41176471 2.13022113,7.37599364 C2.52825553,8.58505564 3.68550369,9.48648649 5.07862408,9.50794913 C4.002457,10.3378378 2.63882064,10.8243243 1.14987715,10.8243243 C0.899262899,10.8243243 0.648648649,10.8100159 0.398034398,10.781399 C1.7985258,11.654213 3.46437346,12.1621622 5.24815725,12.1621622 C11.0565111,12.1621622 14.2481572,7.48330684 14.2481572,3.42686804 C14.2481572,3.290938 14.2481572,3.16216216 14.2407862,3.02623211 C14.8599509,2.59697933 15.3906634,2.05325914 15.8181818,1.43084261 Z" id="Shape"></path>
            </g>
        </g>
    </g>
</svg>