<?xml version="1.0" encoding="UTF-8"?>
<svg width="33px" height="33px" viewBox="0 0 33 33" version="1.1" xmlns="http://www.w3.org/2000/svg" xmlns:xlink="http://www.w3.org/1999/xlink">
    <!-- Generator: Sketch 47.1 (45422) - http://www.bohemiancoding.com/sketch -->
    <title> </title>
    <desc>Created with Sketch.</desc>
    <defs></defs>
    <g id="Page-1" stroke="none" stroke-width="1" fill="none" fill-rule="evenodd">
        <path d="M28.173252,12.1513486 L19.1920502,12.1513486 C18.8026195,12.1513486 18.4547375,12.3736818 18.4547375,12.8932725 L18.4547375,12.9521664 C18.4547375,13.4714086 18.8029716,13.9021357 19.1920502,13.9021357 L28.173252,13.9021357 C28.5626827,13.9021357 29,13.4717571 29,12.9521664 L29,12.8932725 C29,12.3740303 28.5626827,12.1513486 28.173252,12.1513486 Z M27.6313588,14.6022414 L19.7335913,14.6022414 C19.0448693,14.6022414 18.4543853,15.3556653 18.4543853,16.0418317 L18.4543853,18.2857246 C18.069532,17.0395433 17.3681342,15.919862 16.4301203,15.0395897 L16.4332892,15.0399382 C16.4332892,15.0399382 16.4170923,15.0249533 16.3938532,15.0033473 C16.3811774,14.9918473 16.3695578,14.9793018 16.356882,14.9678018 C16.042098,14.6618323 14.8505668,13.4107722 14.9072561,12.0422729 C14.9723959,10.4664251 15.1079572,8.94494093 15.1079572,8.94494093 L15.5825979,9.01254696 L15.934001,6.84532067 C15.934001,6.84532067 16.2086448,5.77651813 15.6213297,5.3719274 C15.6213297,5.3719274 14.0143119,4.84954885 13.3963635,5.04295786 C12.7784151,5.23566989 12.3277177,4.72409436 12.0337081,6.20794218 C11.7400506,7.69213847 11.5650532,8.06606254 11.5650532,8.06606254 L11.9830046,8.24448671 C11.9830046,8.24448671 11.2048474,11.3149853 11.0298501,11.5090913 C10.2819741,12.3377879 10.730911,12.5231817 8.8168555,13.5400601 C8.2070056,13.7724993 7.62990168,14.0802113 7.10420543,14.4611051 C5.51937032,15.6093622 4.37995098,17.3828007 4.07784289,19.4841634 C3.49052786,23.5701464 6.29013327,27.3494629 10.330917,27.9258566 C13.9815659,28.4464927 17.3955986,26.174024 18.4540332,22.7177529 L18.4540332,26.1851755 C18.4540332,26.8709934 19.043813,27.427175 19.732535,27.427175 C19.732535,27.427175 21.3085674,27.8415233 23.9909211,27.8415233 C26.6732747,27.8415233 27.6919213,27.427175 27.6919213,27.427175 C28.3802911,27.427175 28.9996479,26.8709934 28.9996479,26.1851755 L28.9996479,16.0418317 C29,15.3556653 28.3200807,14.6022414 27.6313588,14.6022414 Z M5.99084204,21.8855714 C5.99084204,21.8855714 4.49016058,19.4228301 7.07638895,16.5788466 C7.07638895,16.5788466 9.56860466,20.837678 5.99084204,21.8855714 Z" id="Shape-Copy-2" fill="#BDA362" fill-rule="nonzero"></path>
    </g>
</svg>