<?xml version="1.0" encoding="UTF-8"?>
<svg width="82px" height="82px" viewBox="0 0 82 82" version="1.1" xmlns="http://www.w3.org/2000/svg" xmlns:xlink="http://www.w3.org/1999/xlink">
    <!-- Generator: Sketch 46.2 (44496) - http://www.bohemiancoding.com/sketch -->
    <title>Slice</title>
    <desc>Created with Sketch.</desc>
    <defs></defs>
    <g id="Page-1" stroke="none" stroke-width="1" fill="none" fill-rule="evenodd">
        <g id="Group-26" transform="translate(4.000000, 3.000000)">
            <rect id="Rectangle-40-Copy-4" fill="#b12f2f" x="0" y="0" width="75" height="76" rx="14"></rect>
            <path d="M50.1603389,47.3263117 C52.8897605,48.7454562 55.4708963,50.4331844 57.8654524,52.3644571 C58.5165019,52.9057436 58.8917311,53.7095521 58.8885984,54.55622 L58.8885984,58.5809175 L48.1091979,58.5809175 L50.1603389,47.3263117 Z M39.8658416,29.1472867 C39.8681223,29.6226245 40.0791073,30.0729621 40.4428766,30.3789411 C37.426778,32.2215737 38.1153407,36.2705163 38.3917356,37.4391333 C37.8777381,37.4391333 37.3443444,37.8319049 37.9068323,39.8297066 C38.3480943,41.3813972 38.7554131,41.8178101 39.0657512,41.8420553 C39.1887756,42.6130831 39.4499615,43.3555739 39.8367474,44.0338183 L39.8367474,45.9734315 L44.1281417,49.0913598 L42.5182627,51.1425008 L43.5995971,52.8833036 L42.7752615,58.5809175 L46.4362815,58.5809175 L45.5731536,52.8639075 L46.654488,51.1231046 L45.044609,49.0719636 L49.3360033,45.9734315 L49.3360033,44.0338183 C49.7273862,43.3628493 49.9950989,42.62705 50.1263956,41.8614514 C50.4367338,41.8372063 50.8440525,41.4007933 51.2853146,39.8491027 C51.8671985,37.8028108 51.2853146,37.4245862 50.766468,37.4633784 C52.0708579,31.4263322 48.6959309,31.4263322 48.6959309,31.4263322 C48.414687,30.1704327 46.6253938,28.8611937 44.9573264,29.2054751 C43.289259,29.5497564 39.8658416,29.1472867 39.8658416,29.1472867 Z M39.0124118,47.3263117 C38.2317175,47.7336305 36.9564218,48.4270422 35.5017119,49.3677547 C34.1536807,48.5676642 33.1256857,48.0488177 32.7668572,47.8742525 C32.6836015,47.8334591 32.6308987,47.7487583 32.6310843,47.656046 L32.6310843,45.0618133 C33.0047412,44.436697 33.2595602,43.7478638 33.3826844,43.0300684 C33.6687774,43.0300684 34.0470019,42.6033535 34.4543207,41.1631907 C35.0119595,39.1944832 34.4203775,38.9035413 33.9209271,38.9520316 C34.0153951,38.6884325 34.0883689,38.4176185 34.1391336,38.1422431 C34.9731673,33.0459093 32.4613681,32.8810422 32.4613681,32.8810422 C32.0934201,32.284191 31.5705863,31.7982237 30.9484698,31.4748226 C30.0085873,30.9310629 28.9195976,30.7017125 27.8402396,30.8202031 C27.4189886,30.8411905 27.0027647,30.9211708 26.6037362,31.0578057 L26.6037362,31.0578057 C26.1189511,31.2252874 25.6602333,31.4603598 25.2411579,31.7560665 C24.7378329,32.0733233 24.2753356,32.4511379 23.8640325,32.8810422 C23.1256089,33.6093849 22.6021521,34.5271122 22.3511342,35.5334633 C22.1540587,36.3869791 22.1540587,37.2741801 22.3511342,38.127696 L22.3511342,38.127696 C22.4018156,38.4030902 22.4747913,38.6739109 22.5693406,38.9374845 C22.0844373,38.8889942 21.4783082,39.1799361 22.035947,41.1486436 C22.4432658,42.6033535 22.8214904,42.9912761 23.1075833,43.0155213 C23.2304134,43.7463051 23.4868441,44.4482018 23.8640325,45.0860584 L23.8640325,47.6511969 C23.864218,47.7439093 23.8115153,47.8286101 23.7282595,47.8694034 C20.9708006,49.2421623 18.3695819,50.908568 15.9698066,52.8396623 C15.3583486,53.3352091 15.0022231,54.0795114 15,54.8665582 L15,58.5809175 L41.0780999,58.5809175 L39.0124118,47.3263117 Z M28.7906501,23.9830665 L28.7906501,14.8474881 C28.7959928,13.8236909 29.6288711,12.9973195 30.6526788,13.0000065 L43.5511068,13.0000065 C44.5767988,13.0000065 45.4082865,13.8314942 45.4082865,14.8571862 L45.4082865,23.9830665 C45.4082865,25.0087585 44.5767988,25.8402461 43.5511068,25.8402461 L37.9795678,25.8402461 L32.9850637,29.2345693 C32.8704956,29.3116958 32.7227104,29.3192802 32.6008486,29.2542872 C32.4789869,29.1892943 32.4029552,29.0623409 32.4031797,28.9242312 L32.4031797,25.8402461 L30.6526788,25.8402461 C30.1592845,25.8415344 29.6856569,25.6464366 29.3363187,25.2980082 C28.9869805,24.9495797 28.7906484,24.4764624 28.7906501,23.9830665 Z M36.2727081,16.0403503 L36.393934,20.7924027 C36.3965695,20.9083388 36.4913253,21.0009411 36.6072914,21.0009111 L37.577098,21.0009111 C37.6930641,21.0009411 37.7878199,20.9083388 37.7904555,20.7924027 L37.9262284,16.0403503 C37.9275314,15.9752121 37.9025639,15.9122905 37.8569534,15.8657678 C37.8113429,15.8192451 37.748928,15.7930366 37.6837768,15.7930496 L36.5200088,15.7930496 C36.4540208,15.7917161 36.3903412,15.8173425 36.3436711,15.8640125 C36.297001,15.9106826 36.2713746,15.9743623 36.2727081,16.0403503 Z M36.2727081,22.6786766 C36.2713902,22.7755278 36.3092828,22.8687983 36.3777733,22.9372888 C36.4462639,23.0057794 36.5395343,23.0436719 36.6363856,23.042354 L37.5625509,23.042354 C37.7560673,23.0426295 37.9159077,22.8913139 37.9262284,22.6980727 L37.9262284,22.0725474 C37.9235754,21.8735901 37.7615259,21.7137013 37.5625509,21.713719 L36.6363856,21.713719 C36.540381,21.7124215 36.4478609,21.749653 36.3795151,21.8170875 C36.3111693,21.884522 36.2726994,21.9765341 36.2727081,22.0725474 L36.2727081,22.6786766 Z" id="Shape-Copy-3" fill="#FFFFFF" fill-rule="nonzero"></path>
        </g>
    </g>
</svg>