<?xml version="1.0" encoding="UTF-8"?>
<svg width="40px" height="40px" viewBox="0 0 40 40" version="1.1" xmlns="http://www.w3.org/2000/svg" xmlns:xlink="http://www.w3.org/1999/xlink">
    <!-- Generator: Sketch 46.1 (44463) - http://www.bohemiancoding.com/sketch -->
    <title>Slice 2</title>
    <desc>Created with Sketch.</desc>
    <defs></defs>
    <g id="Page-1" stroke="none" stroke-width="1" fill="none" fill-rule="evenodd">
        <g id="Group" transform="translate(8.000000, 8.000000)" stroke-width="1.2" stroke="#7B6852" fill="#7B6852" fill-rule="nonzero">
            <g id="Shape">
                <path d="M11.8749029,21.7706553 C17.3401761,21.7706553 21.7706553,17.3401761 21.7706553,11.8749029 C21.7706553,6.40962976 17.3401761,1.97915049 11.8749029,1.97915049 C6.40962976,1.97915049 1.97915049,6.40962976 1.97915049,11.8749029 C1.97915049,17.3401761 6.40962976,21.7706553 11.8749029,21.7706553 Z M11.3801153,11.8749029 L11.3801153,6.92408781 C11.3801153,6.38004581 10.9370674,5.93745146 10.39054,5.93745146 C9.84020242,5.93745146 9.4009648,6.37918359 9.4009648,6.92408781 L9.4009648,12.867417 C9.4009648,13.1394381 9.51172677,13.3860972 9.69080471,13.564751 C9.87126474,13.7442478 10.1193794,13.8540534 10.3934389,13.8540534 L15.3355174,13.8540534 C15.8841373,13.8540534 16.3279915,13.4110055 16.3279915,12.8644782 C16.3279915,12.3141405 15.8836457,11.8749029 15.3355174,11.8749029 L11.3801153,11.8749029 Z M11.8749029,23.7498058 C5.31657513,23.7498058 0,18.4332307 0,11.8749029 C0,5.31657513 5.31657513,0 11.8749029,0 C18.4332307,0 23.7498058,5.31657513 23.7498058,11.8749029 C23.7498058,18.4332307 18.4332307,23.7498058 11.8749029,23.7498058 Z"></path>
            </g>
        </g>
    </g>
</svg>