<?xml version="1.0" encoding="UTF-8"?>
<svg width="40px" height="40px" viewBox="0 0 40 40" version="1.1" xmlns="http://www.w3.org/2000/svg" xmlns:xlink="http://www.w3.org/1999/xlink">
    <!-- Generator: Sketch 46.1 (44463) - http://www.bohemiancoding.com/sketch -->
    <title>Slice 2 Copy</title>
    <desc>Created with Sketch.</desc>
    <defs></defs>
    <g id="Page-1" stroke="none" stroke-width="1" fill="none" fill-rule="evenodd">
        <g id="Group-2" transform="translate(3.000000, 7.000000)" fill-rule="nonzero" fill="#7B6852">
            <g id="Group" transform="translate(0.000000, 0.923469)">
                <path d="M33.3246253,0.0500229535 C33.205334,-0.017785939 33.092732,-0.0166743178 32.9756705,0.0544694382 C32.2866799,0.469104141 31.3412688,1.77192417 30.68015,5.61146376 L29.5976097,12.4390411 C29.4225749,13.6985079 30.0524773,14.0964683 30.7849479,14.4944287 C30.7849479,14.4944287 32.0469825,15.15362 31.9566779,16.799931 C31.9566779,16.799931 31.9823199,17.3023838 31.8318123,17.7648182 C31.5932298,18.4973766 31.2164032,18.7675005 31.2164032,19.9380376 L31.2164032,25.0114767 C31.2164032,25.3182842 31.4661344,25.5672873 31.773839,25.5672873 L32.8887105,25.5672873 C33.1964151,25.5672873 33.4461463,25.3182842 33.4461463,25.0114767 L33.4461463,0.382397689 C33.4461463,0.244556661 33.4439165,0.117831846 33.3246253,0.0500229535 Z" id="Shape"></path>
                <path d="M5.74047357,8.0058958 L5.07823988,0.429085779 C5.05705732,0.190087223 4.85749531,0.00666972713 4.61779793,0.00666972713 C4.49293232,0.00666972713 4.37252619,0.0578043018 4.28556621,0.145622376 C4.1997211,0.234552071 4.15178162,0.354607159 4.15512624,0.480220353 L4.313438,6.72753143 C4.31455287,6.81757275 4.27999185,6.9042792 4.2153293,6.96875323 C4.1528965,7.03211564 4.06482164,7.06657589 3.97228731,7.06546427 C3.79836735,7.06212941 3.65677866,6.92428838 3.64897456,6.74976386 L3.37806077,0.452429824 C3.36802693,0.202315056 3.15954595,0 2.90647011,0 L2.84626705,0 C2.59430608,0 2.38693997,0.202315056 2.37579126,0.452429824 L2.10264773,6.74976386 C2.09484363,6.92317676 1.95436981,7.06101779 1.78044985,7.06435265 C1.69014526,7.06546427 1.60207041,7.03100402 1.53852273,6.96652999 C1.47386018,6.90316758 1.43929916,6.81646113 1.4415289,6.72641981 L1.60095554,0.480220353 C1.60430015,0.35571878 1.55636067,0.234552071 1.47051556,0.145622376 C1.38244071,0.0578043018 1.26314946,0.00666972713 1.13828385,0.00666972713 C0.898586463,0.00666972713 0.697909586,0.188975602 0.677841898,0.427974157 L0.0144933301,8.02590498 C-0.0468246048,8.67509175 0.012263587,10.1157528 1.68234116,11.2940713 C1.90531547,11.4674842 1.86183548,11.8209797 1.85626112,12.0121786 L1.42703557,24.6835485 C1.4103125,25.2226848 1.83842317,25.5672873 2.38248049,25.5672873 L3.37137154,25.5672873 C3.91431399,25.5672873 4.34353953,25.2226848 4.32570159,24.6835485 L3.89759091,11.9321418 C3.89090168,11.740943 3.84853657,11.4285774 4.070396,11.2551645 C5.74158844,10.0757345 5.80067664,8.65508257 5.74047357,8.0058958 Z" id="Shape"></path>
                <path d="M17.2816238,2.22324238 C10.8164837,2.22324238 5.57547258,7.44897358 5.57547258,13.8952649 C5.57547258,20.3426677 10.8164837,25.5672873 17.2816238,25.5672873 C23.7467639,25.5672873 28.987775,20.3426677 28.987775,13.8952649 C28.987775,7.44897358 23.7467639,2.22324238 17.2816238,2.22324238 Z M17.2816238,22.2324238 C12.6705151,22.2324238 8.92008721,18.4929301 8.92008721,13.8952649 C8.92008721,9.29759962 12.6705151,5.55810594 17.2816238,5.55810594 C21.8927325,5.55810594 25.6431604,9.29759962 25.6431604,13.8952649 C25.6431604,18.4929301 21.8927325,22.2324238 17.2816238,22.2324238 Z" id="Shape"></path>
                <ellipse id="Oval" cx="17.2816238" cy="13.8952649" rx="6.13179348" ry="6.11391654"></ellipse>
            </g>
        </g>
    </g>
</svg>