<?xml version="1.0" encoding="UTF-8"?>
<svg width="82px" height="82px" viewBox="0 0 82 82" version="1.1" xmlns="http://www.w3.org/2000/svg" xmlns:xlink="http://www.w3.org/1999/xlink">
    <!-- Generator: Sketch 46.2 (44496) - http://www.bohemiancoding.com/sketch -->
    <title>Slice</title>
    <desc>Created with Sketch.</desc>
    <defs></defs>
    <g id="Page-1" stroke="none" stroke-width="1" fill="none" fill-rule="evenodd">
        <g id="Group-12-Copy" transform="translate(4.000000, 3.000000)">
            <rect id="Rectangle-40-Copy-2" fill="#b12f2f" x="0" y="0" width="75" height="76" rx="14"></rect>
            <g id="Group" transform="translate(17.000000, 21.000000)" fill-rule="nonzero" fill="#FFFFFF">
                <path d="M9.40328571,15.0822439 C13.1631429,12.7707805 16.8222857,11.5840976 20.7201429,10.655561 C19.7691429,10.0483902 19.0414286,10.5506341 18.3047143,10.7069268 C15.7517143,11.2486829 15.2301429,10.7051707 15.864,8.12985366 C16.7892857,4.36917073 21.1924286,1.4382439 24.9287143,0.543073171 C27.57,-0.0891219512 29.727,0.421902439 32.1197143,0.88902439 C33.9308571,1.24331707 34.944,2.81282927 36.4285714,3.66146341 C37.9242857,4.5162439 35.3164286,5.06195122 35.4171429,6.1397561 C38.3224286,4.92453659 38.925,5.06195122 40.1888571,8.47009756 C40.7892857,10.0931707 42.8207143,11.9673659 40.407,13.8305854 C39.9758571,14.1624878 40.4541429,14.2077073 40.5548571,14.2055122 C41.7655714,14.1866341 41.829,14.9465854 41.6417143,15.8601951 C41.3914286,17.0771707 40.3542857,16.5327805 39.6634286,16.7689756 C39.5177143,16.8181463 39.3861429,16.9151707 38.9074286,17.1741951 C41.64,16.938878 41.4895714,18.215561 40.9362857,20.0129268 C40.431,21.6588293 38.8834286,22.6180976 38.6318571,24.4773659 C38.4698571,25.6754634 37.2972857,25.937122 36.1491429,25.1868293 C34.9032857,24.3763902 33.3025714,24.174878 32.3417143,22.8121463 C32.2341429,25.8730244 32.0824286,26.4920488 31.1712857,27.4960976 C31.866,27.774439 33.0175714,27.5189268 33.0758571,28.5229756 C33.138,29.5871707 31.6868571,29.232439 31.2244286,29.9985366 C32.5174286,30.6706829 33.966,28.3245366 35.1887143,30.3431707 C34.4211429,31.3480976 33.0445714,31.2150732 32.0768571,31.9991707 C33.4324286,32.4144878 34.5012857,31.7366341 35.6001429,31.3033171 C36.3535714,31.0060976 37.0131429,31.2949756 37.2677143,31.8617561 C37.6885714,32.796878 36.6711429,32.8434146 36.1962857,33.0234146 C32.1218571,34.5534146 28.0084286,34.452878 23.8542857,33.3052683 C23.2041429,33.1279024 22.2655714,32.1681951 21.7774286,33.263561 C21.3402857,34.2469756 21.5451429,35.3726341 23.5512857,35.963122 C21.1452857,35.963122 19.4622857,35.963122 17.736,35.963122 C18.1178571,35.0157073 18.9072857,35.154439 19.6002857,35.0942927 C20.2062857,35.0394146 21.0454286,35.3102927 21.0394286,34.2961463 C21.0351429,33.5392683 21.468,32.5672683 20.4857143,32.0896098 C19.7044286,31.7107317 19.005,30.9744878 18.063,31.1746829 C17.5821429,31.2774146 17.8032857,31.86 17.7732857,32.2410732 C17.5191429,35.4516585 17.5217143,35.4516585 14.2637143,35.0262439 C14.244,34.4796585 14.7145714,34.4836098 15.0312857,34.3022927 C15.744,33.894878 17.1672857,34.8427317 17.1865714,33.102878 C17.2045714,31.6488293 17.4231429,30.3501951 15.7495714,29.3320976 C13.0152857,27.6686341 10.533,25.7083902 7.42842857,24.5629756 C3.19628571,23.0018049 2.26114286,19.3289268 4.60157143,15.4220488 C5.78485714,13.446 6.87514286,11.4427317 7.509,9.19712195 C8.03828571,7.31853659 7.722,6.15731707 5.48914286,6.35004878 C5.01257143,6.39043902 4.52657143,6.28946341 4.017,6.25082927 C3.86528571,4.95131707 5.46214286,4.8077561 5.70385714,3.3695122 C4.66671429,3.96965854 3.61371429,4.39287805 3.438,2.85936585 C3.30814286,1.69682927 3.93814286,1.03302439 5.08542857,0.859609756 C8.91642857,0.278341463 11.4891429,2.57970732 11.4321429,6.48307317 C11.3914286,9.32312195 10.1652857,11.8694634 9.40328571,15.0822439 Z" id="Shape"></path>
                <path d="M3.44142857,3.44546341 C3.44142857,3.44546341 1.37228571,7.01560976 0.0655714286,7.23907317 C0.0655714286,7.23907317 2.571,6.23502439 3.55114286,4.89643902 L3.44142857,3.44546341 Z" id="Shape"></path>
                <path d="M3.66,5.34204878 L3.55114286,5.78853659 C3.55114286,5.78853659 2.78828571,6.68107317 1.59,6.79258537 L3.66,5.34204878 Z" id="Shape"></path>
            </g>
        </g>
    </g>
</svg>