<?xml version="1.0" encoding="UTF-8"?>
<svg width="53px" height="53px" viewBox="0 0 53 53" version="1.1" xmlns="http://www.w3.org/2000/svg" xmlns:xlink="http://www.w3.org/1999/xlink">
    <!-- Generator: Sketch 46.2 (44496) - http://www.bohemiancoding.com/sketch -->
    <title>v</title>
    <desc>Created with Sketch.</desc>
    <defs></defs>
    <g id="Page-1" stroke="none" stroke-width="1" fill="none" fill-rule="evenodd">
        <g id="Group" transform="translate(4.000000, 5.000000)" fill-rule="nonzero" fill="#7B6852">
            <g id="Shape">
                <path d="M44.4208582,17.1151536 C43.7643491,16.3422583 42.59784,16.234455 41.8078036,16.8812751 L31.1960945,25.5932482 L4.04925818,25.5932482 C3.02554909,25.5932482 2.19471273,26.4118229 2.19471273,27.4204238 L2.19471273,35.8363945 C2.19471273,40.2636409 5.85187636,43.865004 10.34544,43.865004 L34.84584,43.865004 C39.3394036,43.865004 42.9947127,40.2636409 42.9947127,35.8363945 L42.9947127,27.4204238 C42.9947127,26.4118229 42.1657309,25.5932482 41.1401673,25.5932482 L36.9915491,25.5932482 L44.1834764,19.6878168 C44.9698036,19.0428238 45.0773673,17.889876 44.4208582,17.1151536"></path>
                <path d="M13.3229127,20.1119042 C13.8013855,20.1119042 14.2761491,19.9291867 14.6340764,19.5765418 L22.0522582,12.2678395 C22.7198945,11.6100563 22.7810945,10.5612575 22.1894945,9.83404165 L14.7713127,0.698163786 C14.4597491,0.316284092 14.0053855,0.0714425649 13.5102218,0.0221088244 C13.0187673,-0.0290520916 12.5161855,0.122603481 12.1341491,0.436877679 L1.00687636,9.57275554 C0.558076364,9.94184501 0.311421818,10.4973064 0.342949091,11.0728667 C0.376330909,11.648427 0.680476364,12.1764807 1.16636727,12.4962365 L12.29364,19.8049387 C12.6070582,20.0114096 12.96684,20.1119042 13.3229127,20.1119042"></path>
                <path d="M24.4501855,18.2847287 C25.4738945,18.2847287 26.3047309,17.466154 26.3047309,16.4575531 C26.3047309,15.4489522 25.4738945,14.6303775 24.4501855,14.6303775 C23.4264764,14.6303775 22.59564,15.4489522 22.59564,16.4575531 C22.59564,17.466154 23.4264764,18.2847287 24.4501855,18.2847287"></path>
                <path d="M20.7410945,20.1119042 C19.7173855,20.1119042 18.8865491,20.9304789 18.8865491,21.9390798 C18.8865491,22.9476807 19.7173855,23.7662554 20.7410945,23.7662554 C21.7648036,23.7662554 22.59564,22.9476807 22.59564,21.9390798 C22.59564,20.9304789 21.7648036,20.1119042 20.7410945,20.1119042"></path>
            </g>
        </g>
    </g>
</svg>