<?xml version="1.0" encoding="UTF-8"?>
<svg width="82px" height="82px" viewBox="0 0 82 82" version="1.1" xmlns="http://www.w3.org/2000/svg" xmlns:xlink="http://www.w3.org/1999/xlink">
    <!-- Generator: Sketch 46.2 (44496) - http://www.bohemiancoding.com/sketch -->
    <title>Slice</title>
    <desc>Created with Sketch.</desc>
    <defs></defs>
    <g id="Page-1" stroke="none" stroke-width="1" fill="none" fill-rule="evenodd">
        <g id="Group-3-Copy" transform="translate(4.000000, 3.000000)">
            <rect id="Rectangle-40-Copy" fill="#b12f2f" x="0" y="0" width="75" height="76" rx="14"></rect>
            <g id="Group" transform="translate(21.000000, 11.000000)" fill-rule="nonzero" fill="#FFFFFF">
                <path d="M30.9213258,28.0862222 C30.911697,21.0060247 29.7797273,17.0875679 28.2358333,14.7315679 C27.4641212,13.5622469 26.5618333,12.8120988 25.7276515,12.396679 C24.9247045,11.9920494 24.21875,11.901037 23.7953182,11.8961111 C23.7683106,11.8949383 23.7415379,11.8918889 23.7138258,11.8918889 L14.6409242,11.8918889 C14.6150909,11.8918889 14.5899621,11.8947037 14.5643636,11.8958765 C14.1907197,11.8998642 13.5970227,11.9690617 12.9051591,12.2662593 C11.821803,12.7220247 10.5836818,13.7463827 9.63207576,15.5483333 C8.67154545,17.3547407 7.92965909,19.9263086 7.60439394,23.7279506 L7.60439394,23.7274815 C7.49331061,25.0281605 7.43318939,26.474037 7.4327197,28.0855185 C7.43318939,29.458679 7.47687121,30.9528765 7.57245455,32.5793704 C7.63069697,33.576284 8.45900758,34.3461358 9.44607576,34.3461358 C9.48318182,34.3461358 9.52028788,34.344963 9.55786364,34.3428519 C10.5935455,34.2825679 11.3842803,33.3944938 11.3236894,32.3598148 C11.2320985,30.7999383 11.1905303,29.3784568 11.191,28.085284 C11.1905303,26.5702099 11.2475985,25.2305926 11.3478788,24.0495432 C11.3481136,24.0479012 11.3483485,24.0464938 11.3485833,24.0450864 C11.620303,20.8005432 12.2297348,18.7757531 12.8260152,17.5534198 L12.8260152,25.304716 L12.8260152,29.7471975 L12.8260152,32.1648889 C13.0956212,32.3785802 13.2771591,32.631679 13.348553,32.9126914 C13.4227652,33.2061358 13.4150152,33.6670617 12.9530682,34.1934321 C12.9124394,34.239642 12.868053,34.283037 12.8260152,34.3285432 L12.8260152,38.2718642 C13.999553,39.0682222 15.2945076,40.1066543 15.9642955,41.2210864 C17.3654015,43.5538642 18.1692879,49.7108025 17.1007273,53.0538642 C16.7315455,54.2107531 16.1610985,54.9648889 15.4067652,55.2946914 C15.2320379,55.3709259 15.066,55.4408272 14.8969091,55.5126049 C15.1608788,55.5914198 15.4398788,55.6350494 15.729447,55.6350494 C17.3329924,55.6350494 18.6333485,54.3371852 18.6333485,52.7350864 L18.6333485,31.5604074 L19.7218712,31.5604074 L19.7218712,52.7350864 C19.7218712,54.3371852 21.0222273,55.6350494 22.625303,55.6350494 C24.2288485,55.6350494 25.5292045,54.3371852 25.5292045,52.7350864 L25.5292045,29.7474321 L25.5292045,25.3051852 L25.5292045,17.5602222 C25.6682348,17.8452222 25.8084394,18.1719753 25.947,18.5533827 C26.6085682,20.3858272 27.1656288,23.3927531 27.1632803,28.0862222 C27.16375,29.3793951 27.121947,30.8004074 27.0310606,32.3609877 C26.9707045,33.3956667 27.7614394,34.2832716 28.7975909,34.3435556 C28.834697,34.3456667 28.8715682,34.3468395 28.9086742,34.3468395 C29.896447,34.3468395 30.7247576,33.5767531 30.7825303,32.5791358 C30.8771742,30.9528765 30.9208561,29.4596173 30.9213258,28.0862222 Z M18.2848333,13.8118272 L19.1774924,13.8118272 L20.0696818,13.8118272 L20.5158939,15.5710864 L20.4477879,15.6785185 C20.0800152,15.9843951 19.6298106,16.1378025 19.1770227,16.1382716 C18.7242348,16.1378025 18.2745,15.9846296 17.907197,15.6789877 L17.8386212,15.5710864 L18.2848333,13.8118272 Z M19.1772576,28.9414568 L16.946197,26.126642 L18.2312879,16.6686296 C18.5358864,16.7826296 18.8564545,16.8422099 19.1767879,16.8419753 L19.1772576,16.8419753 L19.1786667,16.8419753 C19.4987652,16.8419753 19.8188636,16.7823951 20.1229924,16.6683951 L21.408553,26.126642 L19.1772576,28.9414568 Z" id="Shape"></path>
                <ellipse id="Oval" cx="19.1772576" cy="5.27777778" rx="5.28409091" ry="5.27777778"></ellipse>
                <path d="M7.25047727,44.8184198 C6.74696212,45.1981852 7.37987879,45.6227531 7.76949242,45.8007901 C7.98320455,45.8988395 8.19597727,45.9785926 8.40945455,46.0475556 C8.24247727,45.531037 8.04238636,45.021321 7.8047197,44.5162963 C7.57245455,44.6157531 7.3775303,44.722716 7.25047727,44.8184198 Z" id="Shape"></path>
                <path d="M10.0014924,47.4103951 C10.0571515,47.7326914 10.1064697,48.0578025 10.1473333,48.3876049 C10.7905833,48.1903333 11.6830076,47.8699136 11.5395152,47.7425432 C11.2144848,47.4537901 10.5860303,47.4146173 10.0014924,47.4103951 Z" id="Shape"></path>
                <path d="M15.1449091,54.8377531 C18.0525682,53.5673333 17.1808106,44.2533457 15.4882576,41.4354815 C14.2372197,39.3539259 10.57875,37.4945062 10.1149242,37.1614198 C9.02381818,36.3753827 11.2090833,35.360642 12.5261136,33.8575309 C13.2508561,33.0313827 12.6038485,32.4322963 11.783053,32.1515185 C11.7865758,32.2127407 11.7886894,32.2718519 11.792447,32.3328395 C11.8290833,32.9581975 11.6205379,33.5600988 11.2032121,34.0285309 C10.7863561,34.4974321 10.2116818,34.7751605 9.58557576,34.811284 C9.54118939,34.8145679 9.49375,34.8159753 9.44607576,34.8159753 C8.20513636,34.8159753 7.1760303,33.8455679 7.10346212,32.6068148 C7.08232576,32.2472222 7.06424242,31.8918519 7.04780303,31.5388272 C5.60959091,31.2557037 2.94946212,32.080679 4.83435606,32.7914198 C7.62153788,33.8418148 7.73684848,36.461 7.73684848,36.461 C5.86158333,37.9451111 4.30453788,37.6209383 3.17843939,38.9926914 C-2.06948485,45.3827901 0.166272727,52.1608642 2.86867424,54.4340617 C6.15091667,57.1968025 8.28381061,57.8374074 15.1449091,54.8377531 Z M1.4022803,45.6687284 C1.0075,48.8621358 1.98188636,49.9552222 3.77448485,52.6999012 C-0.207840909,50.6640864 1.4022803,45.6687284 1.4022803,45.6687284 Z M2.36375,42.3399753 C2.9755303,37.913679 8.22815152,37.7844321 8.22815152,37.7844321 C5.07883333,38.4656173 4.36747727,39.7442469 2.36375,42.3399753 Z M12.0289394,48.3697778 C11.50875,48.8086543 10.8979091,49.1309506 10.2450303,49.3420617 C10.2851894,49.8149506 10.3159545,50.2953457 10.3377955,50.7872346 C10.3612803,51.3192346 9.27886364,52.1507778 9.24762879,51.4473086 C9.21944697,50.8111605 9.17787879,50.1940123 9.11658333,49.5911728 C8.10227273,49.7166667 7.0520303,49.5982099 6.11662879,49.2369753 C5.60465909,49.0394691 6.58444697,48.0875926 7.06236364,48.2729012 C7.65723485,48.5025432 8.33759091,48.5980123 8.99258333,48.5860494 C8.93058333,48.1696914 8.85496212,47.7601358 8.76525,47.355037 C7.73191667,47.1990494 5.50390909,46.653679 5.85453788,45.4280617 C6.06848485,44.6800247 6.71807576,44.1470864 7.43859091,43.7931235 C7.24695455,43.4447901 7.03559091,43.0976296 6.80168182,42.7514074 C6.49144697,42.2925926 7.4482197,41.3088148 7.81599242,41.8532469 C8.15206061,42.3498272 8.44139394,42.8478148 8.69409091,43.3490864 C9.53461364,43.1429012 11.0714621,42.856963 11.5024091,43.7961728 C11.7349091,44.3033086 10.5963636,45.0687037 10.39275,44.6256049 C10.1945379,44.1937654 9.6569697,44.0997037 9.07125758,44.167963 C9.37115909,44.8798765 9.6027197,45.6023457 9.78026515,46.3412346 C10.0747652,46.3782963 10.3739621,46.4052716 10.682553,46.4261481 C11.156947,46.4580494 12.3492727,46.4080864 12.648,46.9128765 C12.9732652,47.4615309 12.4293561,48.0322346 12.0289394,48.3697778 Z" id="Shape"></path>
            </g>
        </g>
    </g>
</svg>