<?xml version="1.0" encoding="UTF-8"?>
<svg width="57px" height="57px" viewBox="0 0 57 57" version="1.1" xmlns="http://www.w3.org/2000/svg" xmlns:xlink="http://www.w3.org/1999/xlink">
    <!-- Generator: Sketch 47.1 (45422) - http://www.bohemiancoding.com/sketch -->
    <title>Slice 5</title>
    <desc>Created with Sketch.</desc>
    <defs></defs>
    <g id="Page-1" stroke="none" stroke-width="1" fill="none" fill-rule="evenodd">
        <g id="Group-6-Copy-4" transform="translate(5.000000, 5.000000)">
            <circle id="Oval-6" fill="#BDA362" cx="24" cy="24" r="24"></circle>
            <g id="Group-Copy" transform="translate(12.000000, 13.846154)" fill-rule="nonzero" fill="#FFFFFF">
                <g id="Group" transform="translate(0.516410, 2.115593)">
                    <path d="M10.2249231,10.6796738 C9.97704615,10.4233616 9.81179487,10.2524868 9.56391795,9.91073725 C8.73766154,8.71461379 8.73766154,7.34761554 9.15078974,5.80974252 C9.48129231,4.52818167 10.3075487,3.33205821 11.5469333,2.39224692 C12.1253128,1.96505997 12.7863179,1.62331041 13.5299487,1.28156085 C12.538441,0.854373901 11.5469333,0.59806173 10.4728,0.51262434 C9.72916923,0.42718695 9.23341538,0.34174956 8.48978462,0.34174956 C3.86274872,0.34174956 0.144594872,2.39224692 0.144594872,7.26217815 C0.227220513,9.05636335 1.05347692,10.6796738 1.87973333,10.6796738 L10.2249231,10.6796738 Z" id="Shape"></path>
                    <path d="M23.1971487,8.97092596 L21.2141333,8.54373901 C21.2141333,8.54373901 21.2141333,8.54373901 21.2141333,8.54373901 C21.1315077,8.11655206 20.8836308,7.43305293 20.4705026,6.66411642 C20.3878769,6.92042859 20.2226256,7.09130337 20.14,7.26217815 C19.3137436,8.6291764 18.2396103,9.82529986 17.2481026,10.5942364 C17.2481026,10.5942364 17.1654769,10.5942364 17.1654769,10.6796738 L23.1145231,10.6796738 C23.5276513,10.6796738 23.9407795,10.3379242 23.9407795,9.82529986 C23.8581538,9.39811291 23.6102769,9.05636335 23.1971487,8.97092596 L23.1971487,8.97092596 Z" id="Shape"></path>
                </g>
                <path d="M0,14.5213648 L0,16.1469488 C0,16.489177 0.331607924,16.8314052 0.663215848,16.8314052 L2.23835349,16.8314052 L3.15027528,18.9703314 C3.23317726,19.3125596 3.64768716,19.5692308 3.97929509,19.5692308 L20.7254952,19.5692308 C21.1400051,19.5692308 21.4716131,19.3125596 21.5545151,18.8847744 L22.4664368,16.7458481 L24.1244765,16.7458481 C24.4560844,16.7458481 24.7876923,16.489177 24.7876923,16.0613917 L24.7876923,14.4358078 C24.7876923,14.0935796 24.4560844,13.7513514 24.1244765,13.7513514 L0.663215848,13.7513514 C0.331607924,13.8369084 0,14.1791366 0,14.5213648 Z" id="Shape"></path>
                <path d="M23.233887,0.999525262 C23.233887,0.750290023 23.071086,0.584133197 22.9082851,0.41797637 C22.4198821,-0.0804941087 21.6872776,-0.163572522 21.1174742,0.334897957 L21.1174742,0.334897957 C20.8732727,0.584133197 20.7104717,0.916446849 20.7104717,1.2487605 C20.7104717,1.49799574 20.7918722,1.74723098 20.8732727,1.99646622 L18.9196608,3.7411129 C17.3730514,3.49187766 14.6868351,4.23958338 12.8960242,5.81807323 C10.5354099,7.81195514 10.3726089,10.0550723 11.5936163,11.5504837 C12.8146237,13.0458952 15.0124371,13.212052 17.3730514,11.2181701 C19.2452628,9.63968023 20.3848697,6.81501418 20.3034692,5.23652433 L22.1756806,3.57495607 C22.6640836,3.99034814 23.4780885,3.99034814 23.9664915,3.40879924 C24.2920935,2.99340718 24.373494,2.4949367 24.1292925,1.99646622 C23.9664915,1.66415257 23.72229,1.41491733 23.396688,1.33183891 C23.3152875,1.16568209 23.3152875,1.08260368 23.233887,0.999525262 Z" id="Shape"></path>
            </g>
        </g>
    </g>
</svg>