<?xml version="1.0" encoding="UTF-8"?>
<svg width="82px" height="82px" viewBox="0 0 82 82" version="1.1" xmlns="http://www.w3.org/2000/svg" xmlns:xlink="http://www.w3.org/1999/xlink">
    <!-- Generator: Sketch 46.2 (44496) - http://www.bohemiancoding.com/sketch -->
    <title>Slice</title>
    <desc>Created with Sketch.</desc>
    <defs></defs>
    <g id="Page-1" stroke="none" stroke-width="1" fill="none" fill-rule="evenodd">
        <g id="Group-13-Copy" transform="translate(4.000000, 3.000000)">
            <rect id="Rectangle-40-Copy-3" fill="#003296" x="0" y="0" width="75" height="76" rx="14"></rect>
            <path d="M29.9438466,12 C32.7744415,12 35.0690921,14.2946505 35.0690921,17.1252454 C35.0690921,19.9558403 32.7744415,22.2504909 29.9438466,22.2504909 C27.1132517,22.2504909 24.8186012,19.9558403 24.8186012,17.1252454 C24.8186012,14.2946505 27.1132517,12 29.9438466,12 Z M56.3433939,47.2313958 L58.0926972,47.2313958 C58.8074386,47.2306453 59.4619052,46.830758 59.7887147,46.1951077 C60.1155243,45.5594575 60.05994,44.7945086 59.6446706,44.2127809 L53.2927795,35.3649326 C52.9342161,34.8645534 52.356393,34.5677505 51.7408062,34.5677505 C51.1252193,34.5677505 50.5473962,34.8645534 50.1888328,35.3649326 L43.8476082,44.2127809 C43.4323388,44.7945086 43.3767545,45.5594575 43.7035641,46.1951077 C44.0303736,46.830758 44.6848402,47.2306453 45.3995816,47.2313958 L46.8555566,47.2313958 C45.2929167,55.0552616 39.1436889,58.4792029 35.6930814,59.8071802 L35.6930814,30.0850232 L40.2636696,33.8662917 C41.1069048,34.55287 42.3163848,34.55287 43.15962,33.8662917 L49.9008377,28.5330498 C50.8427083,27.8147072 51.1052248,26.5089731 50.5141605,25.4824355 C50.1727381,24.9227229 49.6080818,24.535905 48.9628348,24.4196993 C48.3175878,24.3034937 47.6534584,24.4690137 47.1382184,24.8744459 L41.7569774,29.1410394 L36.3704031,24.6931157 C35.9621762,24.3508975 35.447116,24.1622308 34.914428,24.1597915 L24.946599,24.1597915 C22.7669526,24.1597915 21,25.926744 21,28.1063905 L21,38.0155539 C21.0016251,39.9060258 22.3436131,41.5298312 24.1999451,41.8874875 L24.1999451,61.8338121 C24.1999451,63.1784183 25.2899638,64.268437 26.63457,64.268437 C27.9791763,64.268437 29.069195,63.1784183 29.069195,61.8338121 L29.069195,47.6527219 C29.057883,47.2043208 29.370691,46.8127483 29.8105156,46.7247378 C30.0735071,46.6717157 30.3463882,46.7400662 30.5533347,46.9107971 C30.7602812,47.081528 30.8792427,47.3364476 30.8771639,47.6047227 L30.8771639,61.8338121 C30.8723736,63.1256703 31.8805419,64.1947975 33.170458,64.2657704 L33.170458,64.2657704 L35.7890797,64.2657704 C50.9408199,63.7324462 55.1647474,53.1086284 56.3433939,47.2313958 Z" id="Shape" fill="#FFFFFF" fill-rule="nonzero"></path>
        </g>
    </g>
</svg>