<?xml version="1.0" encoding="UTF-8"?>
<svg width="24px" height="24px" viewBox="0 0 24 24" version="1.1" xmlns="http://www.w3.org/2000/svg" xmlns:xlink="http://www.w3.org/1999/xlink">
    <!-- Generator: Sketch 46.2 (44496) - http://www.bohemiancoding.com/sketch -->
    <title>Slice 3</title>
    <desc>Created with Sketch.</desc>
    <defs></defs>
    <g id="Page-1" stroke="none" stroke-width="1" fill="none" fill-rule="evenodd">
        <g id="map-marker" transform="translate(6.000000, 4.000000)" fill-rule="nonzero" fill="#7B6852">
            <path d="M6,8.075 C4.81653268,8.075 3.85714286,7.12360509 3.85714286,5.95 C3.85714286,5.38641496 4.08290752,4.84591289 4.48477118,4.44739809 C4.88663485,4.04888329 5.43167895,3.825 6,3.825 C7.18346732,3.825 8.14285714,4.77639491 8.14285714,5.95 C8.14285714,6.51358504 7.91709248,7.05408711 7.51522882,7.45260191 C7.11336515,7.85111671 6.56832105,8.075 6,8.075 L6,8.075 Z M6,7.54951657e-16 C2.6862915,-3.77475828e-16 7.61295788e-16,2.66390574 0,5.95 C7.61295788e-16,10.4125 6,17 6,17 C6,17 12,10.4125 12,5.95 C12,2.66390574 9.3137085,1.13242749e-15 6,7.54951657e-16 Z" id="Shape"></path>
        </g>
    </g>
</svg>