<?xml version="1.0" encoding="UTF-8"?>
<svg width="187px" height="28px" viewBox="0 0 187 28" version="1.1" xmlns="http://www.w3.org/2000/svg" xmlns:xlink="http://www.w3.org/1999/xlink">
    <!-- Generator: Sketch 47.1 (45422) - http://www.bohemiancoding.com/sketch -->
    <title>z</title>
    <desc>Created with Sketch.</desc>
    <defs></defs>
    <g id="Page-1" stroke="none" stroke-width="1" fill="none" fill-rule="evenodd">
        <g id="Group-24-Copy-7" transform="translate(2.000000, 3.000000)">
            <g id="Group-15" transform="translate(29.698745, 0.000000)" fill="#FFFFFF">
                <path d="M139.917179,10.8784879 C139.75118,10.8597454 139.581431,10.8719498 139.413268,10.8718045 C137.660399,10.8706422 135.907386,10.8699158 134.154517,10.8693346 C133.92059,10.8691893 133.686662,10.8693346 133.421294,10.8693346 L133.421294,6.66824409 C134.436903,6.66824409 135.394101,6.66809879 136.351156,6.66838938 C136.92761,6.66853467 137.504063,6.6794315 138.080084,6.66650059 C138.477415,6.65749255 138.592071,6.53428574 138.628559,6.15158914 C138.67471,5.6703852 138.535969,5.513035 138.023694,5.47714811 C137.880337,5.46712303 137.735683,5.47337055 137.591606,5.47337055 C136.390961,5.47322525 135.190461,5.47511404 133.989672,5.47148176 C133.804491,5.4709006 133.619455,5.44547467 133.442784,5.43225318 C133.320339,4.3158368 133.363317,1.76438079 133.508837,1.29203961 C133.602148,1.28695442 133.697623,1.27736522 133.793098,1.27736522 C135.690044,1.27620289 137.587135,1.27634818 139.484081,1.27576701 C139.652099,1.27562172 139.822425,1.29029612 139.98727,1.26719484 C140.275569,1.22665864 140.440415,1.03356685 140.479787,0.72918211 C140.522621,0.397192076 140.439838,0.220518167 140.126588,0.111695176 C139.928572,0.0428272215 139.70849,0.010717901 139.498071,0.00999144576 C137.384936,0.00287218464 135.271657,0.0168201248 133.158811,0.000111654819 C132.306462,-0.00657173317 132.116666,0.286044428 132.121425,1.07715416 C132.141472,4.43962477 132.129358,7.80209539 132.129069,11.1647113 C132.129069,11.2855934 132.117964,11.4080738 132.132675,11.5270672 C132.170317,11.8301443 132.33545,12.0065276 132.637883,12.0499696 C132.803017,12.0739426 132.973342,12.0631911 133.14136,12.0630458 C135.302521,12.0626099 137.463537,12.0614476 139.624842,12.0604306 C139.744834,12.0602853 139.86497,12.0573795 139.984819,12.0610117 C140.208218,12.0676951 140.339748,11.946813 140.420368,11.7515418 C140.619105,11.2712096 140.430319,10.9367496 139.917179,10.8784879" id="Fill-1"></path>
                <path d="M123.213388,5.80183502 C122.461302,5.8394352 121.705804,5.80978072 120.959263,5.80978072 C120.819935,5.31274897 120.783539,2.18867104 120.907228,1.17389198 C121.706515,1.17389198 122.462724,1.13927144 123.214668,1.18056069 C125.199379,1.28938836 125.92957,3.29823092 125.133553,4.6644652 C124.710025,5.39121274 124.038124,5.76054578 123.213388,5.80183502 M126.796815,10.2765396 C126.080983,9.14087245 125.362876,8.00634038 124.595862,6.79263511 C124.829022,6.62946454 125.002471,6.5111304 125.172793,6.38839775 C126.232679,5.62433382 127.010641,4.20730383 126.533514,2.65576453 C126.120506,1.31294168 125.222695,0.438914973 123.823872,0.148755132 C122.677829,-0.0889063513 121.510176,0.0185024504 120.357878,0.0637645479 C119.622142,0.0925677008 119.538829,0.241407639 119.570818,0.945311292 C119.572951,0.992417926 119.569681,1.03980834 119.569681,1.08705686 C119.568685,4.30066577 119.56769,7.51441658 119.567264,10.7280255 C119.567264,10.8934663 119.534706,11.0701161 119.58276,11.2209425 C119.62726,11.3608435 119.733035,11.5238722 119.85772,11.5885729 C120.330866,11.8337544 120.687858,11.6146802 120.732642,11.0757916 C120.7443,10.9348974 120.737618,10.7924424 120.737618,10.6506968 C120.73776,9.68188931 120.735343,8.71308178 120.738755,7.74427425 C120.739466,7.51498413 120.759085,7.28583589 120.773587,6.98290618 C121.462407,6.98290618 122.096064,7.00489874 122.727162,6.97496048 C123.128085,6.95580568 123.368639,7.07967342 123.581612,7.43652037 C124.271,8.59148423 125.002471,9.72161779 125.720152,10.8598389 C125.845973,11.0591908 125.969805,11.2623736 126.118231,11.4445571 C126.302912,11.6714352 126.751036,11.7381223 126.953061,11.5916944 C127.14485,11.4527866 127.237546,11.0750822 127.118549,10.8250765 C127.027701,10.6343798 126.909841,10.4557435 126.796815,10.2765396" id="Fill-3"></path>
                <path d="M114.317647,1.24041578 C112.937275,0.153977411 111.374954,-0.203074767 109.68259,0.107703449 C108.361619,0.350213288 107.292684,1.07588614 106.427211,2.12162056 C104.803407,4.08412215 104.629646,6.94896601 106.05096,9.06257208 C107.011641,10.4916377 108.299581,11.4042631 110.021507,11.6346332 C111.381338,11.8164441 112.615846,11.5345157 113.799973,10.8451194 C114.329861,10.5363407 114.581064,10.1547233 114.476697,9.52716838 C114.442,9.31907837 114.469758,9.09984833 114.469758,8.88561702 C114.470035,8.10024505 114.480305,7.31473026 114.467259,6.52978675 C114.459626,6.07690177 114.301964,5.87952332 113.910031,5.87281074 C112.939218,5.85581506 111.967712,5.86052815 110.996761,5.8766669 C110.692818,5.88166564 110.503652,6.11774854 110.481585,6.43266856 C110.462293,6.70888412 110.615236,6.94453856 110.896002,7.00809385 C111.073787,7.04822651 111.263509,7.03951444 111.447956,7.04051419 C112.047098,7.04408471 112.646101,7.04194239 113.363073,7.04194239 C113.363073,7.79960712 113.36335,8.46072493 113.362934,9.12198556 C113.362795,9.26466361 113.390275,9.41705348 113.350582,9.54744894 C113.313665,9.66927514 113.22734,9.80966806 113.12325,9.87050975 C111.32971,10.9171011 109.360327,10.8142701 107.767612,9.45004511 C105.808361,7.77218551 105.722868,4.68625494 107.341815,2.81958615 C108.861112,1.06788817 111.469607,0.926495504 112.96767,1.86982736 C113.183899,2.00607847 113.384724,2.17632095 113.614693,2.27843787 C113.793034,2.35770346 114.008708,2.39526534 114.202177,2.37926941 C114.438392,2.35956013 114.537485,2.13618828 114.587865,1.92538468 C114.656148,1.64102832 114.532489,1.40951569 114.317647,1.24041578" id="Fill-5"></path>
                <path d="M149.681762,4.86352525 C149.168319,4.70177377 148.630236,4.59114655 148.145442,4.37188027 C147.216674,3.95180925 147.049089,3.22485064 147.313158,2.34423523 C147.55318,1.54371449 148.555276,1.04198666 149.375685,1.20331211 C149.924604,1.3110991 150.270907,1.66797485 150.619288,2.04175001 C150.894489,2.33685061 151.296159,2.39351334 151.530837,2.19952516 C151.751117,2.01746599 151.792383,1.54769082 151.569876,1.28880324 C150.799193,0.391998476 149.607543,-0.323031134 148.098239,0.150862373 C146.928113,0.518389013 146.199586,1.26125294 146.000977,2.47147784 C145.838588,3.45931219 146.080094,4.29363174 146.83341,4.97898088 C147.252002,5.35971462 147.771827,5.56506374 148.32698,5.71857854 C148.867586,5.868117 149.394537,6.06764364 149.917776,6.26887441 C150.854263,6.62930046 151.323026,7.85003423 151.01309,8.85647213 C150.513749,10.4778213 148.25959,11.146129 146.916535,9.75711122 C146.765575,9.60104021 146.633169,9.42764375 146.473006,9.28108753 C146.256437,9.08326504 145.842595,9.04463782 145.660315,9.18537155 C145.449387,9.34797511 145.383481,9.68937157 145.516777,9.96714673 C145.557745,10.0523538 145.60955,10.1364248 145.672932,10.2074308 C146.474936,11.1072178 147.434876,11.7106261 148.680111,11.6879042 C149.892987,11.6888983 150.836154,11.218129 151.550134,10.3714544 C152.959837,8.69969106 152.41166,5.72383298 149.681762,4.86352525" id="Fill-7"></path>
                <path d="M91.9742529,0.00473145114 C89.7164666,0.00544262456 87.4586803,0.00515815519 85.2007529,0.00586932861 C85.0128746,0.00586932861 84.8200558,-0.0146124657 84.6385295,0.020946205 C84.5137479,0.0452683358 84.3718863,0.124350819 84.2941095,0.223772863 C83.9841315,0.61975422 84.1845726,1.12226935 84.6863813,1.15512557 C85.2954684,1.19495128 85.908649,1.17134032 86.5199946,1.17333161 C86.9829854,1.17489619 87.4459763,1.17361608 87.9633121,1.17361608 L87.9633121,11.4037034 C88.2854296,11.7376704 88.596678,11.7361059 88.9820332,11.6112238 C89.0372251,11.4347106 89.1336345,11.2394224 89.1541021,11.0364535 C89.1892499,10.6871251 89.1834625,10.3328185 89.1837448,9.98078764 C89.1855798,7.30279303 89.1847329,4.62479842 89.1847329,1.94680381 L89.1847329,1.17361608 C89.6816011,1.17361608 90.122854,1.17375831 90.564248,1.17361608 C91.1755936,1.17318937 91.7873626,1.18442591 92.3984259,1.16749998 C92.7490568,1.15782803 92.8505478,1.04731168 92.8950118,0.700116816 C92.9127975,0.561438 92.8979761,0.418492144 92.8979761,0.295743612 C92.5913858,-0.0301160462 92.2791493,0.00458921646 91.9742529,0.00473145114" id="Fill-10"></path>
                <path d="M98.9952794,0.279452029 C98.2271171,-0.197713985 97.9595278,-0.0776061455 97.8763673,0.7463961 C97.8439078,1.06881324 97.8903168,1.39946473 97.8889755,1.72642496 C97.8773062,4.65430199 97.8601375,7.58217902 97.8535652,10.510198 C97.8527604,10.8358805 97.9081561,11.161705 97.9357868,11.4693571 C98.6791351,11.8934258 98.9820005,11.7090049 98.9951452,10.8557565 C98.9962183,10.7849128 98.9956818,10.714069 98.9956818,10.6430833 C98.9955476,7.43026958 98.9954135,4.21759784 98.9952794,1.00478412 C98.9952794,0.770247302 98.9952794,0.535568509 98.9952794,0.279452029" id="Fill-12"></path>
                <path d="M64.5349394,10.3837765 C62.1450698,10.444656 60.1731612,8.44874984 60.1377248,5.83706271 C60.1021537,3.22081318 62.0097916,1.11840361 64.5407332,1.13479972 C67.2670467,1.15247901 68.9308066,3.54231959 68.906823,5.80954575 C68.8786625,8.4848213 66.753286,10.4824383 64.5349394,10.3837765 M64.5376342,4.60419945e-05 C61.3021412,-0.0133559992 58.9225118,2.90130281 59.0215451,5.82194977 C58.8901744,8.88246271 61.4696221,11.6357267 64.4171773,11.6877666 C67.2185405,11.7373826 70.0622119,9.34682918 70.0585739,5.83121714 C70.0552054,2.54714674 67.575869,0.0125926338 64.5376342,4.60419945e-05" id="Fill-14"></path>
                <path d="M43.8543038,9.19959327 C43.1828754,9.85990032 42.3752358,10.2520956 41.4398804,10.4220517 C40.6223293,10.570781 39.812849,10.5592417 38.9640061,10.5298947 L38.9640061,1.27149239 C40.2080317,1.2890151 41.4543227,1.08358624 42.6230215,1.68904578 C44.0788684,2.44323467 44.9834984,3.59560225 45.1832844,5.26382135 C45.3663626,6.79214368 44.9539057,8.11831376 43.8543038,9.19959327 M41.4621103,0.124395869 C40.6207718,0.0488915029 39.7729201,0.0346453961 38.927617,0.0188322176 C38.0106685,0.00173688946 37.715308,-0.20226736 37.7017152,1.27134993 C37.6876976,2.8130636 37.6986002,4.35491974 37.6986002,5.89677587 L37.6970427,5.89677587 C37.6970427,7.46228055 37.6969011,9.02778522 37.6970427,10.5932899 C37.6970427,10.688169 37.6954852,10.7831905 37.6988834,10.8779271 C37.7223876,11.5319659 37.857183,11.6805528 38.4905231,11.6858238 C39.362587,11.6932318 40.2349341,11.6836869 41.1071396,11.6777035 C41.2718109,11.6765639 41.440022,11.6774186 41.6004455,11.6457923 C44.9677817,10.984488 47.1061011,7.76771708 46.2707095,4.43911423 C45.6876344,2.11514683 43.6628717,0.32198937 41.4621103,0.124395869" id="Fill-16"></path>
                <path d="M33.5045038,0.72056426 C33.5045038,0.649589028 33.5088785,0.578187945 33.5031913,0.507638565 C33.4738804,0.148503893 33.3951347,0.0606365556 33.020801,0.00953438882 C32.8786212,-0.00991282467 32.7314834,0.00641147862 32.5971782,0.00641147862 C32.2543427,0.336304356 32.3047983,0.677127418 32.3046525,1.00446519 C32.3039234,3.15742787 32.3018818,5.31024859 32.307569,7.46321127 C32.3090273,8.03924625 32.2536136,8.61002907 31.921715,9.09464795 C31.2500433,10.0750998 30.2754922,10.5529051 29.0746202,10.4802264 C28.3975529,10.4393447 27.7270478,10.2559447 27.2429075,9.72803092 C26.6405028,9.07122612 26.3145831,8.31746916 26.3243534,7.41225106 C26.3471022,5.30684178 26.3316447,3.20114861 26.3316447,1.09559738 C26.3316447,0.929941194 26.3399567,0.763717201 26.327999,0.598912713 C26.303792,0.268168133 26.0630343,0.0558102399 25.7076578,0.037782531 C25.411049,0.0227357819 25.1936234,0.221892282 25.1438969,0.567115809 C25.127127,0.683373239 25.1317934,0.802895529 25.1316476,0.920998314 C25.1306268,3.14479427 25.1272728,5.36873218 25.1328142,7.59252814 C25.1335433,7.92242102 25.1210023,8.26707675 25.2092267,8.57965167 C26.0736796,11.6440783 29.4234345,12.3666061 31.5160288,11.0833739 C32.788647,10.3032142 33.5109201,9.18634795 33.5062537,7.67599502 C33.4989624,5.3575181 33.5045038,3.03904118 33.5045038,0.72056426" id="Fill-18"></path>
                <path d="M4.01366158,4.98128537 C3.57007417,4.84229309 3.11669848,4.72238675 2.69209442,4.53910342 C2.21751077,4.33440304 1.90458218,3.95122724 1.79572455,3.44829079 C1.62650582,2.66605853 2.05600402,1.86954823 2.83802889,1.45927331 C3.46596238,1.12985867 4.33356062,1.27773831 4.87873858,1.81258179 C5.03594442,1.96672627 5.16956938,2.1449103 5.33433889,2.29002175 C5.57845285,2.50521211 5.90680541,2.47301369 6.11502899,2.23465794 C6.31301936,2.00824913 6.36121926,1.5930206 6.1694578,1.36311512 C5.50415085,0.565002184 4.7004731,0.00407943815 3.45068672,0 C3.34865124,0.0123840087 3.10008805,0.0211256619 2.86249961,0.0754696058 C1.65928175,0.350685987 0.527696366,1.40988296 0.542378797,2.97259917 C0.554243389,4.25922482 1.10802318,5.14591984 2.28855001,5.66313432 C2.6013303,5.80023258 2.93887792,5.88109288 3.25833204,6.00507866 C3.69079639,6.1729184 4.12326074,6.34381772 4.54430542,6.53744534 C5.80121055,7.11556 5.9045808,8.83125513 5.31832169,9.75422801 C4.53036452,10.9951057 2.54942271,11.2879511 1.37186203,9.97903419 C1.19700762,9.7848238 1.01681414,9.58085189 0.799247198,9.44171391 C0.357884404,9.15950421 -0.0631602774,9.65646719 0.00787896254,10.0408085 C0.0333878337,10.1786353 0.0947870933,10.3233096 0.179767228,10.4354942 C0.910774355,11.4002813 2.28780847,12.3244197 3.90079965,11.9990846 C6.65234667,11.4441353 7.43155369,8.78652701 6.44382647,6.8508336 C5.93216598,5.84802029 5.06041514,5.30895167 4.01366158,4.98128537" id="Fill-20"></path>
                <path d="M19.6092614,0.0041037091 C19.5155067,-0.00399909151 19.420619,0.00239785634 19.3261562,0.00239785634 C16.9192665,0.00182923875 14.5122351,0.000407694784 12.1053454,0.00339293711 C11.9453109,0.00353509151 11.7852765,0.0369413747 11.6463439,0.0525783584 C11.2262889,0.891715762 11.3782508,1.14915737 12.2676458,1.16451005 C12.5270999,1.16891684 12.7866956,1.16692667 13.0462913,1.16692667 C13.7289161,1.16721098 14.4115409,1.16706883 15.1976924,1.16706883 L15.1976924,1.93967797 C15.1975507,4.82939255 15.1974091,7.71910713 15.1974091,10.6089639 C15.1974091,10.7747159 15.1876371,10.9411787 15.1998167,11.1060778 C15.2258754,11.4563462 15.3833607,11.6249413 15.709661,11.6728474 C16.1059233,11.7311307 16.2713394,11.6363137 16.3798229,11.228757 C16.4333566,11.028035 16.4374636,10.8099702 16.4376053,10.5995817 C16.4411458,7.71000924 16.4378885,4.82015251 16.4436951,1.93043794 C16.4441199,1.68209421 16.3710423,1.4134224 16.5487796,1.16706883 C16.9579296,1.16706883 17.3578741,1.16749529 17.757677,1.16692667 C18.3948407,1.1662159 19.032146,1.17474517 19.6688848,1.15996111 C20.0269088,1.151574 20.1256203,1.04197296 20.1672576,0.700660253 C20.2258897,0.219751929 20.0876652,0.0454706385 19.6092614,0.0041037091" id="Fill-22"></path>
                <path d="M53.2958153,0.530673675 C53.2679194,0.233632484 52.9711455,-0.00796879881 52.6634618,0.000201292881 C52.4150223,0.00691243963 52.2190604,0.207225581 52.1803928,0.519731588 C52.159678,0.687510257 52.1657543,0.859519866 52.1657543,1.02948695 C52.1649257,4.38506033 52.1649257,7.7404878 52.1649257,11.0959153 C52.1649257,11.2175913 52.1595399,11.3395591 52.1676877,11.4606515 C52.1917169,11.8259713 52.4534138,12.0734084 52.8005937,12.0653842 C53.0711289,12.0592566 53.2578382,11.8423115 53.2931915,11.4715936 C53.309349,11.3029396 53.3012012,11.1315135 53.3013393,10.9614006 C53.3016155,9.30797825 53.3016155,7.65455595 53.3016155,6.00113364 L53.3034108,6.00113364 C53.3034108,4.34771133 53.3035489,2.69428903 53.3031346,1.04086672 C53.3031346,0.870753742 53.3116967,0.699327711 53.2958153,0.530673675" id="Fill-24"></path>
            </g>
            <g id="Group-14" transform="translate(29.698745, 18.098361)" fill="#FFFFFF">
                <path d="M7.51124757,2.42639173 L9.25729671,2.42639173 C9.15772315,2.01394143 9.15786087,2.00087189 8.94866,1.99722458 C8.47392965,1.98871418 7.99906158,1.9944891 7.50463687,1.9944891 L7.50463687,0.455778977 L9.87250427,0.455778977 C9.96987426,0.0384655952 9.7940023,0.00138458094 9.5912744,0.0010806382 C8.92648664,1.68386075e-05 8.2618366,-0.0019587892 7.59718657,0.00518386518 C7.44527837,0.00685555025 7.29378333,0.0431767077 7.11832454,0.0668842414 C7.09532483,0.279188245 7.06158276,0.450156036 7.06089414,0.621275799 C7.05662474,1.70893489 7.05937919,2.79674596 7.06034325,3.88440505 C7.06034325,3.98546601 7.05827741,4.08698289 7.06654078,4.18743596 C7.0836184,4.39259731 7.19200621,4.52359663 7.37490204,4.52405255 C8.15331107,4.52618015 8.93185783,4.52298875 9.70957825,4.49608982 C9.78808022,4.49335433 9.86148645,4.31706754 10.03061,4.10324383 C9.10759207,4.08014418 8.32078194,4.06053987 7.51124757,4.04017571 L7.51124757,2.42639173 Z" id="Fill-26"></path>
                <path d="M15.3150272,2.17707428 L15.3150272,0.465736823 C15.5866609,0.462628639 15.8518888,0.440306232 16.1139819,0.461074548 C16.5280427,0.493710472 16.7859107,0.762850888 16.8274804,1.16507806 C16.8724573,1.59866963 16.7193993,1.9173997 16.3201945,2.04356368 C16.0278442,2.13582021 15.7067358,2.12932128 15.3150272,2.17707428 M16.6440288,2.45836487 C16.7774605,2.30281442 16.9241127,2.15701237 17.0420069,1.9897356 C17.5209436,1.3094673 17.1642625,0.221885716 16.3752573,0.0709975457 C15.8995916,-0.0199874558 15.3943502,-0.0382127123 14.9175942,0.104339875 C14.815919,1.46643056 14.8554442,3.65063572 14.9873767,4.12915466 C15.2506965,4.19075321 15.2853151,4.02870383 15.2988082,3.81155485 C15.3242951,3.40028568 15.2140334,2.97601867 15.3711802,2.57534559 L16.179403,2.57534559 C16.4390428,3.009361 16.700727,3.44733228 16.9632291,3.885021 C17.0759441,4.07306608 17.1999715,4.23384393 17.4322163,4.09552977 C17.4473449,4.04933087 17.4661535,4.0214985 17.4592025,4.00821808 C17.1927479,3.49805218 16.9239764,2.9891578 16.6440288,2.45836487" id="Fill-28"></path>
                <path d="M25.6221203,0.370963223 C25.620957,0.261008874 25.5630791,0.151812832 25.5265783,0.0253274155 C25.1982161,0.273141768 25.1903634,0.273141768 25.1880366,0.624995683 C25.182656,1.40817397 25.2033059,2.1919589 25.1800384,2.97453054 C25.1606974,3.62000048 24.7714035,3.98444227 24.1552519,3.99687849 C23.5427357,4.00916304 23.1599859,3.64714783 23.1127238,3.0004646 C23.0999267,2.8246893 23.1092337,2.64694241 23.1092337,2.47010548 C23.1089429,1.83843671 23.10967,1.20676793 23.1083612,0.575099158 C23.1079249,0.350943948 23.1115604,0.121935581 22.7376813,0 C22.7080153,0.208837432 22.6709328,0.353067205 22.6697694,0.497751961 C22.6639525,1.306106 22.6550818,2.11491502 22.6697694,2.9231174 C22.6863475,3.83520768 23.3653213,4.54695355 24.1702303,4.52405271 C24.9669957,4.50130354 25.6081599,3.82352977 25.6251742,2.94783817 C25.6418977,2.08928428 25.6305548,1.22997209 25.6221203,0.370963223" id="Fill-30"></path>
                <path d="M0.500706353,2.22682375 C0.495729579,1.94116267 0.488792259,1.64432969 0.486077655,1.34707246 C0.483513862,1.06834078 0.485474409,0.789467689 0.485474409,0.474816249 C1.56166402,0.411178879 2.16883041,0.77108356 2.14002545,1.38369931 C2.10850588,2.05684126 1.60479606,2.33062337 0.500706353,2.22682375 M1.3948667,0.0262435005 C0.962490628,-0.0277775556 0.515636674,0.018182767 0.0870308904,0.0191726817 C-0.0696620756,1.30931429 -0.00586888539,3.70151373 0.207076705,4.14754098 C0.726621717,3.76444402 0.343108519,3.21871822 0.578826619,2.69434629 C0.794486813,2.69434629 1.01602865,2.70594243 1.23560994,2.69222505 C1.97202163,2.64640614 2.56832961,2.09134686 2.59924593,1.4337607 C2.63016225,0.773487638 2.09855233,0.114628736 1.3948667,0.0262435005" id="Fill-32"></path>
                <path d="M66.3489904,0.350182921 C65.8474192,1.43903877 65.3526656,2.53157319 64.8314768,3.67622064 C64.7338061,3.47466582 64.6579791,3.32491748 64.5878565,3.17210368 C64.1914693,2.30856006 63.7963342,1.44440335 63.4011991,0.580246636 C63.3385896,0.443679834 63.2953196,0.290099659 63.2097533,0.174684618 C63.1496483,0.0937561428 63.0347252,0.0333663336 62.9401154,0.0252428313 C62.8962888,0.0214109906 62.8215748,0.158131066 62.7983398,0.24365775 C62.7728786,0.337614484 62.7895745,0.445672391 62.7894353,0.547752627 C62.7884614,1.69653846 62.7860962,2.8453243 62.7890179,3.99411014 C62.7894353,4.14033318 62.8186531,4.28640295 62.8445316,4.52459016 C63.0027248,4.4255754 63.1659267,4.38327188 63.1880487,4.2971321 C63.2370232,4.10661298 63.2201882,3.89402246 63.2208839,3.69047508 C63.2232491,2.9400474 63.2217187,2.18992627 63.2217187,1.43949859 C63.7338639,2.33339039 64.1513992,3.24031044 64.5655954,4.14906978 C64.6390571,4.31031363 64.6890056,4.49408871 64.9615653,4.40733584 C65.4073445,3.43573431 65.8699586,2.42780694 66.3324337,1.41987957 C66.4252348,2.13030283 66.4241217,2.81650886 66.4257913,3.50240834 C66.4264869,3.75745566 66.4102085,4.01633482 66.4442958,4.2663241 C66.4767136,4.50466459 66.6268371,4.52014523 66.7931,4.4087153 C66.9223537,3.34898144 66.8820054,0.502383633 66.7327166,0.0186520653 C66.4634961,-0.0708597331 66.4264869,0.181888479 66.3489904,0.350182921" id="Fill-34"></path>
                <path d="M83.1423016,0.373991957 C83.1375787,1.13061695 83.1398686,1.88724194 83.1360044,2.64386693 C83.1347163,2.87975323 83.1224081,3.11579112 83.1109587,3.48462874 C82.9217562,3.23767581 82.8164211,3.10517926 82.7160951,2.96828638 C82.0460149,2.05354481 81.3802283,1.13516488 80.7025628,0.226335627 C80.6300018,0.129312987 80.4903183,0.088229963 80.3476292,0 C80.3018314,0.157813387 80.2521693,0.250136493 80.2517399,0.342762794 C80.245729,1.60375391 80.2463014,2.86489663 80.2460152,4.12588775 C80.2460152,4.17591505 80.2384299,4.23807018 80.2624738,4.27339249 C80.3125652,4.34706905 80.4037316,4.4722889 80.4380801,4.45909988 C80.5298189,4.42408077 80.6526145,4.33812478 80.6687869,4.25232038 C80.7055683,4.05797191 80.6883941,3.8514956 80.6885372,3.64987043 C80.6896821,2.82123645 80.6889666,1.99229927 80.6889666,0.98644737 C81.0733825,1.5190107 81.3548963,1.91528755 81.6427073,2.30641006 C81.9205001,2.68373717 82.1951442,3.06439944 82.4888231,3.42777954 C82.7840763,3.79282722 82.942079,4.30295407 83.477771,4.52459016 C83.6247536,3.80465186 83.6213188,0.690528319 83.4910811,0.0868655821 C83.235901,-0.00879267672 83.144019,0.129616183 83.1423016,0.373991957" id="Fill-36"></path>
                <path d="M55.448881,2.17349799 L55.448881,0.50590389 C55.7393658,0.50590389 56.0095069,0.490187404 56.2774337,0.50949623 C56.7598681,0.544072501 56.9716078,0.802870652 56.9756212,1.32750195 C56.979773,1.85273198 56.7623592,2.13532938 56.2998532,2.16990565 C56.0301273,2.18996288 55.7579103,2.17349799 55.448881,2.17349799 M56.7566851,2.5403657 C56.916943,2.3951753 57.0817678,2.28950063 57.193035,2.13802363 C57.7064692,1.43781672 57.3892748,0.29964371 56.5897844,0.0923357638 C56.0885287,-0.0375871945 55.5566884,-0.028456664 55.0539103,0.107453527 C54.9398754,1.03876764 54.9696296,3.99271877 55.0933521,4.52034369 C55.4037652,4.55911102 55.4134527,4.32575861 55.4232785,4.09300492 C55.4419614,3.65638595 55.3827297,3.2133307 55.4628586,2.78449513 L56.2422822,2.78449513 C56.7035426,3.29924749 56.8305864,4.04780131 57.3665785,4.44235998 C57.5917422,4.33189552 57.6313223,4.19403948 57.5314033,4.005741 C57.2926772,3.55550107 57.0549198,3.1048121 56.7566851,2.5403657" id="Fill-38"></path>
                <path d="M41.7137419,2.05017402 C41.3983505,2.03401379 41.0789979,2.04507079 40.7657919,2.08362853 C40.6991349,2.0918504 40.651874,2.26734483 40.5553033,2.43660197 C40.9333906,2.46282691 41.2196879,2.4826728 41.5230592,2.50365275 L41.5230592,3.48559936 C40.5828949,3.95438778 39.4870155,3.59347598 39.1120698,2.73032124 C38.7772822,1.96001694 39.0934932,1.3381316 39.5667853,0.800874832 C39.9828452,0.328400739 40.5395952,0.226052616 41.1277613,0.460234195 C41.3736273,0.558046113 41.6107514,0.679247838 41.8652227,0.795913358 C41.9320163,0.407926082 41.9318797,0.408067838 41.8186448,0.325565611 C41.4263519,0.0397847019 40.9824272,-0.00642788558 40.5184234,0.000659934589 C38.8774043,0.0256090616 38.2494899,1.87099392 38.8735798,3.09350115 C39.3904448,4.10620889 40.9902129,4.61284628 41.9799602,3.58085966 C41.9799602,3.20180304 41.9798236,2.80119944 41.9799602,2.40059584 C41.9800968,2.210217 41.8926778,2.05924643 41.7137419,2.05017402" id="Fill-43"></path>
                <path d="M72.8884003,2.56133261 C72.9069413,1.97534397 73.195234,1.57832088 73.3678193,0.982109752 C73.576232,1.5459998 73.7352949,1.97684727 73.9023039,2.42889136 C73.5558787,2.63679857 73.2423534,2.47609517 72.8884003,2.56133261 M73.6933335,0.57230856 C73.6304612,0.406493918 73.4858966,0.276908949 73.2838966,0 C73.0639131,0.558628477 72.9052684,0.943023798 72.7602857,1.33328201 C72.4172062,2.25751449 72.083467,3.18550523 71.7387147,4.10898605 C71.6779334,4.27149342 71.677097,4.41039888 71.8261226,4.48796947 C72.0169701,4.58748832 72.1195733,4.47308674 72.1869066,4.27840862 C72.3313318,3.8610909 72.4880247,3.44843343 72.6384444,3.03712893 L74.1010976,3.03712893 C74.233952,3.39687004 74.3486836,3.7224861 74.4749859,4.04269026 C74.5286574,4.17873944 74.5908327,4.31869722 74.6801923,4.42738624 C74.7257782,4.48285823 74.8565415,4.51262368 74.9181592,4.48180591 C74.9813104,4.45038682 75.0278721,4.33553425 75.0423704,4.24954515 C75.0531047,4.18625597 75.0016637,4.10988803 74.9761523,4.04028497 C74.5506836,2.88334074 74.1305124,1.72414155 73.6933335,0.57230856" id="Fill-45"></path>
                <path d="M91.6963961,0 C91.5734782,0.0429900253 91.4071351,0.0503922813 91.3357215,0.135375874 C91.1385046,0.370397503 90.9848572,0.640579847 90.8062511,0.891402445 C90.6453902,1.11759831 90.4738534,1.33653426 90.2800989,1.59475912 C90.0723503,1.29140897 89.9024005,1.03617349 89.7250928,0.786204999 C89.5470638,0.535097699 89.3733629,0.27886576 89.1702309,0.0485417173 C89.1214677,-0.00669050063 88.9507965,0.00199291508 88.8609163,0.0391465462 C88.8095563,0.0603568567 88.7796924,0.203277338 88.7923882,0.283278644 C88.8059495,0.369970449 88.8779402,0.448690595 88.9287232,0.528264847 C89.0944892,0.787343808 89.2458283,1.05752615 89.4323693,1.3012312 C89.8817699,1.88885644 90.1294812,2.52274579 90.0310892,3.27521358 C89.9957431,3.54553828 90.0387355,3.8259699 90.0471031,4.14754098 C90.4628889,4.10497801 90.6272122,3.97970906 90.6237497,3.68575409 C90.6207201,3.42553632 90.6453902,3.16346799 90.6192774,2.90595489 C90.5638778,2.358615 90.7338276,1.8965434 91.0631957,1.46109146 C91.3198518,1.12201119 91.5411618,0.753891305 91.7451594,0.381073834 C91.795221,0.28939974 91.7161611,0.128827725 91.6963961,0" id="Fill-47"></path>
                <path d="M32.3208544,2.43906394 C32.3209912,2.77564396 32.1124412,3.0046629 31.7952371,3.01605826 C31.4960965,3.02675878 31.2245983,2.779813 31.207356,2.48144912 C31.188061,2.14514704 31.4464222,1.88194202 31.792774,1.88527725 C32.1463785,1.88861248 32.3205807,2.07135514 32.3208544,2.43906394" id="Fill-49"></path>
                <path d="M47.2608138,2.57633457 C47.8394014,2.31044931 48.4643592,2.62184243 49.0113876,2.37789047 C49.0652322,2.0579926 48.9103423,2.00263714 48.6960711,2.00204031 C48.2210202,2.00084667 47.7459692,1.99398319 47.256938,1.98920859 L47.256938,0.481481007 C47.7022291,0.481481007 48.0913224,0.482823862 48.4805541,0.481182595 C48.8034836,0.47983974 49.1276588,0.493865113 49.4485119,0.464471513 C49.6129527,0.449252491 49.7535855,0.341525691 49.6463114,0.0407262049 C48.7414723,0.0178976724 47.8157319,-0.0477530091 46.9000962,0.0601229971 C46.7699831,0.806601087 46.7825792,3.91963704 46.921551,4.52451855 C47.7329579,4.52451855 48.5588988,4.52496616 49.3851165,4.52362331 C49.4302408,4.52362331 49.4946052,4.52720425 49.5170289,4.4990043 C49.5901137,4.40679494 49.6479724,4.3005602 49.7815459,4.08913516 C48.8671559,4.07406535 48.0731896,4.060786 47.2608138,4.04735746 L47.2608138,2.57633457 Z" id="Fill-40"></path>
            </g>
            <g id="Group-13">
                <path d="M9.52724863,19.6117349 C9.52430157,19.6218829 9.52177551,19.6305811 9.51882845,19.6411433 C9.52535409,19.6394865 9.53209023,19.6380368 9.53882638,19.6365871 C9.54387849,19.6264391 9.5491411,19.6164982 9.55440371,19.6065574 C9.54514151,19.6088355 9.53630032,19.6096639 9.52724863,19.6117349" id="Fill-51" fill="#000000"></path>
                <path d="M11.7913825,18.2469811 C11.2384285,18.2531463 10.684206,18.2711677 10.1329963,18.240974 C9.60018151,18.2117287 9.13729863,18.2898215 8.82284273,18.888638 C8.68726039,18.7205963 8.62398863,18.6423454 8.56087544,18.5640946 C9.53944697,17.7724174 11.0685938,17.5122137 12.339262,18.1809026 C12.100764,18.2107802 11.9463111,18.2452422 11.7913825,18.2469811 M21.5230234,18.0914279 C21.4833794,18.0566498 21.4476999,18.0176034 21.410276,17.9802959 C20.3061124,16.8811483 19.0264053,16.0844125 17.4986857,15.70786 C17.0568934,15.5990992 16.6209684,15.4669423 16.1823476,15.3455349 C16.3570982,15.1627915 16.5223342,15.1076207 16.6910589,15.0674678 C17.1756667,14.9523837 17.6734362,14.8790334 18.1445651,14.7244288 C18.9456902,14.4615376 19.5424111,13.8967088 20.0899735,13.2817679 C20.2157241,13.1404421 20.3118211,12.9709777 20.135009,12.7943995 C19.9420222,12.601855 19.7575985,12.6565516 19.5863366,12.8290196 C19.4377511,12.9785656 19.3002658,13.1398098 19.1453372,13.2822421 C18.3159856,14.0448321 17.3114076,14.318631 16.1964608,14.3845514 C16.172833,14.2176163 16.1509496,14.1164435 16.145558,14.0146383 C16.1078169,13.306903 16.11638,13.3310896 16.800952,13.1219464 C17.2503559,12.9845728 17.7084815,12.8189023 18.1031768,12.5715032 C19.2915441,11.8264604 20.0341548,10.8112545 19.9542326,9.32354012 C19.9147472,8.58782416 19.9445595,7.84847231 19.9418637,7.11085936 C19.9410708,6.87389369 19.9550255,6.63471487 19.9288605,6.4004366 C19.8958767,6.1059289 19.7176374,5.99448074 19.3782851,6.10102834 C19.3296023,6.24298643 19.2251009,6.41118621 19.2217708,6.58144106 C19.2057546,7.37090507 19.1545346,8.16732471 19.2327125,8.94951692 C19.3982657,10.6068539 18.4831245,11.9780615 16.8594664,12.3552463 C16.6460234,12.4048842 16.4108554,12.3620439 16.1931307,12.3620439 C16.0716617,11.2530951 16.1577683,11.0676643 17.0364371,10.6114383 C17.8794263,10.1735497 18.3078982,9.45996532 18.4476035,8.55067477 C18.4661569,8.42989974 18.4604481,8.28003753 18.4024094,8.18028747 C18.3465907,8.0843314 18.2152899,8.00102192 18.1041282,7.97983886 C18.0392707,7.96750843 17.9128858,8.07200096 17.8776819,8.15183262 C17.8050542,8.31671267 17.7761934,8.50056262 17.7271935,8.6760342 C17.5051873,9.47340233 17.0454759,10.0233713 16.1867877,10.177976 C15.9614514,10.2186032 15.7454711,10.3093426 15.5429698,10.371469 C15.4858825,10.6379961 15.4040574,10.8435034 15.4043745,11.0488525 C15.406436,12.2855319 15.4148405,13.5225275 15.4484586,14.7587327 C15.461779,15.2432555 15.494287,15.242307 14.9990547,15.3877429 C14.4870133,15.5382375 14.4570424,15.6572736 14.8412717,16.1517557 C14.7231327,16.1723064 14.6156183,16.1707256 14.5264986,16.2102462 C14.0927937,16.4027907 14.0729717,16.5890118 14.436269,16.9454879 C14.4751201,16.9837439 14.5079453,17.028007 14.5504436,17.0773287 C13.3048304,17.7800054 12.6356403,17.7686235 11.7641075,17.0404955 C12.1256604,16.7703325 12.4926049,16.5156616 12.836873,16.2333262 C13.1676622,15.9617405 13.639584,15.8196243 13.7691404,15.274872 C13.0084521,14.7721697 12.2290518,14.5674528 11.397163,15.0176718 C10.950772,15.2593799 10.5809731,15.2483142 10.1477439,14.9860553 C9.4709422,14.5759893 8.77526998,14.7220575 8.10893429,15.0541888 C7.85204142,15.1820776 7.80113858,15.4195175 7.97351052,15.637039 C8.07040036,15.7590787 8.19377237,15.8654682 8.32031589,15.9581046 C8.72373283,16.2535608 9.13840866,16.5339991 9.53960554,16.8323008 C9.65203581,16.9159265 9.73322665,17.0411278 9.86754039,17.1901996 C9.2497289,17.3878027 8.70549661,17.5616935 8.2323063,17.7129784 C7.82999938,17.453407 7.50079593,17.2411022 7.16413942,17.0238968 C7.20378338,17.0011329 7.26071211,16.9641416 7.3211295,16.934264 C7.50222312,16.8449474 7.63479252,16.7205365 7.56660491,16.5019084 C7.49556293,16.2744277 7.29781885,16.2978239 7.10974791,16.2956107 C6.85777089,16.2927652 6.59723078,16.4370946 6.26596585,16.2091396 C6.58311753,16.1062279 6.83699746,16.0237088 7.13020419,15.9285432 C7.09420747,15.742322 7.0624923,15.5771258 7.03379008,15.428212 C6.7237743,15.3920112 6.46862577,15.3622916 6.18318926,15.3290943 C6.16542876,15.0816952 6.13862945,14.8765041 6.13799514,14.6709969 C6.13529935,13.5909772 6.13799514,12.5109576 6.14148381,11.4307799 C6.14243527,11.114931 6.17145464,10.7943397 5.90964593,10.5338197 C5.71776916,10.478807 5.51891505,10.4108316 5.31482794,10.36562 C4.53844062,10.1937843 4.06287166,9.73487079 3.91460325,8.94667144 C3.88066802,8.76677355 3.82278784,8.59098581 3.77093354,8.41488191 C3.71083329,8.20953274 3.56272346,8.07753385 3.36117356,8.15183262 C3.23859443,8.19688614 3.13726447,8.35212315 3.07288268,8.48096039 C3.03450733,8.55747232 3.0812872,8.67967009 3.09888912,8.77973632 C3.26460087,9.71763979 3.72716661,10.4234782 4.62280297,10.8404998 C5.38777283,11.1966597 5.59249424,11.8236149 5.27454968,12.6409014 C3.27522545,12.4984691 2.24321387,10.9397756 2.33804222,9.22284157 C2.38291919,8.40855861 2.35152117,7.58984933 2.34533671,6.77319514 C2.34121374,6.21959022 2.22545338,5.98452154 1.96634045,6.04095699 C1.60351892,6.12015633 1.64252858,6.42699446 1.64300431,6.72671888 C1.64522437,7.7256422 1.60637329,8.72456552 1.60336035,9.72348885 C1.59923737,11.0577052 2.24812972,12.0371843 3.36656514,12.6959141 C3.83468103,12.97161 4.38113338,13.1162555 4.89380908,13.3154394 C5.03636876,13.3707683 5.18622293,13.4074434 5.34955605,13.4580298 C5.368268,13.6357146 5.40616763,13.7906354 5.3964945,13.9423946 C5.37128094,14.3322261 5.20604491,14.4922056 4.84036902,14.4063668 C3.88732821,14.1823639 2.94681488,13.9152044 2.24257957,13.1658934 C2.13427227,13.0504932 2.03262515,12.9271888 1.91385185,12.8234867 C1.64474864,12.5887342 1.56799793,12.6148178 1.27526693,13.0229868 C1.30904358,13.0863779 1.33552575,13.1622575 1.3830985,13.2216965 C2.26874458,14.3273255 3.41635795,14.9440053 4.83370884,15.0690486 C5.01638821,15.085173 5.27994126,14.9718279 5.36906088,15.3542294 C5.01178951,15.4764272 4.65594532,15.6474725 4.28107202,15.717503 C2.68278611,16.0159628 1.42734116,16.8966404 0.294316764,17.9934168 C0.169517576,18.1141918 0.0867409859,18.2778072 0,18.3998469 C0.149378444,18.7183831 0.342840972,18.7934723 0.596403744,18.6276438 C0.705028196,18.5565066 0.789549121,18.4493267 0.886756112,18.3604843 C1.99409122,17.3482821 3.2414488,16.5973902 4.73491609,16.3013017 C4.98499019,16.2516638 5.22221965,16.0697108 5.50733902,16.2496087 C5.54571437,16.3547336 5.58916415,16.4729793 5.64942297,16.6377013 C5.40299611,16.7785528 5.1851129,16.9192462 4.95359217,17.0324333 C4.11155445,17.4445543 3.37211529,17.9777666 2.8272487,18.7544259 C2.63172468,19.0331254 2.39100656,19.2854251 2.23401647,19.5829363 C2.17011041,19.7041856 2.21562167,19.9794072 2.31536588,20.0674592 C2.4707702,20.2045167 2.65503533,20.0859548 2.77254003,19.9125383 C2.89067904,19.7384895 3.02182126,19.5732933 3.13869165,19.398296 C3.82770369,18.3669657 4.92314561,17.8988834 5.97450345,17.2893173 C6.15845143,17.4922953 6.30735414,17.656543 6.42485884,17.7863287 C6.00907298,18.3476797 5.61374341,18.8397905 5.26566943,19.3630436 C4.94312617,19.8478826 4.74379633,20.3926349 4.70018798,20.9805437 C4.67862166,21.2741029 4.76250828,21.4990543 5.17290256,21.4916244 C5.24315166,21.3008189 5.32909977,21.1125426 5.3820641,20.9152556 C5.5756852,20.1931348 5.93644525,19.5519522 6.3660272,18.9521871 C6.5295189,18.7240741 6.75818526,18.5250482 6.99478042,18.3699693 C7.36172492,18.1295258 7.52458231,18.1948139 7.76593474,18.5661497 C8.00792148,18.9379597 8.26021564,19.3032884 8.51266839,19.6681428 C8.71532831,19.9612278 8.99886192,20.0292032 9.32885825,19.9533236 C9.60367018,18.9822228 9.61223328,18.9809582 10.6306073,18.9831713 C10.7355845,18.9833294 10.8404032,18.9866491 10.9452218,18.9839617 C11.9291849,18.9578781 11.9380652,18.9588266 12.1957509,19.9534817 C12.578553,20.0143435 12.9126723,19.9427321 13.1454616,19.5955829 C13.363662,19.2704072 13.5975614,18.9545584 13.7973669,18.618475 C14.0650429,18.1684141 14.3111526,18.0805202 14.7610323,18.3506832 C14.9376858,18.4567566 15.0992746,18.6006117 15.238187,18.7539517 C15.7805164,19.3529263 16.0800662,20.0799477 16.3126969,20.8400084 C16.3656613,21.0131087 16.4041952,21.2012269 16.5034637,21.3455562 C16.5621367,21.4309208 16.7429132,21.5001609 16.8396445,21.4732869 C16.9385958,21.4457805 17.0272397,21.3019254 17.0730681,21.1898449 C17.1092234,21.1014768 17.0913043,20.9797533 17.0673594,20.8798452 C16.9013305,20.1852307 16.6728227,19.5179644 16.2013767,18.9581943 C15.8651959,18.5591941 15.5377368,18.152922 15.1934686,17.7340034 C15.3980315,17.4429735 15.5935555,17.1524179 15.9650987,17.3678843 C17.0580034,18.0016371 18.1851605,18.6021925 18.845946,19.758566 C18.9095349,19.8698561 18.99025,19.9974286 19.0966544,20.0511767 C19.1949715,20.1006565 19.3690877,20.1057152 19.4531329,20.0481731 C19.5374953,19.9906311 19.6034628,19.8216409 19.5841166,19.7188873 C19.5565244,19.5721867 19.4544015,19.4343388 19.3659162,19.3050273 C18.6523249,18.2629474 17.7631902,17.4328562 16.5765671,16.9337898 C16.0304319,16.7040959 15.8867622,16.503015 16.0160015,16.3190069 C16.2321404,16.0112203 16.5515122,16.1514395 16.8126866,16.2149887 C18.3228043,16.5820562 19.6816407,17.2428411 20.8041991,18.3393013 C20.8985517,18.4314634 20.9898914,18.5294745 21.0962958,18.6056703 C21.2961014,18.748735 21.5835994,18.7375111 21.6616187,18.580219 C21.7577156,18.3868841 21.6757319,18.2250076 21.5230234,18.0914279" id="Fill-53" fill="#FFFFFF"></path>
                <path d="M7.35710281,5.54062283 C8.65385537,5.62729636 10.0802361,6.29331402 10.4766624,7.76478729 C10.5798935,8.14827965 10.5883783,8.56248789 10.5921493,8.96285878 C10.6047193,10.3056903 10.5883783,11.6488259 10.5990628,12.9916574 C10.6020482,13.3715003 10.7519454,13.564615 10.9709776,13.5734345 C11.2003801,13.5828621 11.3285941,13.393853 11.344778,13.0144662 C11.3502774,12.8879533 11.3457207,12.7611362 11.3457207,12.6344712 C11.3458779,11.2913356 11.3526342,9.94819998 11.3446209,8.60521642 C11.3364504,7.24155287 12.1110766,6.24343873 13.4334405,5.81250401 C14.0644545,5.60692048 14.7022248,5.53514872 15.3585359,5.53378019 C15.4295564,5.53362813 15.5004198,5.48694607 15.6108787,5.44786695 C15.5964232,5.28425165 15.5821248,5.12352547 15.5664123,4.94561665 C13.641474,4.78093694 12.0717953,5.290334 10.9826049,6.9001808 C9.85649006,5.39099695 8.42225313,4.70049782 6.50281422,4.95245929 C6.49354385,5.13128047 6.48521622,5.29383136 6.47280335,5.53803783 C6.83874745,5.53803783 7.09910357,5.52328813 7.35710281,5.54062283" id="Fill-55" fill="#FFFFFF"></path>
                <path d="M7.8826808,8.52357563 C7.93233715,8.74298228 7.92796066,8.97451922 7.92829731,9.2004459 C7.93065389,10.6615395 7.92577241,12.1226331 7.92930727,13.5838784 C7.92964393,13.7013906 7.97492379,13.8189028 8.00236103,13.9508197 L8.74619637,13.9508197 C8.74619637,12.1628147 8.77700014,10.4751879 8.73609677,8.78892576 C8.70596631,7.55406209 7.70728446,6.50145604 6.3601665,6.1947113 C5.26048868,5.94452404 4.13892839,6.0491478 3.02527946,6.08660008 C2.90509425,6.09069405 2.73323277,6.23261846 2.68744793,6.34436877 C2.60665115,6.54178926 2.75696683,6.68538159 2.97107829,6.7293539 C3.18619971,6.77347783 3.40956914,6.7992547 3.62990869,6.8035003 C4.30102693,6.81638874 4.97332346,6.79576724 5.64326342,6.82351528 C6.81565834,6.87188482 7.65409325,7.51342561 7.8826808,8.52357563" id="Fill-57" fill="#FFFFFF"></path>
                <path d="M12.3049964,21.9481428 C11.3158667,22.280241 10.3165463,22.3244989 9.33008187,21.915687 C8.93138845,21.7504575 8.6004243,21.5027771 8.43455028,21.0644599 C8.28200262,20.6610573 8.11957777,20.2619166 7.96797079,19.8581861 C7.80680019,19.4295401 7.66052376,18.9945013 7.49276837,18.5686419 C7.42158991,18.3880041 7.29930093,18.2221189 7.07698584,18.303914 C6.87191663,18.3793164 6.82786125,18.5671666 6.86595897,18.7730478 C6.88539978,18.8782833 6.92396784,18.9804043 6.95908673,19.0820336 C7.18798661,19.7449187 7.44071716,20.3999357 7.64171007,21.0720002 C7.83423682,21.7147233 8.22822682,22.1492704 8.78103572,22.4476015 C10.178736,23.2021168 11.5869406,23.1742507 12.9650433,22.4218663 C13.319211,22.2284429 13.7243325,21.9251943 13.8696682,21.5673609 C14.2536243,20.6230283 14.5195244,19.6246027 14.8075306,18.6397824 C14.911633,18.2832604 14.850175,18.2394942 14.2907813,18.0983607 C14.1747635,18.3819391 14.0394618,18.6701072 13.9375543,18.9707332 C13.7210401,19.6090305 13.5252209,20.2551959 13.3141941,20.8956242 C13.2237316,21.1706789 13.1807736,21.495073 12.8121821,21.535069 L12.8367967,21.507039 L12.8366399,21.507039 C12.8292712,21.5093339 12.8219025,21.5117926 12.8145338,21.5142514 C12.8139067,21.519169 12.8135932,21.5239226 12.812966,21.5288401 C12.6467784,21.6788252 12.4973664,21.883559 12.3049964,21.9481428" id="Fill-59" fill="#FFFFFF"></path>
                <path d="M18.2095077,6.11266826 C17.2856634,5.97941717 15.6606389,6.01789852 14.9171383,6.19068731 C13.6635128,6.48208919 12.7509071,7.41861952 12.6771541,8.52326051 C12.6204346,9.37407553 12.5698611,10.2265505 12.5651198,11.0784219 C12.5607297,11.9047899 12.6114788,12.7317616 12.654677,13.5578278 C12.6617011,13.6919844 12.7556484,13.822821 12.8076267,13.9506394 C13.2975574,13.9580338 13.3800905,13.7372566 13.3776321,13.4179368 C13.3683252,12.1367344 13.3739444,10.8556828 13.3760517,9.57448034 C13.3764029,9.3233707 13.3674472,9.07075198 13.3946655,8.82145322 C13.5102119,7.76268802 14.2208748,6.98038489 15.2688699,6.80020165 C15.7517765,6.71720267 16.2510141,6.69577384 16.7444569,6.66845963 C17.12288,6.64733261 17.5051664,6.67600499 17.8837652,6.65517979 C18.3282149,6.63088372 18.3271613,6.61805661 18.2095077,6.11266826" id="Fill-61" fill="#FFFFFF"></path>
                <path d="M6.52182426,8.85897696 C5.86619944,8.86381726 5.80631867,8.81121937 5.59353304,8.08017328 C5.81564893,7.68246226 6.09917742,7.92447708 6.31307711,8.04709792 C6.59925149,8.21134531 6.59437748,8.54032412 6.52182426,8.85897696 M7.2181123,8.63874348 C7.19680589,7.86123054 6.8318117,7.35687166 6.18802377,7.23876843 C5.53142415,7.11824506 4.86410169,7.16680936 4.18828452,7.22166605 L4.18828452,7.81879728 C4.74071945,7.7647473 4.99012983,8.08275477 5.09624413,8.66649451 C5.19121781,9.18795577 5.56164305,9.44303938 5.98693579,9.57066186 C6.14011916,9.61648334 6.30221501,9.62213035 6.56610818,9.66230481 C6.56610818,10.2583066 6.56123417,10.7913846 6.5683363,11.3243012 C6.57153923,11.5635732 6.58267984,11.8060721 6.62014013,12.0406651 C6.65453676,12.2567036 6.74547198,12.5001705 6.97162634,12.4304703 C7.08010801,12.3969109 7.14333097,12.1626405 7.22396112,12.0169476 C7.23468396,11.9974251 7.22772108,11.9643497 7.22772108,11.9375668 C7.22702479,10.8378514 7.24819195,9.7373294 7.2181123,8.63874348" id="Fill-63" fill="#FFFFFF"></path>
                <path d="M12.2085189,19.6370013 C12.2125185,19.6388652 12.2163076,19.6407291 12.2203072,19.642593 C12.2173601,19.6309953 12.2146236,19.6212616 12.2116765,19.609871 C12.2024143,19.6084213 12.1935731,19.6080071 12.1841004,19.6065574 C12.1925206,19.6164982 12.2003093,19.6268533 12.2085189,19.6370013" id="Fill-65" fill="#000000"></path>
                <path d="M12.2839521,21.1512085 C11.5914709,21.2954461 10.8950262,21.3361285 10.1987465,21.1608812 C9.97034171,21.103556 9.81493394,21.0089623 9.90180375,20.7155085 C10.7825578,21.1364149 11.6496043,21.1641529 12.5359736,20.688055 C12.6410101,21.0271698 12.4718947,21.1120908 12.2839521,21.1512085 M11.9833759,19.8583331 C11.7410984,20.3524963 11.3159979,20.4180718 10.7812366,20.2992962 C10.6572077,20.0765387 10.5316924,19.8510785 10.3956074,19.6065574 C10.1359889,19.6584772 9.90857497,19.703996 9.68182166,19.7493725 C9.55135181,19.9711343 9.40981679,20.1887709 9.29536665,20.416507 C8.96588899,21.0716929 9.14673011,21.4746763 9.90692345,21.68833 C10.2629905,21.7883291 10.6489501,21.8193387 11.0246702,21.855896 C11.8340788,21.9345581 12.5569478,21.6372637 13.302773,21.4433821 C13.4150761,20.7860626 13.1143349,20.2460961 12.6560389,19.7510795 C12.4010446,19.6445371 12.1273882,19.564168 11.9833759,19.8583331" id="Fill-67" fill="#FFFFFF"></path>
                <path d="M15.9802318,7.58448172 C15.9739791,8.28564592 15.7865371,8.45871809 15.1190266,8.37945073 C15.039131,7.64385573 15.2311584,7.46665185 15.9802318,7.58448172 M16.6141166,7.85334804 C16.6478812,7.58647105 16.8422707,7.43206802 17.1091915,7.40054471 C17.2507804,7.3838649 17.3858387,7.30169005 17.5146444,7.25256877 C17.466707,6.94085522 17.325257,6.8126196 17.1239201,6.80833488 C16.6152282,6.7977761 16.1002836,6.75722426 15.5988171,6.8262389 C14.7745723,6.93978404 14.4895881,7.33183613 14.4776385,8.2594785 C14.4645773,9.25322802 14.46819,10.2474366 14.4730532,11.2414922 C14.473748,11.3854895 14.5218243,11.5291807 14.544473,11.6531316 C14.7959704,11.7398972 14.9593743,11.6685872 15.0042548,11.4231338 C15.0401036,11.2264957 15.0299604,11.0183806 15.031072,10.8153154 C15.0341288,10.2849279 15.0321835,9.75454053 15.0321835,9.26944876 C15.161545,9.17870446 15.2175414,9.10693536 15.2778452,9.10219156 C16.0027415,9.04526597 16.5042081,8.7245239 16.6141166,7.85334804" id="Fill-69" fill="#FFFFFF"></path>
                <path d="M7.45114245,3.71313744 C7.69008375,3.705964 7.92998401,3.69131186 8.16796634,3.70474299 C9.06427589,3.75495708 9.89601536,3.95566082 10.5207789,4.64034292 C10.6176341,4.74641828 10.7651543,4.81021612 10.9013269,4.90163934 C11.0293483,4.79510611 11.1356332,4.71970866 11.2257756,4.62950644 C11.6979044,4.15697506 12.2379597,3.81509189 12.9464726,3.77571427 C13.420839,3.74915727 13.8947259,3.71664785 14.3682932,3.68062801 C14.5178912,3.66933366 14.6657311,3.63804524 14.8124523,3.61621967 C14.8298734,3.50022359 14.8557654,3.42528402 14.8479338,3.35385486 C14.8401023,3.28273095 14.7987071,3.21496482 14.7533163,3.09790036 C13.4641521,2.97503609 12.2592167,3.00082996 11.1954085,3.73923656 C10.9395255,3.91689371 10.7076166,3.85630102 10.4705933,3.68139115 C9.54103969,2.9953354 8.45613434,2.97656236 7.35524628,3.04020757 C7.10112143,3.05501233 6.87017148,3.11163673 6.85418878,3.41429492 C6.84188211,3.64811859 7.00810214,3.72641594 7.45114245,3.71313744" id="Fill-71" fill="#FFFFFF"></path>
                <path d="M2.06462886,0.676288342 C2.18708313,0.775419562 2.33128162,0.851662451 2.47073889,0.930379754 C3.12273842,1.29860352 3.77964266,1.65909475 4.42771842,2.03350455 C4.59938329,2.13279042 4.74521668,2.27197622 4.92423862,2.40915156 C4.70385362,2.65411857 4.52515867,2.84526707 4.35529219,3.04306556 C3.90373184,3.56872394 3.61468089,4.17418217 3.41849247,4.81876708 C3.36682952,4.98841911 3.35914547,5.19132108 3.61010316,5.25859421 C3.82165968,5.31550574 3.98008183,5.25395469 4.05561437,5.04285622 C4.09027433,4.94604476 4.13981191,4.85418213 4.17692422,4.75814393 C4.49131616,3.9448349 4.97671902,3.2489059 5.70277968,2.70685453 C5.83913063,2.60509424 5.92594401,2.44394801 6.09205021,2.2412007 C4.81519055,1.36989758 3.4771855,0.717270828 2.16059769,0 C1.84375339,0.283629732 1.8300202,0.486222398 2.06462886,0.676288342" id="Fill-76" fill="#FFFFFF"></path>
                <path d="M9.50825785,1.88245781 C10.1697995,1.92823504 10.5057992,2.4256719 11.0723771,2.63934426 C11.1727385,2.56830126 11.2628107,2.5173622 11.3333166,2.45270356 C11.8497982,1.97863074 12.5106651,1.78397563 13.2784717,1.79131086 C13.4749776,1.79307674 13.6714834,1.7951143 13.8679893,1.79606517 C14.1208325,1.79742354 14.4209045,1.82581358 14.4645912,1.55115018 C14.5089527,1.27227583 14.1770011,1.25665452 13.9555314,1.18819243 C13.8295315,1.14907123 13.6817726,1.15314636 13.5431221,1.14295855 C12.9097491,1.09650213 12.274352,1.18452482 11.7649548,1.45266801 C11.1966902,1.75191798 10.7571243,1.69717548 10.2178717,1.44587614 C9.50033015,1.11144425 8.69187296,1.19892359 7.91343985,1.26548396 C7.60307865,1.2921081 7.54319918,1.50075448 7.69500629,1.74716367 C8.29599376,1.79226172 8.90170412,1.84034819 9.50825785,1.88245781" id="Fill-78" fill="#FFFFFF"></path>
                <path d="M15.9076772,2.71846462 C16.5704377,3.23292309 17.0072881,3.9025063 17.2973119,4.68615636 C17.3416169,4.80562556 17.396658,4.92123594 17.4394509,5.0411682 C17.5121836,5.2456859 17.6479717,5.32054709 17.8508977,5.25633625 C18.0645597,5.1885753 18.1224737,5.01122373 18.0529164,4.82939592 C17.889759,4.40245559 17.7311381,3.96687149 17.5056815,3.57373446 C17.2685817,3.16037719 16.9558761,2.79224534 16.6331905,2.34462171 C17.0570367,2.07573882 17.457445,1.81827806 17.8613313,1.56668271 C18.3111858,1.28653206 18.7711715,1.02274282 19.2105925,0.726693812 C19.318104,0.654147913 19.4210791,0.482353051 19.4183573,0.358561964 C19.4159379,0.244958173 19.2683553,0.134595795 19.1677996,0 C18.0727251,0.660630738 17.0151511,1.29594759 15.9606013,1.93620373 C15.5149806,2.20663015 15.4929037,2.39648431 15.9076772,2.71846462" id="Fill-73" fill="#FFFFFF"></path>
            </g>
        </g>
    </g>
</svg>