<?xml version="1.0" encoding="UTF-8"?>
<svg width="80px" height="76px" viewBox="0 0 80 76" version="1.1" xmlns="http://www.w3.org/2000/svg" xmlns:xlink="http://www.w3.org/1999/xlink">
    <!-- Generator: Sketch 46.1 (44463) - http://www.bohemiancoding.com/sketch -->
    <title>Artboard</title>
    <desc>Created with Sketch.</desc>
    <defs></defs>
    <g id="Page-1" stroke="none" stroke-width="1" fill="none" fill-rule="evenodd">
        <g id="Artboard" fill-rule="nonzero" fill="#7B6851">
            <g id="Group-Copy-9" transform="translate(19.000000, 17.000000)">
                <g id="Group">
                    <path d="M20.7109375,41.421875 C9.27260216,41.421875 0,32.1492728 0,20.7109375 C0,9.27260216 9.27260216,0 20.7109375,0 C32.1492728,0 41.421875,9.27260216 41.421875,20.7109375 C41.421875,32.1492728 32.1492728,41.421875 20.7109375,41.421875 Z M11.1520433,23.8972356 C12.9117863,23.8972356 14.3383413,22.4706805 14.3383413,20.7109375 C14.3383413,18.9511945 12.9117863,17.5246394 11.1520433,17.5246394 C9.39230023,17.5246394 7.96574519,18.9511945 7.96574519,20.7109375 C7.96574519,22.4706805 9.39230023,23.8972356 11.1520433,23.8972356 Z M20.7109375,23.8972356 C22.4706805,23.8972356 23.8972356,22.4706805 23.8972356,20.7109375 C23.8972356,18.9511945 22.4706805,17.5246394 20.7109375,17.5246394 C18.9511945,17.5246394 17.5246394,18.9511945 17.5246394,20.7109375 C17.5246394,22.4706805 18.9511945,23.8972356 20.7109375,23.8972356 Z M30.2698317,23.8972356 C32.0295748,23.8972356 33.4561298,22.4706805 33.4561298,20.7109375 C33.4561298,18.9511945 32.0295748,17.5246394 30.2698317,17.5246394 C28.5100887,17.5246394 27.0835337,18.9511945 27.0835337,20.7109375 C27.0835337,22.4706805 28.5100887,23.8972356 30.2698317,23.8972356 Z" id="Shape"></path>
                </g>
            </g>
        </g>
    </g>
</svg>