<?xml version="1.0" encoding="UTF-8"?>
<svg width="80px" height="76px" viewBox="0 0 80 76" version="1.1" xmlns="http://www.w3.org/2000/svg" xmlns:xlink="http://www.w3.org/1999/xlink">
    <!-- Generator: Sketch 46.1 (44463) - http://www.bohemiancoding.com/sketch -->
    <title>Artboard</title>
    <desc>Created with Sketch.</desc>
    <defs>
        <polygon id="path-1" points="22.500009 0 45 0 45 14.1818182 1.80722892e-05 14.1818182 1.80722892e-05 0"></polygon>
    </defs>
    <g id="Page-1" stroke="none" stroke-width="1" fill="none" fill-rule="evenodd">
        <g id="Artboard">
            <g id="Page-1-Copy-2" transform="translate(18.000000, 17.000000)">
                <g id="Group-3">
                    <mask id="mask-2" fill="white">
                        <use xlink:href="#path-1"></use>
                    </mask>
                    <g id="Clip-2"></g>
                    <path d="M40.2515241,12.3540909 C39.8178795,12.551 39.1868855,12.0874545 38.8421566,11.3188182 C38.4973373,10.5501818 38.5694458,9.76754545 39.0030904,9.57063636 C39.4365542,9.37381818 40.0676386,9.83727273 40.4123675,10.6059091 C40.7571867,11.3745455 40.6851687,12.1571818 40.2515241,12.3540909 M36.2130904,7.43772727 C35.6653193,8.07609091 34.929506,8.34 34.5693253,8.02727273 C34.2092349,7.71454545 34.3612229,6.94354545 34.908994,6.30518182 C35.4566747,5.66690909 36.1925783,5.403 36.5526687,5.71572727 C36.9128494,6.02836364 36.7606807,6.79936364 36.2130904,7.43772727 M33.0776386,3.78409091 C32.9916145,4.25481818 32.2535422,4.51272727 31.4291747,4.36009091 C30.6048976,4.20754545 30.0064337,3.70227273 30.0924578,3.23154545 C30.1785723,2.76081818 30.9166446,2.50290909 31.7409217,2.65554545 C32.5652892,2.80818182 33.163753,3.31345455 33.0776386,3.78409091 M32.8243554,11.7782727 C32.5134217,12.1405455 31.7470663,11.9875455 31.1125482,11.4365455 C30.4781205,10.8855455 30.2157108,10.1451818 30.5266446,9.78281818 C30.837488,9.42054545 31.6038434,9.57354545 32.2382711,10.1245455 C32.8727892,10.6756364 33.1351084,11.416 32.8243554,11.7782727 M27.7054699,7.60563636 C26.9954096,8.05363636 26.2148675,8.08827273 25.9620361,7.68281818 C25.7092952,7.27736364 26.0799578,6.58536364 26.7900181,6.13736364 C27.5000783,5.68927273 28.2806205,5.65472727 28.5333614,6.06018182 C28.7861928,6.46563636 28.4155301,7.15745455 27.7054699,7.60563636 M22.5415843,11.9134545 C21.6722169,11.9939091 20.9306205,11.6566364 20.885259,11.1602727 C20.8398976,10.6638182 21.5078494,10.1961818 22.3772169,10.1157273 C23.2466747,10.0353636 23.9881807,10.3726364 24.0335422,10.869 C24.0788133,11.3654545 23.4109518,11.833 22.5415843,11.9134545 M18.7737831,7.68281818 C18.5211325,8.08827273 17.7405,8.05363636 17.0305301,7.60563636 C16.3203795,7.15745455 15.9498072,6.46563636 16.2024578,6.06018182 C16.4552892,5.65472727 17.2358313,5.68927273 17.9458916,6.13736364 C18.6559518,6.58536364 19.0266145,7.27736364 18.7737831,7.68281818 M13.3067349,4.36009091 C12.4823675,4.51272727 11.7443855,4.25481818 11.6581807,3.78409091 C11.5721566,3.31345455 12.1706205,2.80818182 12.9948976,2.65554545 C13.8192651,2.50290909 14.5573373,2.76081818 14.6434518,3.23154545 C14.7295663,3.70227273 14.1311024,4.20754545 13.3067349,4.36009091 M13.6232711,11.4365455 C12.9888434,11.9875455 12.222488,12.1405455 11.9116446,11.7782727 C11.6008012,11.416 11.8631205,10.6756364 12.4975482,10.1245455 C13.1320663,9.57354545 13.8984217,9.42054545 14.2093554,9.78281818 C14.5201084,10.1451818 14.2577892,10.8855455 13.6232711,11.4365455 M10.1666747,8.02727273 C9.80649398,8.34 9.07059036,8.07609091 8.52290964,7.43772727 C7.97522892,6.79936364 7.8231506,6.02836364 8.18324096,5.71572727 C8.54333133,5.403 9.27923494,5.66690909 9.82700602,6.30518182 C10.3745964,6.94354545 10.5267651,7.71454545 10.1666747,8.02727273 M5.89375301,11.3188182 C5.5490241,12.0874545 4.91803012,12.551 4.48438554,12.3540909 C4.05083133,12.1571818 3.97872289,11.3745455 4.32345181,10.6059091 C4.66827108,9.83727273 5.29926506,9.37381818 5.73290964,9.57063636 C6.16655422,9.76754545 6.23857229,10.5501818 5.89375301,11.3188182 M21.5979398,3.381 C21.6326386,2.53854545 22.0460422,1.87154545 22.5214337,1.89136364 C22.9967349,1.91118182 23.3539337,2.61027273 23.3192349,3.45272727 C23.2845361,4.29536364 22.8710422,4.96227273 22.395741,4.94245455 C21.9205301,4.92263636 21.5633313,4.22354545 21.5979398,3.381 M22.5000181,0 C10.0736024,0 1.80722892e-05,4.86381818 1.80722892e-05,10.8636364 C1.80722892e-05,12.021 0.376283133,13.1357273 1.07043976,14.1818182 L43.929506,14.1818182 C44.623753,13.1357273 45.0000181,12.021 45.0000181,10.8636364 C45.0000181,4.86381818 34.9263434,0 22.5000181,0" id="Fill-1" fill="#7B6851" mask="url(#mask-2)"></path>
                </g>
                <path d="M37.4304669,23.5915273 C37.085738,24.3601636 36.4546536,24.8237091 36.0210994,24.6268 C35.5874548,24.4299818 35.5154367,23.6472545 35.860256,22.8786182 C36.2048946,22.1100727 36.8359789,21.6465273 37.2696235,21.8434364 C37.7032681,22.0402545 37.7751958,22.8228909 37.4304669,23.5915273 L37.4304669,23.5915273 Z M35.9347139,32.7496182 C35.8026958,33.2094364 35.0429367,33.3926182 34.2376355,33.1585273 C33.4324247,32.9246182 32.8866416,32.3622545 33.0186596,31.9023455 C33.1505873,31.4425273 33.9104367,31.2595273 34.7156476,31.4934364 C35.5208584,31.7274364 36.0667319,32.2898909 35.9347139,32.7496182 L35.9347139,32.7496182 Z M33.2663404,39.6464364 C32.4287801,39.6115273 31.7658886,39.1956182 31.7855873,38.7173455 C31.8052861,38.2391636 32.5000753,37.8798 33.3376355,37.9147091 C34.1751054,37.9496182 34.8380873,38.3656182 34.8182982,38.8437091 C34.7985994,39.3219818 34.1038102,39.6812545 33.2663404,39.6464364 L33.2663404,39.6464364 Z M30.7379367,27.1190727 C30.3150452,26.2934364 30.349744,25.4283455 30.8155572,25.1868909 C31.2812801,24.9453455 32.0017319,25.4188909 32.4248042,26.2445273 C32.8476054,27.0701636 32.8129066,27.9352545 32.3470934,28.1768 C31.8813705,28.4182545 31.1609187,27.9447091 30.7379367,27.1190727 L30.7379367,27.1190727 Z M29.7838102,21.4238 C29.07375,21.8718 28.2932078,21.9064364 28.0403765,21.5009818 C27.7876355,21.0955273 28.1582982,20.4036182 28.8683584,19.9555273 C29.5784187,19.5074364 30.3589608,19.4728909 30.6117018,19.8783455 C30.8645331,20.2838 30.4937801,20.9757091 29.7838102,21.4238 L29.7838102,21.4238 Z M28.717997,34.6184364 C28.5230873,35.4386182 27.9899548,36.0132545 27.5273042,35.9018909 C27.0646536,35.7905273 26.8476054,35.0355273 27.0425151,34.2153455 C27.2374247,33.3952545 27.7706476,32.8206182 28.2332982,32.9319818 C28.6959488,33.0432545 28.912997,33.7983455 28.717997,34.6184364 L28.717997,34.6184364 Z M22.3682982,22.5801636 C21.8925452,22.5801636 21.5068825,21.8965273 21.5068825,21.0532545 C21.5068825,20.2100727 21.8925452,19.5264364 22.3682982,19.5264364 C22.8439608,19.5264364 23.2296235,20.2100727 23.2296235,21.0532545 C23.2296235,21.8965273 22.8439608,22.5801636 22.3682982,22.5801636 L22.3682982,22.5801636 Z M21.5060693,29.1363455 C21.5060693,28.3078909 21.8848645,27.6363455 22.3523042,27.6363455 C22.8196536,27.6363455 23.1984488,28.3078909 23.1984488,29.1363455 C23.1984488,29.9648 22.8196536,30.6363455 22.3523042,30.6363455 C21.8848645,30.6363455 21.5060693,29.9648 21.5060693,29.1363455 L21.5060693,29.1363455 Z M22.364503,38.5454364 C21.8902861,38.5454364 21.5060693,37.8641636 21.5060693,37.0238 C21.5060693,36.1834364 21.8902861,35.5021636 22.364503,35.5021636 C22.8386295,35.5021636 23.2229367,36.1834364 23.2229367,37.0238 C23.2229367,37.8641636 22.8386295,38.5454364 22.364503,38.5454364 L22.364503,38.5454364 Z M17.2126355,35.2655273 C16.7498946,35.3768909 16.216762,34.8022545 16.0218524,33.9820727 C15.8269428,33.1619818 16.0439006,32.4068909 16.5066416,32.2956182 C16.9692922,32.1842545 17.5024247,32.7588909 17.6973343,33.5789818 C17.892244,34.3991636 17.6752861,35.1541636 17.2126355,35.2655273 L17.2126355,35.2655273 Z M14.1281476,19.2419818 C14.3809789,18.8365273 15.1615211,18.8710727 15.871491,19.3191636 C16.5815512,19.7672545 16.9523042,20.4591636 16.6994729,20.8646182 C16.4466416,21.2700727 15.6661898,21.2354364 14.9561295,20.7874364 C14.2460693,20.3393455 13.8754066,19.6474364 14.1281476,19.2419818 L14.1281476,19.2419818 Z M14.002003,26.4827091 C13.5790211,27.3083455 12.8584789,27.7818909 12.392756,27.5404364 C11.9270331,27.2988909 11.892244,26.4338 12.3152259,25.6081636 C12.7381175,24.7825273 13.4585693,24.3089818 13.9243825,24.5505273 C14.3901958,24.7919818 14.4248946,25.6570727 14.002003,26.4827091 L14.002003,26.4827091 Z M11.4735994,39.0100727 C10.6361295,39.0448909 9.94125,38.6856182 9.9215512,38.2073455 C9.90194277,37.7292545 10.5648343,37.3132545 11.4023042,37.2783455 C12.2397741,37.2434364 12.9345633,37.6028 12.954262,38.0809818 C12.9739608,38.5592545 12.3110693,38.9751636 11.4735994,39.0100727 L11.4735994,39.0100727 Z M8.80513554,32.1132545 C8.67320783,31.6535273 9.21899096,31.0910727 10.0242018,30.8570727 C10.829503,30.6231636 11.589262,30.8061636 11.7212801,31.2659818 C11.8532078,31.7258909 11.3074247,32.2882545 10.5022139,32.5221636 C9.69691265,32.7562545 8.93715361,32.5730727 8.80513554,32.1132545 L8.80513554,32.1132545 Z M7.30938253,22.9551636 C6.96465361,22.1865273 7.03676205,21.4038909 7.4702259,21.2070727 C7.90387048,21.0101636 8.53495482,21.4737091 8.87968373,22.2422545 C9.22450301,23.0108909 9.15248494,23.7936182 8.71884036,23.9904364 C8.28519578,24.1873455 7.65420181,23.7238 7.30938253,22.9551636 L7.30938253,22.9551636 Z M6.74353916,40.1333455 C6.44661145,40.1608 6.18131024,39.9388 6.15402108,39.6400727 L4.15179217,17.7325273 C4.12441265,17.4338 4.34498494,17.1668909 4.64200301,17.1393455 C4.93893072,17.1119818 5.20423193,17.3338909 5.23152108,17.6326182 L7.23375,39.5402545 C7.26112952,39.8389818 7.04055723,40.1058 6.74353916,40.1333455 L6.74353916,40.1333455 Z M1.83429217,15.3636182 L3.88558735,39.8567091 C3.88558735,41.5855273 5.29143072,42.9999818 7.0099247,42.9999818 L37.4479066,42.9999818 C39.1664006,42.9999818 40.5723343,41.5855273 40.5723343,39.8567091 L43.1363404,15.3636182 L1.83429217,15.3636182 Z" id="Fill-4" fill="#7B6851"></path>
            </g>
        </g>
    </g>
</svg>