<?xml version="1.0" encoding="UTF-8"?>
<svg width="80px" height="76px" viewBox="0 0 80 76" version="1.1" xmlns="http://www.w3.org/2000/svg" xmlns:xlink="http://www.w3.org/1999/xlink">
    <!-- Generator: Sketch 46.1 (44463) - http://www.bohemiancoding.com/sketch -->
    <title>Artboard</title>
    <desc>Created with Sketch.</desc>
    <defs></defs>
    <g id="Page-1" stroke="none" stroke-width="1" fill="none" fill-rule="evenodd">
        <g id="Artboard">
            <g id="Group-4-Copy-2" transform="translate(14.000000, 20.000000)">
                <path d="M50.7978495,17.4857143 C51.3130568,16.6285714 51.4847926,15.7714286 51.4847926,14.7428571 C51.4847926,11.8285714 49.0804916,9.42857143 46.1609831,9.42857143 L46.1609831,9.42857143 C44.7870968,9.42857143 43.4132104,10.2857143 42.3827957,11.3142857 C41.5241167,12.1714286 41.0089094,12.8571429 40.8371736,14.5714286 L38.4328725,14.5714286 C37.7459293,12.8571429 36.5437788,11.1428571 35.1698925,11.1428571 L33.4525346,11.1428571 C30.7047619,4.28571429 24.5222734,0.857142857 17.481106,0.857142857 L9.5812596,0.857142857 C9.5812596,0.857142857 9.40952381,0.857142857 9.40952381,0.857142857 C5.45960061,0.857142857 1.853149,5.31428571 0.479262673,13.0285714 C-0.0359447005,16.2857143 -0.0359447005,19.7142857 0.650998464,22.9714286 C2.02488479,30.6857143 4.77265745,35.1428571 9.92473118,35.1428571 L9.92473118,35.1428571 C9.92473118,35.1428571 9.5812596,35.1428571 9.5812596,35.1428571 L17.481106,35.1428571 C24.5222734,35.1428571 30.7047619,31.7142857 33.4525346,24.8571429 L35.1698925,24.8571429 C36.5437788,24.8571429 37.7459293,23.1428571 38.4328725,21.4285714 L40.8371736,21.4285714 C41.352381,24.8571429 43.9284178,26.7428571 47.0196621,26.2285714 C49.0804916,25.8857143 50.7978495,24.5142857 51.3130568,22.6285714 C51.6565284,21.0857143 51.4847926,19.7142857 50.7978495,18.5142857 C50.6261137,18.1714286 50.6261137,17.8285714 50.7978495,17.4857143 Z M13.7029186,28.1142857 C12.500768,30.5142857 10.9551459,31.7142857 9.5812596,31.7142857 L9.5812596,31.7142857 C9.5812596,31.7142857 9.5812596,31.7142857 9.5812596,31.7142857 C8.20737327,31.7142857 6.66175115,30.5142857 5.45960061,28.1142857 C2.54009217,22.4571429 2.54009217,13.2 5.45960061,7.54285714 C6.66175115,5.14285714 8.20737327,3.94285714 9.5812596,3.94285714 C10.9551459,3.94285714 12.500768,5.14285714 13.7029186,7.54285714 C16.622427,13.2 16.622427,22.4571429 13.7029186,28.1142857 Z M48.73702,20.5714286 C48.73702,22.1142857 47.5348694,23.3142857 45.9892473,23.3142857 C44.4436252,23.3142857 43.2414747,22.4571429 43.2414747,20.9142857 C43.2414747,20.4 43.4132104,19.7142857 43.756682,19.7142857 C43.2414747,19.7142857 42.7262673,19.7142857 42.5545315,19.7142857 L39.2915515,19.7142857 C39.2915515,18 39.2915515,18.3428571 39.2915515,18 C39.2915515,17.6571429 39.2915515,18 39.2915515,16.2857143 L42.5545315,16.2857143 C42.7262673,16.2857143 43.2414747,16.2857143 43.756682,16.2857143 C43.4132104,16.2857143 43.2414747,15.7714286 43.2414747,15.0857143 C43.2414747,13.5428571 44.4436252,12.5142857 45.9892473,12.5142857 C47.5348694,12.5142857 48.73702,13.8857143 48.73702,15.2571429 C48.73702,16.4571429 48.0500768,17.4857143 47.0196621,17.8285714 C47.878341,18.3428571 48.73702,19.3714286 48.73702,20.5714286 Z" id="Shape" fill="#7B6851" fill-rule="nonzero"></path>
                <path d="M12.6725038,11.1428571 C11.6420891,7.71428571 10.2682028,7.2 9.5812596,7.2 C8.89431644,7.2 7.34869432,7.71428571 6.49001536,11.1428571 C5.28786482,15.0857143 5.28786482,21.4285714 6.49001536,25.5428571 C7.52043011,28.9714286 8.89431644,29.4857143 9.5812596,29.4857143 C10.2682028,29.4857143 11.8138249,28.9714286 12.6725038,25.5428571 C13.7029186,21.4285714 13.7029186,15.0857143 12.6725038,11.1428571 Z M10.9551459,22.8 C10.4399386,24.8571429 9.92473118,25.2 9.5812596,25.2 C9.23778802,25.2 8.55084485,24.8571429 8.20737327,22.8 C7.6921659,20.4 7.6921659,16.4571429 8.20737327,14.0571429 C8.55084485,12 9.06605223,11.6571429 9.40952381,11.6571429 C9.75299539,11.6571429 10.4399386,12 10.7834101,14.0571429 C11.4703533,16.6285714 11.4703533,20.4 10.9551459,22.8 Z" id="Shape" fill="#7B6851" fill-rule="nonzero"></path>
                <path d="" id="Path-2" stroke="#979797"></path>
            </g>
        </g>
    </g>
</svg>