<?xml version="1.0" encoding="UTF-8"?>
<svg width="24px" height="24px" viewBox="0 0 24 24" version="1.1" xmlns="http://www.w3.org/2000/svg" xmlns:xlink="http://www.w3.org/1999/xlink">
    <!-- Generator: Sketch 46.2 (44496) - http://www.bohemiancoding.com/sketch -->
    <title>Slice 3</title>
    <desc>Created with Sketch.</desc>
    <defs></defs>
    <g id="Page-1" stroke="none" stroke-width="1" fill="none" fill-rule="evenodd">
        <g id="phone" transform="translate(4.000000, 4.000000)" fill-rule="nonzero" fill="#7B6852">
            <path d="M3.21777778,6.92444444 C4.49777778,9.44 6.56,11.5022222 9.07555556,12.7822222 L11.0311111,10.8266667 C11.28,10.5777778 11.6266667,10.5066667 11.9377778,10.6044444 C12.9333333,10.9333333 14,11.1111111 15.1111111,11.1111111 C15.6020309,11.1111111 16,11.5090802 16,12 L16,15.1111111 C16,15.6020309 15.6020309,16 15.1111111,16 C6.76547489,16 7.89491929e-16,9.23452511 0,0.888888889 C-7.89491929e-16,0.653140898 0.0936505248,0.427048531 0.260349528,0.260349528 C0.427048531,0.0936505248 0.653140898,3.94745964e-16 0.888888889,0 L4,0 C4.49091978,0 4.88888889,0.397969111 4.88888889,0.888888889 C4.88888889,2 5.06666667,3.06666667 5.39555556,4.06222222 C5.49333333,4.37333333 5.42222222,4.72 5.17333333,4.96888889 L3.21777778,6.92444444 Z" id="Shape"></path>
        </g>
    </g>
</svg>