<?xml version="1.0" encoding="UTF-8"?>
<svg width="80px" height="76px" viewBox="0 0 80 76" version="1.1" xmlns="http://www.w3.org/2000/svg" xmlns:xlink="http://www.w3.org/1999/xlink">
    <!-- Generator: Sketch 46.1 (44463) - http://www.bohemiancoding.com/sketch -->
    <title>Artboard</title>
    <desc>Created with Sketch.</desc>
    <defs></defs>
    <g id="Page-1" stroke="none" stroke-width="1" fill="none" fill-rule="evenodd">
        <g id="Artboard" fill-rule="nonzero" fill="#7B6851">
            <g id="Group-5-Copy-2" transform="translate(13.000000, 17.000000)">
                <path d="M24.4122208,27.1978378 C23.869727,26.6665946 23.5080645,26.3124324 22.9655707,25.6041081 C21.1572581,23.124973 21.1572581,20.2916757 22.0614144,17.1042162 C22.7847395,14.448 24.5930521,11.9688649 27.3055211,10.020973 C28.57134,9.13556757 30.0179901,8.42724324 31.6454715,7.71891892 C29.4754963,6.83351351 27.3055211,6.30227027 24.9547146,6.12518919 C23.5080645,6.12518919 22.4230769,5.94810811 20.7955955,5.94810811 C10.6690447,5.94810811 2.71246898,10.1980541 2.71246898,20.2916757 C2.71246898,23.6562162 4.33995037,27.1978378 6.14826303,27.1978378 L24.4122208,27.1978378 Z" id="Shape"></path>
                <path d="M52.9835608,23.6562162 L48.6436104,22.7708108 C48.6436104,22.7708108 48.6436104,22.7708108 48.6436104,22.7708108 C48.4627792,21.8854054 47.9202854,20.4687568 47.016129,18.875027 C46.8352978,19.4062703 46.4736352,19.7604324 46.292804,20.1145946 C44.4844913,22.9478919 42.1336849,25.427027 39.9637097,27.0207568 C39.9637097,27.0207568 39.7828784,27.0207568 39.7828784,27.1978378 L52.8027295,27.1978378 C53.7068859,27.1978378 54.6110422,26.4895135 54.6110422,25.427027 C54.2493797,24.5416216 53.7068859,23.8332973 52.9835608,23.6562162 L52.9835608,23.6562162 Z" id="Shape"></path>
                <path d="M0.904156328,31.2707027 L0.904156328,34.6352432 C0.904156328,35.3435676 1.62748139,36.0518919 2.35080645,36.0518919 L5.7866005,36.0518919 L7.77574442,40.4789189 C7.95657568,41.1872432 8.86073201,41.7184865 9.58405707,41.7184865 L46.1119727,41.7184865 C47.016129,41.7184865 47.7394541,41.1872432 47.9202854,40.3018378 L49.9094293,35.8748108 L53.5260546,35.8748108 C54.2493797,35.8748108 54.9727047,35.3435676 54.9727047,34.4581622 L54.9727047,31.0936216 C54.9727047,30.3852973 54.2493797,29.676973 53.5260546,29.676973 L2.35080645,29.676973 C1.62748139,29.8540541 0.904156328,30.5623784 0.904156328,31.2707027 Z" id="Shape"></path>
                <path d="M52.2602357,2.58356757 C52.2602357,2.05232432 51.8985732,1.69816216 51.5369107,1.344 C50.4519231,0.281513514 48.8244417,0.104432432 47.5586228,1.16691892 C47.016129,1.69816216 46.6544665,2.40648649 46.6544665,3.11481081 C46.6544665,3.64605405 46.8352978,4.1772973 47.016129,4.70854054 L42.6761787,8.42724324 C39.2403846,7.896 33.2729529,9.48972973 29.294665,12.8542703 C24.0505583,17.1042162 23.6888958,21.8854054 26.4013648,25.0728649 C29.1138337,28.2603243 33.9962779,28.6144865 39.2403846,24.3645405 C43.3995037,21 45.9311414,14.9792432 45.7503102,11.6147027 L49.9094293,8.07308108 C50.9944169,8.95848649 52.8027295,8.95848649 53.8877171,7.71891892 C54.6110422,6.83351351 54.7918734,5.77102703 54.2493797,4.70854054 C53.8877171,4.00021622 53.3452233,3.46897297 52.6218983,3.29189189 C52.441067,2.93772973 52.2602357,2.76064865 52.2602357,2.58356757 Z" id="Shape"></path>
            </g>
        </g>
    </g>
</svg>