<?xml version="1.0" encoding="UTF-8"?>
<svg width="47px" height="47px" viewBox="0 0 47 47" version="1.1" xmlns="http://www.w3.org/2000/svg" xmlns:xlink="http://www.w3.org/1999/xlink">
    <!-- Generator: Sketch 46.2 (44496) - http://www.bohemiancoding.com/sketch -->
    <title>Slice</title>
    <desc>Created with Sketch.</desc>
    <defs></defs>
    <g id="Page-1" stroke="none" stroke-width="1" fill="none" fill-rule="evenodd">
        <g id="supermercados-copy-3" transform="translate(6.000000, 8.000000)" fill-rule="nonzero" fill="#002878">
            <path d="M31.7224279,6.01724518 C31.5203475,5.74813083 31.1835469,5.61357367 30.8804263,5.61357367 L7.47278101,5.61357367 L6.66445945,1.98052996 C6.56341925,1.57685843 6.26029867,1.24046549 5.85613788,1.13954761 L1.37668922,0.0294509256 C0.770448053,-0.105106249 0.164206881,0.231286687 0.0294866208,0.836793972 C-0.10523364,1.44230126 0.231567012,2.04780855 0.837808184,2.18236571 L4.64365554,3.12426593 L9.22414439,24.0142673 C9.32518459,24.5188567 9.79670551,24.8888889 10.3019065,24.8888889 L27.9165805,24.8888889 C28.5228217,24.8888889 29.0280226,24.3842995 29.0280226,23.7787922 C29.0280226,23.1732849 28.5228217,22.6686955 27.9165805,22.6686955 L11.2112682,22.6686955 L10.7734274,20.7176165 L29.0617028,18.598341 C29.5332237,18.5310624 29.9373844,18.1610302 30.0384247,17.6900801 L31.9918684,6.92550611 C32.0255484,6.62275247 31.9581883,6.28635954 31.7224279,6.01724518 Z" id="Shape"></path>
            <circle id="Oval" cx="26.6666667" cy="29.037037" r="2.96296296"></circle>
            <circle id="Oval" cx="13.6296296" cy="29.037037" r="2.96296296"></circle>
        </g>
    </g>
</svg>