<?xml version="1.0" encoding="UTF-8"?>
<svg width="34px" height="34px" viewBox="0 0 34 34" version="1.1" xmlns="http://www.w3.org/2000/svg" xmlns:xlink="http://www.w3.org/1999/xlink">
    <!-- Generator: Sketch 46.2 (44496) - http://www.bohemiancoding.com/sketch -->
    <title>Slice 6 Copy</title>
    <desc>Created with Sketch.</desc>
    <defs></defs>
    <g id="Page-1" stroke="none" stroke-width="1" fill="none" fill-rule="evenodd">
        <g id="Group" transform="translate(2.000000, 4.000000)" fill-rule="nonzero" fill="#002878">
            <path d="M26.7657985,5.07705062 C26.5952932,4.84998539 26.3111177,4.73645278 26.0553597,4.73645278 L6.30515898,4.73645278 L5.62313766,1.67107215 C5.53788499,1.3304743 5.282127,1.04664276 4.94111634,0.961493299 L1.16158153,0.0248492185 C0.650065545,-0.0886833974 0.138549556,0.195148142 0.0248793363,0.706044914 C-0.0887908835,1.21694169 0.195384666,1.72783846 0.706900655,1.84137107 L3.91808436,2.63609938 L7.78287183,20.262038 C7.8681245,20.6877853 8.26597027,21 8.69223359,21 L23.5546148,21 C24.0661308,21 24.4923941,20.5742527 24.4923941,20.0633559 C24.4923941,19.5524591 24.0661308,19.1267118 23.5546148,19.1267118 L9.45950757,19.1267118 L9.09007936,17.4804889 L24.5208117,15.6923502 C24.9186575,15.6355839 25.2596681,15.3233692 25.3449208,14.9260051 L26.993139,5.84339578 C27.0215565,5.5879474 26.9647214,5.30411586 26.7657985,5.07705062 Z" id="Shape"></path>
            <circle id="Oval" cx="22.5" cy="24.5" r="2.5"></circle>
            <circle id="Oval" cx="11.5" cy="24.5" r="2.5"></circle>
        </g>
    </g>
</svg>