<?xml version="1.0" encoding="UTF-8"?>
<svg width="47px" height="47px" viewBox="0 0 47 47" version="1.1" xmlns="http://www.w3.org/2000/svg" xmlns:xlink="http://www.w3.org/1999/xlink">
    <!-- Generator: Sketch 46.2 (44496) - http://www.bohemiancoding.com/sketch -->
    <title>Slice</title>
    <desc>Created with Sketch.</desc>
    <defs></defs>
    <g id="Page-1" stroke="none" stroke-width="1" fill="none" fill-rule="evenodd">
        <g id="tiendas" transform="translate(8.000000, 9.000000)" fill-rule="nonzero" fill="#00B2E9">
            <path d="M28.3030711,30 L3.11571146,30 C3.11571146,29.2451611 3.11571146,28.1458623 3.11571146,26.7021036 L3.11571146,16.0823343 L3.28004976,16.1026917 C4.89492221,16.2771454 6.51540709,15.8288369 7.81779912,14.8473196 C9.66772853,16.2415695 12.1129011,16.5300753 14.2303466,15.6039357 L14.2303466,26.7021036 L25.0297205,26.7021036 L25.0297205,15.7464374 C25.6818331,15.948127 26.3601198,16.0499111 27.0420262,16.0484053 C27.216426,16.0484053 27.3774105,16.0484053 27.5652256,16.0280479 C27.8128816,16.008287 28.0592273,15.9743032 28.3030711,15.926261 L28.3030711,26.7021036 C28.3353318,27.7581025 28.3353318,28.8574013 28.3030711,30 Z M21.4746471,21.0223931 C21.2803919,21.0218537 21.0894595,21.0733619 20.9212631,21.1716806 L17.2320359,23.3295634 C16.8731623,23.5209466 16.6465508,23.895621 16.6414673,24.3059967 C16.6363837,24.7163725 16.8536429,25.0966741 17.207663,25.2970952 C17.5616831,25.4975162 17.9957217,25.4859327 18.338804,25.2669079 L22.0280312,23.1090251 C22.4625981,22.8559589 22.6746961,22.338949 22.5449599,21.8489602 C22.4152237,21.3589716 21.9760698,21.0184354 21.4746471,21.0190002 L21.4746471,21.0223931 Z M22.4338461,16.9882379 C22.2871959,16.7307539 22.0453804,16.5428089 21.7616677,16.4658045 C21.4779549,16.3888001 21.1756202,16.4290534 20.9212631,16.5776973 L17.2286821,18.7321873 C16.8698085,18.9235703 16.643197,19.2982449 16.6381134,19.7086206 C16.6330299,20.1189962 16.8502891,20.499298 17.2043092,20.699719 C17.5583293,20.9001399 17.9923678,20.8885566 18.3354503,20.6695317 L22.0246773,18.5116489 C22.553148,18.205208 22.7375136,17.5243617 22.4372,16.9882379 L22.4338461,16.9882379 Z M23.1750455,11.7597829 C23.2725951,11.759095 23.3632049,11.8107372 23.4131683,11.8954987 C24.1893836,13.1624578 25.5585495,13.9326763 27.0319646,13.9312372 C27.1437594,13.9312372 27.2555542,13.9312372 27.367349,13.9312372 C30.1275616,13.7174847 31.7709445,10.6910202 30.6373457,8.13956114 L26.5054114,0.838045694 C26.2150641,0.325053721 25.6777397,0.00613540181 25.0934435,0 L5.91617022,0 C5.32587115,9.84948459e-05 4.78077935,0.319829702 4.48743318,0.838045694 L0.362206503,8.12938244 C-0.747915477,10.6333408 0.804913756,13.642841 3.50475722,13.9108798 C3.65741432,13.9267335 3.81077435,13.9346606 3.9642337,13.9346302 C5.43764893,13.9360691 6.80681483,13.1658507 7.58303008,11.8988916 C7.63258662,11.8144933 7.72244044,11.7627611 7.819476,11.7627611 C7.91651157,11.7627611 8.00636539,11.8144933 8.05592192,11.8988916 C8.82542992,13.1595822 10.1820444,13.9309754 11.6466309,13.9406278 C13.1112174,13.9502801 14.4776513,13.1968331 15.2633302,11.9463922 C15.313266,11.8635931 15.4022224,11.8130796 15.4980992,11.8130796 C15.5939759,11.8130796 15.6829324,11.8635931 15.7328682,11.9463922 C16.5179738,13.1971932 17.8840554,13.951276 19.3486392,13.942313 C20.8132228,13.9333502 22.1701865,13.162603 22.9402764,11.9022846 C22.9879393,11.8159523 23.0773171,11.7617011 23.1750455,11.7597829 Z" id="Shape"></path>
        </g>
    </g>
</svg>