<?xml version="1.0" encoding="UTF-8"?>
<svg width="34px" height="34px" viewBox="0 0 34 34" version="1.1" xmlns="http://www.w3.org/2000/svg" xmlns:xlink="http://www.w3.org/1999/xlink">
    <!-- Generator: Sketch 46.2 (44496) - http://www.bohemiancoding.com/sketch -->
    <title>Slice 6</title>
    <desc>Created with Sketch.</desc>
    <defs></defs>
    <g id="Page-1" stroke="none" stroke-width="1" fill="none" fill-rule="evenodd">
        <path d="M28.6137426,29.7891667 L6.70957592,29.7891667 C6.70957592,29.1402778 6.70957592,28.1952778 6.70957592,26.9541667 L6.70957592,17.825 L6.85249259,17.8425 C8.25686509,17.9924672 9.66611844,17.6070838 10.7987426,16.7633333 C12.4075322,17.9618848 14.5339745,18.2098956 16.3754093,17.41375 L16.3754093,26.9541667 L25.7670759,26.9541667 L25.7670759,17.53625 C26.3341851,17.7096302 26.9240566,17.7971278 27.5170759,17.7958333 C27.6687426,17.7958333 27.8087426,17.7958333 27.9720759,17.7783333 C28.1874497,17.7613461 28.401684,17.7321323 28.6137426,17.6908333 L28.6137426,26.9541667 C28.6417981,27.8619444 28.6417981,28.8069444 28.6137426,29.7891667 Z M22.6754093,22.0716667 C22.5064754,22.071203 22.3404312,22.1154814 22.1941593,22.2 L18.9858259,24.055 C18.6737318,24.2195204 18.4766593,24.5416051 18.4722384,24.89438 C18.4678175,25.247155 18.6567567,25.5740771 18.96463,25.7463668 C19.2725033,25.9186565 19.6499646,25.9086989 19.9483259,25.7204167 L23.1566593,23.8654167 C23.53458,23.6478711 23.7190309,23.2034293 23.6062059,22.7822159 C23.4933809,22.3610026 23.1114711,22.0682645 22.6754093,22.06875 L22.6754093,22.0716667 Z M23.5095759,18.60375 C23.3820417,18.3824067 23.171747,18.2208419 22.9250165,18.1546459 C22.6782859,18.0884499 22.4153608,18.1230532 22.1941593,18.2508333 L18.9829093,20.1029167 C18.6708151,20.267437 18.4737426,20.5895218 18.4693217,20.9422967 C18.4649008,21.2950716 18.6538401,21.6219938 18.9617134,21.7942835 C19.2695867,21.9665731 19.6470479,21.9566156 19.9454093,21.7683333 L23.1537426,19.9133333 C23.6133267,19.6499048 23.7736601,19.0646228 23.5124926,18.60375 L23.5095759,18.60375 Z M24.1541593,14.1091667 C24.2389933,14.1085754 24.317792,14.152969 24.3612426,14.2258333 C25.0362776,15.3149606 26.2269716,15.9770704 27.5083259,15.9758333 C27.6055481,15.9758333 27.7027704,15.9758333 27.7999926,15.9758333 C30.2004093,15.7920833 31.6295759,13.1904167 30.6437426,10.9970833 L27.0504093,4.72041667 C26.797909,4.27942882 26.3306253,4.00527423 25.8224926,4 L9.14499259,4 C8.63163948,4.00008467 8.15760085,4.27493805 7.90249259,4.72041667 L4.31499259,10.9883333 C3.34957592,13.1408333 4.69999259,15.7279167 7.04790925,15.9583333 C7.18066737,15.9719617 7.31403679,15.9787762 7.44749259,15.97875 C8.72884694,15.979987 9.91954094,15.3178773 10.5945759,14.22875 C10.6376727,14.1561979 10.715814,14.1117269 10.8002009,14.1117269 C10.8845878,14.1117269 10.9627291,14.1561979 11.0058259,14.22875 C11.6750279,15.3124886 12.8548066,15.9756082 14.128483,15.9839058 C15.4021595,15.9922033 16.5904776,15.344511 17.2737426,14.2695833 C17.3171692,14.198406 17.3945301,14.1549826 17.4779093,14.1549826 C17.5612884,14.1549826 17.6386493,14.198406 17.6820759,14.2695833 C18.3648424,15.3448205 19.5528541,15.9930594 20.8265282,15.9853545 C22.1002022,15.9776497 23.2802845,15.3150854 23.9499926,14.2316667 C23.9914426,14.1574521 24.0691699,14.1108157 24.1541593,14.1091667 Z" id="Shape" fill="#00B2E9" fill-rule="nonzero"></path>
    </g>
</svg>