<?xml version="1.0" encoding="UTF-8"?>
<svg width="24px" height="24px" viewBox="0 0 24 24" version="1.1" xmlns="http://www.w3.org/2000/svg" xmlns:xlink="http://www.w3.org/1999/xlink">
    <!-- Generator: Sketch 46.2 (44496) - http://www.bohemiancoding.com/sketch -->
    <title>Slice 3</title>
    <desc>Created with Sketch.</desc>
    <defs></defs>
    <g id="Page-1" stroke="none" stroke-width="1" fill="none" fill-rule="evenodd">
        <g id="timelapse" transform="translate(4.000000, 4.000000)" fill-rule="nonzero" fill="#7B6852">
            <path d="M8.5,15.3 C4.7444637,15.3 1.7,12.2555363 1.7,8.5 C1.7,4.7444637 4.7444637,1.7 8.5,1.7 C10.3034721,1.7 12.0330787,2.41642651 13.3083261,3.69167389 C14.5835735,4.96692126 15.3,6.69652787 15.3,8.5 C15.3,12.2555363 12.2555363,15.3 8.5,15.3 L8.5,15.3 Z M8.5,3.77475828e-16 C3.80557963,-1.50990331e-15 3.77475828e-16,3.80557963 0,8.5 C-1.13242749e-15,10.7543402 0.895533143,12.9163484 2.48959236,14.5104076 C4.08365158,16.1044669 6.24565984,17 8.5,17 C10.7543402,17 12.9163484,16.1044669 14.5104076,14.5104076 C16.1044669,12.9163484 17,10.7543402 17,8.5 C17,6.24565984 16.1044669,4.08365158 14.5104076,2.48959236 C12.9163484,0.895533143 10.7543402,1.88737914e-16 8.5,0 L8.5,3.77475828e-16 Z M12.104,4.896 C11.1095,3.893 9.8005,3.4 8.5,3.4 L8.5,8.5 L4.896,12.104 C6.885,14.093 10.115,14.093 12.104,12.104 C14.1015,10.115 14.1015,6.885 12.104,4.896 Z" id="Shape"></path>
        </g>
    </g>
</svg>