<?xml version="1.0" encoding="utf-8"?>
<!-- Generator: Adobe Illustrator 21.0.0, SVG Export Plug-In . SVG Version: 6.00 Build 0)  -->
<svg version="1.1" id="Layer_1" xmlns="http://www.w3.org/2000/svg" xmlns:xlink="http://www.w3.org/1999/xlink" x="0px" y="0px"
	 viewBox="0 0 80 76" enable-background="new 0 0 80 76" xml:space="preserve">
<g id="XMLID_8_">
	<path id="XMLID_11_" fill="#7A6751" d="M66.7,16.7l-0.2-1.3l-1.3-0.2c-0.4-0.1-9.6-1.4-16.2,3c-2.9-1.4-5.9-2.1-9-2.1
		s-6.1,0.7-9,2.1c-6.6-4.4-15.8-3.1-16.2-3l-1.3,0.2l-0.2,1.3c-0.1,0.5-1.4,11.7,4.5,17.9c-0.6,2.1-0.8,4.2-0.8,6.3
		c0,6.1,2.4,11.2,6.9,14.9C28,59.2,33.7,61,40,61c6.3,0,12-1.9,16.1-5.3c4.5-3.7,6.9-8.8,6.9-14.9c0-2.1-0.3-4.2-0.8-6.3
		C68.1,28.4,66.7,17.2,66.7,16.7z M45.4,28.9c1.2,0,2.2,1,2.2,2.2c0,1.2-1,2.2-2.2,2.2c-1.2,0-2.2-1-2.2-2.2
		C43.3,29.9,44.2,28.9,45.4,28.9z M34.6,29c1.2,0,2.1,1,2.1,2.2c0,1.2-1,2.2-2.1,2.2c-1.2,0-2.1-1-2.1-2.2
		C32.4,29.9,33.4,29,34.6,29z M40,53.7c-5.2,0-9.4-3.3-9.4-7.4s4.2-7.4,9.4-7.4c5.2,0,9.4,3.3,9.4,7.4S45.2,53.7,40,53.7z"/>
	<path id="XMLID_2_" fill="#7A6751" d="M37.4,45c-0.7,0-1.3,0.6-1.3,1.3c0,0.7,0.6,1.3,1.3,1.3c0.7,0,1.3-0.6,1.3-1.3
		C38.7,45.6,38.1,45,37.4,45z"/>
	<path id="XMLID_1_" fill="#7A6751" d="M42.6,45c-0.7,0-1.3,0.6-1.3,1.3s0.6,1.3,1.3,1.3c0.7,0,1.3-0.6,1.3-1.3S43.3,45,42.6,45z"/>
</g>
</svg>
