<?xml version="1.0" encoding="utf-8"?>
<!-- Generator: Adobe Illustrator 21.0.0, SVG Export Plug-In . SVG Version: 6.00 Build 0)  -->
<svg version="1.1" id="Layer_1" xmlns="http://www.w3.org/2000/svg" xmlns:xlink="http://www.w3.org/1999/xlink" x="0px" y="0px"
	 viewBox="0 0 80 76" enable-background="new 0 0 80 76" xml:space="preserve">
<g>
	<g>
		<path fill="#7A6751" d="M41.1,35.1c16.8,0,24.6-2.7,24.6-8.5c0-7.1-11.3-13.1-24.6-13.1c-13.3,0-24.6,6-24.6,13.1
			C16.5,27.4,14.6,35.1,41.1,35.1z M50.3,18.2c0.1-0.6,0.8-1.1,1.5-1c1.2,0.2,2.3,0.7,3.3,1.5c0.5,0.5,0.6,1.2,0.1,1.7
			c-0.2,0.3-0.9,0.7-1.7,0.1c-0.6-0.5-1.3-0.8-2.1-1C50.6,19.6,50.2,18.9,50.3,18.2z M48.6,25.5c0.3-0.6,1-0.9,1.6-0.6
			c0.6,0.3,1.3,0.6,2,0.7c0.6,0.2,1,0.9,0.8,1.5c-0.1,0.6-0.7,1-1.5,0.8c-0.8-0.2-1.6-0.5-2.3-0.9C48.6,26.9,48.3,26.1,48.6,25.5z
			 M38.5,25.7c0.4-0.6,1.2-0.6,1.7-0.2c0.4,0.3,0.8,0.5,1.4,0.6c0.7,0.1,1.2,0.7,1.1,1.4c0,0.6-0.6,1.2-1.4,1.1
			c-1-0.1-1.9-0.5-2.6-1.1C38.2,27,38.1,26.2,38.5,25.7z M33.9,19.4c0-0.6,0.6-1.2,1.3-1.1l1.8,0.1c0.7,0,1.2,0.6,1.2,1.3
			c0,0.6-0.7,1.2-1.3,1.2l-1.8-0.2C34.4,20.6,33.9,20,33.9,19.4z M25.4,23c0.9-0.4,1.9-0.6,2.8-0.6c0.7,0,1.2,0.6,1.2,1.3
			s-0.6,1.2-1.3,1.2c-0.6,0-1.3,0.1-1.8,0.4c-0.1,0-1.1,0.2-1.6-0.6C24.4,24,24.7,23.2,25.4,23z"/>
		<path id="XMLID_4_" fill="#7A6751" d="M65.1,48.6c0,0-7.9,5.4-23.9,5.2c-15.7-0.2-24-5.3-24-5.3c-2.1,1.3-3.2,2.8-3.2,4.2
			c0,4.3,11.1,9.2,27.1,9.2c16,0,27.1-4.9,27.1-9.2C68.2,51,66.6,49.6,65.1,48.6z"/>
		<path id="XMLID_3_" fill="#7A6751" d="M31.3,42.8c-2,1.6-4.9,2.7-6.8-0.2c-0.1-0.2-0.3-0.5-0.5-0.6c-0.1,0-0.3,0.2-0.5,0.4
			c-1.2,1.3-2.7,1.4-4.7,0.2c-0.4,1-1.1,1.8-1.9,2.4c0,0,6.4,7.1,27.3,6.4c0,0,18.1-0.9,21.3-7C65,44.3,63,43.6,62,43.8
			c-2.1,0.8-3.5,0-3.8-0.2c-0.1-0.1-0.9-0.6-2,0c-1.4,1-6.2-0.1-6.2-0.1l-3.6,7.2c-0.2,0.3-0.5,0.6-0.8,0.6c-0.5,0.1-0.8,0-1.1-0.2
			c-0.5-0.3-10.8-9-11.9-9C32.6,42,32.3,42,31.3,42.8z"/>
		<path id="XMLID_2_" fill="#7A6751" d="M66,32c-4.4,4.8-15.2,5.5-24.9,5.5c-9.9,0-20.8-0.7-25.2-5.7c-1.9,1.2-2.3,2.8-2.1,3
			c0.5,0.5,0.4,1.1,0.1,1.6c-0.8,1.2-3.3,3.4-3.6,5c-0.1,0.3,1.7,2.6,1.8,2.7c1,0.1,3.7-0.8,4.3-2.1c0.2-0.4,1.2-2.9,4.3-1.4
			c0.5,0.2,0.7,0.2,0.7,0.2c0.1,0,1.2-1.5,2.7-1.5c1.6-0.1,2.6,2.1,2.9,2.3c0.9,0.6,3-1,3.7-1.6c0.4-0.2,1.9-1.4,3.9-0.1
			c0.2,0.1,1.1,0.7,2.2,0c0,0,1.5-0.9,4.9-0.6c1.8,0.1,5.5,0.6,10.4,1.8c1,0.2,2,0.4,2.8,0.2c0.6-0.1,2.1-0.7,3.2-0.6
			c0.5,0,1.5,0.4,2.2,0.9c1.8-1,5,0.1,5,0.1c1.8,0.6,3.2,0.8,3.9-1.5C69.5,36.8,67.3,33.5,66,32z"/>
		<path id="XMLID_1_" fill="#7A6751" d="M47.6,42.9c0,0-7.2-2-9.9-0.6l7.3,5.8L47.6,42.9z"/>
	</g>
</g>
</svg>
