<?xml version="1.0" encoding="UTF-8"?>
<svg width="57px" height="57px" viewBox="0 0 57 57" version="1.1" xmlns="http://www.w3.org/2000/svg" xmlns:xlink="http://www.w3.org/1999/xlink">
    <!-- Generator: Sketch 47.1 (45422) - http://www.bohemiancoding.com/sketch -->
    <title>Slice 5</title>
    <desc>Created with Sketch.</desc>
    <defs></defs>
    <g id="Page-1" stroke="none" stroke-width="1" fill="none" fill-rule="evenodd">
        <g id="Group-21-Copy" transform="translate(5.000000, 5.000000)">
            <circle id="Oval-6" fill="#BDA362" cx="24" cy="24" r="24"></circle>
            <path d="M24.1760842,12.5714286 C25.608337,12.6148302 26.8235818,13.830075 26.8235818,15.566139 C26.8235818,16.9115886 25.8687466,19.255275 25.4347306,21.9461742 C27.561409,20.2535118 28.9936618,18.387243 30.1221034,17.6928174 C31.7279626,16.8247854 33.420625,17.1285966 34.2018538,18.387243 C34.9830826,19.7326926 34.4188618,21.2951502 32.8564042,22.2499854 C31.7279626,22.9878126 29.2106698,23.2916238 26.7367786,24.2898606 C29.2540714,25.2880974 31.7279626,25.548507 32.9432074,26.2863342 C34.3754602,27.1543662 34.8962794,28.8470286 34.2018538,30.0622734 C33.420625,31.407723 31.7713642,31.624731 30.3391114,30.8869038 C29.080465,30.2358798 27.6482122,28.2394062 25.4781322,26.5467438 C25.9121482,29.1942414 26.8235818,31.407723 26.8235818,32.7531726 C26.8235818,34.5326382 25.608337,35.8780878 24.1760842,35.8780878 C22.6570282,35.8780878 21.485185,34.5326382 21.485185,32.7531726 C21.485185,31.407723 22.3966186,29.1508398 22.8306346,26.4599406 C20.6605546,28.1960046 19.1414986,30.2358798 17.9262538,30.8869038 C16.494001,31.6681326 14.8013386,31.3209198 14.0635114,30.0622734 C13.3256842,28.7602254 13.8031018,27.1543662 15.3221578,26.2429326 C16.494001,25.548507 18.9678922,25.2880974 21.485185,24.2898606 C18.9678922,23.2916238 16.5374026,22.9878126 15.408961,22.293387 C13.8465034,21.3819534 13.2822826,19.7326926 14.0635114,18.387243 C14.8013386,17.2153998 16.494001,16.7813838 18.0998602,17.6928174 C19.1849002,18.387243 20.7039562,20.2969134 22.8306346,22.0329774 C22.4400202,19.255275 21.485185,16.9549902 21.485185,15.566139 C21.485185,13.830075 22.6570282,12.6148302 24.1760842,12.5714286 Z" id="Path" fill="#FFFFFF"></path>
        </g>
    </g>
</svg>