<?xml version="1.0" encoding="UTF-8"?>
<svg width="33px" height="33px" viewBox="0 0 33 33" version="1.1" xmlns="http://www.w3.org/2000/svg" xmlns:xlink="http://www.w3.org/1999/xlink">
    <!-- Generator: Sketch 47.1 (45422) - http://www.bohemiancoding.com/sketch -->
    <title> </title>
    <desc>Created with Sketch.</desc>
    <defs></defs>
    <g id="Page-1" stroke="none" stroke-width="1" fill="none" fill-rule="evenodd">
        <g id="Group-Copy-2" transform="translate(5.000000, 4.000000)" fill-rule="nonzero" fill="#BDA362">
            <g id="Group">
                <path d="M21.2390466,9.97529893 L15.8561345,15.1232831 L2.08558778,15.1232831 C1.56629951,15.1232831 1.14484815,15.6069863 1.14484815,16.2029777 L1.14484815,21.1760513 C1.14484815,23.7921515 2.9999867,25.9202296 5.27939882,25.9202296 L17.7075101,25.9202296 C19.9869222,25.9202296 21.84112,23.7921515 21.84112,21.1760513 L21.84112,16.2029777 C21.84112,15.6069863 21.4206094,15.1232831 20.9003804,15.1232831 L18.7959458,15.1232831 L22.4441341,11.6337099 C22.8430077,11.2525777 22.8975706,10.5712904 22.5645488,10.1134998 C22.2315269,9.65678901 21.6398017,9.59308702 21.2390466,9.97529893 Z" id="Shape"></path>
                <path d="M6.7897563,11.8843071 C7.03246712,11.8843071 7.27329647,11.7763376 7.45485922,11.5679565 L11.2178177,7.24917789 C11.556484,6.86048782 11.5875284,6.24074308 11.2874325,5.81102461 L7.52447395,0.412551328 C7.36642969,0.186895145 7.13594848,0.0422160611 6.884771,0.0130643053 C6.635475,-0.017167145 6.38053456,0.0724475115 6.1867422,0.258154992 L0.542304421,5.65662827 C0.314645431,5.8747266 0.18952706,6.20295377 0.205519634,6.54305759 C0.222452947,6.8831614 0.376734247,7.19519316 0.623208029,7.38413973 L6.2676458,11.7029184 C6.4266308,11.8249238 6.60913429,11.8843071 6.7897563,11.8843071" id="Shape"></path>
                <path d="M12.4341941,10.8046124 C12.9534823,10.8046124 13.3749337,10.3209092 13.3749337,9.72491774 C13.3749337,9.12892629 12.9534823,8.64522308 12.4341941,8.64522308 C11.9149058,8.64522308 11.4934544,9.12892629 11.4934544,9.72491774 C11.4934544,10.3209092 11.9149058,10.8046124 12.4341941,10.8046124" id="Shape"></path>
                <path d="M10.5527148,11.8843071 C10.0334265,11.8843071 9.61197519,12.3680103 9.61197519,12.9640017 C9.61197519,13.5599932 10.0334265,14.0436964 10.5527148,14.0436964 C11.0720031,14.0436964 11.4934544,13.5599932 11.4934544,12.9640017 C11.4934544,12.3680103 11.0720031,11.8843071 10.5527148,11.8843071" id="Shape"></path>
            </g>
        </g>
    </g>
</svg>