<?xml version="1.0" encoding="UTF-8"?>
<svg width="33px" height="33px" viewBox="0 0 33 33" version="1.1" xmlns="http://www.w3.org/2000/svg" xmlns:xlink="http://www.w3.org/1999/xlink">
    <!-- Generator: Sketch 47.1 (45422) - http://www.bohemiancoding.com/sketch -->
    <title> </title>
    <desc>Created with Sketch.</desc>
    <defs></defs>
    <g id="Page-1" stroke="none" stroke-width="1" fill="none" fill-rule="evenodd">
        <path d="M26.998775,21.4022186 L26.998775,7.08849848 C26.998775,5.38287408 25.581625,4 23.8339,4 L9.1654,4 C7.41715,4 6,5.38287408 6,7.08849848 L6,21.4022186 C6,23.1080138 7.41715,24.4908879 9.1654,24.4908879 L16.7212,24.4908879 L16.86295,24.4908879 L21.490475,24.4908879 L26.996325,29 L27,24.4908879 C26.999825,24.4907171 26.998775,23.1080138 26.998775,21.4022186 Z M15.5165,9.4578956 C15.5165,9.30676649 15.615375,9.22445662 15.813825,9.22445662 L17.168675,9.22445662 C17.367125,9.22445662 17.466175,9.30676649 17.466175,9.4578956 L17.466175,16.3143759 C17.466175,16.4791664 17.367125,16.5614762 17.168675,16.5614762 L15.813825,16.5614762 C15.615375,16.5614762 15.5165,16.4791664 15.5165,16.3143759 L15.5165,9.4578956 Z M16.491425,19.0073771 C15.83045,19.0073771 15.384025,18.6228091 15.384025,18.0731089 C15.384025,17.5234088 15.83045,17.1523313 16.491425,17.1523313 C17.15205,17.1523313 17.614925,17.5234088 17.614925,18.0731089 C17.614925,18.6228091 17.15205,19.0073771 16.491425,19.0073771 Z" id="Shape-Copy-2" fill="#BDA362" fill-rule="nonzero"></path>
    </g>
</svg>