<?xml version="1.0" encoding="UTF-8"?>
<svg width="57px" height="57px" viewBox="0 0 57 57" version="1.1" xmlns="http://www.w3.org/2000/svg" xmlns:xlink="http://www.w3.org/1999/xlink">
    <!-- Generator: Sketch 47.1 (45422) - http://www.bohemiancoding.com/sketch -->
    <title>Slice 5</title>
    <desc>Created with Sketch.</desc>
    <defs></defs>
    <g id="Page-1" stroke="none" stroke-width="1" fill="none" fill-rule="evenodd">
        <g id="Group-27-Copy" transform="translate(5.000000, 5.000000)">
            <g id="Group-6-Copy-7" fill="#BDA362">
                <circle id="Oval-6" cx="24" cy="24" r="24"></circle>
            </g>
            <g id="Group-29" transform="translate(16.000000, 11.428571)">
                <g id="Page-1">
                    <g id="Group-3" transform="translate(0.000000, 0.000673)">
                        <polygon id="Clip-2" points="15.8655556 0.223816327 15.8655556 24.9183673 0 24.9183673 0 0.223816327 15.8652856 0.223816327 9.61747766e-06 0.223704082 9.61747766e-06 19.5306122 15.8652856 19.5306122 15.8652856 0.223816327"></polygon>
                        <path d="M13.5905111,2.59061224 C10.4662889,-0.565265306 5.40117778,-0.565265306 2.27717778,2.59061224 C0.7814,4.08234694 -0.0414888889,6.12946939 0.00162222222,8.2522449 C0.0516222222,10.3736735 0.9174,12.3922857 2.41495556,13.8802041 C2.46762222,13.9356531 2.52828889,13.9825714 2.59495556,14.0193878 C2.6594,14.0597959 4.15051111,15.0385714 4.15051111,18.6326531 C4.15051111,19.128551 4.54851111,19.5306122 5.0394,19.5306122 L7.0394,19.5306122 L7.0394,10.5510204 L5.26606667,10.5510204 C4.77517778,10.5510204 4.37717778,10.1489592 4.37717778,9.65306122 C4.37717778,9.15716327 4.77517778,8.75510204 5.26606667,8.75510204 L10.5994,8.75510204 C11.0902889,8.75510204 11.4882889,9.15716327 11.4882889,9.65306122 C11.4882889,10.1489592 11.0902889,10.5510204 10.5994,10.5510204 L8.82162222,10.5510204 L8.82162222,19.5306122 L10.8216222,19.5306122 C11.3125111,19.5306122 11.7105111,19.128551 11.7105111,18.6326531 C11.7105111,15.0408163 13.2082889,14.0597959 13.2525111,14.0306122 C13.3254,13.9899796 13.3916222,13.9394694 13.4505111,13.8802041 C14.9480667,12.3922857 15.8138444,10.3736735 15.8636222,8.2522449 C15.9074,6.12991837 15.0854,4.08257143 13.5905111,2.59061224" id="Fill-1" fill="#FFFFFF"></path>
                    </g>
                    <path d="M9.26608889,24.9190408 L6.59942222,24.9190408 C6.10853333,24.9190408 5.71053333,24.5169796 5.71053333,24.0210816 C5.71053333,23.5251837 6.10853333,23.1231224 6.59942222,23.1231224 L9.26608889,23.1231224 C9.75697778,23.1231224 10.1549778,23.5251837 10.1549778,24.0210816 C10.1549778,24.5169796 9.75697778,24.9190408 9.26608889,24.9190408" id="Fill-4" fill="#FFFFFF"></path>
                    <path d="M10.1549778,22.2251633 L5.71053333,22.2251633 C5.21964444,22.2251633 4.82164444,21.823102 4.82164444,21.3272041 C4.82164444,20.8313061 5.21964444,20.4292449 5.71053333,20.4292449 L10.1549778,20.4292449 C10.6458667,20.4292449 11.0438667,20.8313061 11.0438667,21.3272041 C11.0438667,21.823102 10.6458667,22.2251633 10.1549778,22.2251633" id="Fill-6" fill="#FFFFFF"></path>
                </g>
            </g>
        </g>
    </g>
</svg>