<?xml version="1.0" encoding="utf-8"?>
<!-- Generator: Adobe Illustrator 19.0.0, SVG Export Plug-In . SVG Version: 6.00 Build 0)  -->
<svg version="1.1" id="Layer_1" xmlns="http://www.w3.org/2000/svg" xmlns:xlink="http://www.w3.org/1999/xlink" x="0px" y="0px"
	 width="40px" height="40px" viewBox="0 0 40 40" enable-background="new 0 0 40 40" xml:space="preserve">
<g id="XMLID_10_">
	<path id="XMLID_11_" fill="#4BA028" d="M34.9,15.4C34.9,15.3,34.9,15.3,34.9,15.4l-1.3-1.2c1-0.2,2.1-1.1,2.1-1.9
		c0-1-1.4-1.3-2.5-1.3c-1.2,0-1.4,0.8-1.4,1.4l-3.1-3c-0.6-0.6-1.8-1.1-2.7-1.1h-6h0h-6c-0.9,0-2.1,0.5-2.7,1.1l-3.1,3
		c0-0.6-0.2-1.4-1.4-1.4c-1.2,0-2.5,0.4-2.5,1.3c0,0.9,1.1,1.7,2.1,1.9l-1.2,1.2c0,0,0,0.1-0.1,0.1C3.8,16.5,3,18.5,3,19.9v4.4
		c0,1.1,0.4,2,1.1,2.7v1.7c0,1,0.8,1.8,1.8,1.8h2.2c1,0,1.8-0.8,1.8-1.8v-0.4h10h0h10v0.4c0,1,0.8,1.8,1.8,1.8h2.2
		c1,0,1.8-0.8,1.8-1.8V27c0.7-0.7,1.1-1.7,1.1-2.7v-4.4C37,18.5,36.2,16.5,34.9,15.4z M12.4,10.7c0.4-0.4,1.2-0.6,1.6-0.6h6h0h6
		c0.4,0,1.1,0.3,1.6,0.6l4,3.9H20h0H8.4L12.4,10.7z M4.4,19.3c0-1.1,0.8-1.9,1.9-1.9c1,0,4.4,2,4.4,3.1s-3.4,0.8-4.4,0.8
		C5.2,21.2,4.4,20.4,4.4,19.3z M10,26.4H9.6H9.3l-2.1,0c-0.6-0.2-1-0.4-1.3-0.6c-0.1-0.1-0.3-0.2-0.4-0.4c-0.1-0.1-0.2-0.2-0.2-0.4
		c-0.3-0.7,0.3-1.4,0.3-1.4h3.6l2.4,2.8L10,26.4L10,26.4z M25.2,26.4H20h0h-5.2c-1.1,0-2-0.9-2-2H20h0h7.2
		C27.2,25.5,26.3,26.4,25.2,26.4z M25.7,23.1H20h0h-5.7c-1.2,0-2.1-1.5-2.1-3.3H20h0h7.8C27.8,21.6,26.8,23.1,25.7,23.1z M34.7,25.1
		c0,0.1-0.1,0.2-0.2,0.4c-0.1,0.1-0.2,0.2-0.4,0.4c-0.3,0.2-0.7,0.4-1.3,0.6l-2.1,0h-0.4H30h-1.6l2.4-2.8h3.6
		C34.4,23.6,35,24.3,34.7,25.1z M33.8,21.2c-1,0-4.4,0.2-4.4-0.8s3.4-3.1,4.4-3.1c1,0,1.9,0.9,1.9,1.9
		C35.6,20.4,34.8,21.2,33.8,21.2z"/>
</g>
</svg>
