<?xml version="1.0" encoding="UTF-8"?>
<svg width="40px" height="40px" viewBox="0 0 40 40" version="1.1" xmlns="http://www.w3.org/2000/svg" xmlns:xlink="http://www.w3.org/1999/xlink">
    <!-- Generator: Sketch 47 (45396) - http://www.bohemiancoding.com/sketch -->
    <title>Slice 2</title>
    <desc>Created with Sketch.</desc>
    <defs></defs>
    <g id="Page-1" stroke="none" stroke-width="1" fill="none" fill-rule="evenodd">
        <g id="Group-2-Copy" transform="translate(4.000000, 5.000000)" fill-rule="nonzero" fill="#002878">
            <path d="M4.62,28.6666667 C4.785,29.5 5.445,30 6.27,30 L26.73,30 C27.555,30 28.215,29.5 28.38,28.6666667 L31.35,13.3333333 L1.65,13.3333333 L4.62,28.6666667 Z M21.45,18.3333333 C21.45,17.5 22.275,16.6666667 23.1,16.6666667 C24.09,16.6666667 24.75,17.5 24.75,18.3333333 L24.75,25 C24.75,25.8333333 24.09,26.6666667 23.1,26.6666667 C22.275,26.6666667 21.45,25.8333333 21.45,25 L21.45,18.3333333 Z M14.85,18.3333333 C14.85,17.5 15.675,16.6666667 16.5,16.6666667 C17.49,16.6666667 18.15,17.5 18.15,18.3333333 L18.15,25 C18.15,25.8333333 17.49,26.6666667 16.5,26.6666667 C15.675,26.6666667 14.85,25.8333333 14.85,25 L14.85,18.3333333 Z M8.25,18.3333333 C8.25,17.5 9.075,16.6666667 9.9,16.6666667 C10.89,16.6666667 11.55,17.5 11.55,18.3333333 L11.55,25 C11.55,25.8333333 10.89,26.6666667 9.9,26.6666667 C9.075,26.6666667 8.25,25.8333333 8.25,25 L8.25,18.3333333 Z" id="Shape"></path>
            <path d="M32.175,10 L27.555,10 L25.08,2.33333333 C24.585,1 23.43,0 21.945,0 L11.055,0 C9.735,-7.40148683e-16 8.415,0.833333333 7.92,2.33333333 L5.445,10 L0.825,10 C0.33,10 0,10.3333333 0,10.8333333 L0,12.5 C0,13 0.33,13.3333333 0.825,13.3333333 L32.175,13.3333333 C32.67,13.3333333 33,13 33,12.5 L33,10.8333333 C33,10.3333333 32.67,10 32.175,10 Z M11.055,3.33333333 L21.945,3.33333333 L24.09,10 L8.91,10 L11.055,3.33333333 Z" id="Shape"></path>
        </g>
    </g>
</svg>