<?xml version="1.0" encoding="UTF-8"?>
<svg width="40px" height="40px" viewBox="0 0 40 40" version="1.1" xmlns="http://www.w3.org/2000/svg" xmlns:xlink="http://www.w3.org/1999/xlink">
    <!-- Generator: Sketch 47 (45396) - http://www.bohemiancoding.com/sketch -->
    <title>Slice 2</title>
    <desc>Created with Sketch.</desc>
    <defs></defs>
    <g id="Page-1" stroke="none" stroke-width="1" fill="none" fill-rule="evenodd">
        <g id="Group" transform="translate(7.000000, 7.000000)" fill-rule="nonzero" fill="#7B6852">
            <g id="Shape">
                <path d="M26.6525149,10.1134998 C26.2586095,9.65678901 25.558704,9.59308702 25.0846822,9.97529893 L18.7176567,15.1232831 L2.42955491,15.1232831 C1.81532945,15.1232831 1.31682764,15.6069863 1.31682764,16.2029777 L1.31682764,21.1760513 C1.31682764,23.7921515 3.51112582,25.9202296 6.207264,25.9202296 L20.907504,25.9202296 C23.6036422,25.9202296 25.7968276,23.7921515 25.7968276,21.1760513 L25.7968276,16.2029777 C25.7968276,15.6069863 25.2994385,15.1232831 24.6841004,15.1232831 L22.1949295,15.1232831 L26.5100858,11.6337099 C26.9818822,11.2525777 27.0464204,10.5712904 26.6525149,10.1134998"></path>
                <path d="M7.99374764,11.8843071 C8.28083127,11.8843071 8.56568945,11.7763376 8.78044582,11.5679565 L13.2313549,7.24917789 C13.6319367,6.86048782 13.6686567,6.24074308 13.3136967,5.81102461 L8.86278764,0.412551328 C8.67584945,0.186895145 8.40323127,0.0422160611 8.10613309,0.0130643053 C7.81126036,-0.017167145 7.50971127,0.0724475115 7.28048945,0.258154992 L0.604125818,5.65662827 C0.334845818,5.8747266 0.186853091,6.20295377 0.205769455,6.54305759 C0.225798545,6.8831614 0.408285818,7.19519316 0.699820364,7.38413973 L7.376184,11.7029184 C7.56423491,11.8249238 7.780104,11.8843071 7.99374764,11.8843071"></path>
                <path d="M14.6701113,10.8046124 C15.2843367,10.8046124 15.7828385,10.3209092 15.7828385,9.72491774 C15.7828385,9.12892629 15.2843367,8.64522308 14.6701113,8.64522308 C14.0558858,8.64522308 13.557384,9.12892629 13.557384,9.72491774 C13.557384,10.3209092 14.0558858,10.8046124 14.6701113,10.8046124"></path>
                <path d="M12.4446567,11.8843071 C11.8304313,11.8843071 11.3319295,12.3680103 11.3319295,12.9640017 C11.3319295,13.5599932 11.8304313,14.0436964 12.4446567,14.0436964 C13.0588822,14.0436964 13.557384,13.5599932 13.557384,12.9640017 C13.557384,12.3680103 13.0588822,11.8843071 12.4446567,11.8843071"></path>
            </g>
        </g>
    </g>
</svg>